<?xml version="1.0" encoding="utf-8" standalone="no"?>
<!DOCTYPE svg PUBLIC "-//W3C//DTD SVG 1.1//EN"
  "http://www.w3.org/Graphics/SVG/1.1/DTD/svg11.dtd">
<!-- Created with matplotlib (http://matplotlib.org/) -->
<svg height="966pt" version="1.1" viewBox="0 0 289 966" width="289pt" xmlns="http://www.w3.org/2000/svg" xmlns:xlink="http://www.w3.org/1999/xlink">
 <defs>
  <style type="text/css">
*{stroke-linecap:butt;stroke-linejoin:round;}
  </style>
 </defs>
 <g id="figure_1">
  <g id="patch_1">
   <path d="M 0 966.091432 
L 289.9115 966.091432 
L 289.9115 0 
L 0 0 
z
" style="fill:#ffffff;"/>
  </g>
  <g id="axes_1">
   <g id="patch_2">
    <path d="M 53.5115 204.579041 
L 276.7115 204.579041 
L 276.7115 15.50078 
L 53.5115 15.50078 
z
" style="fill:#ffffff;"/>
   </g>
   <g id="matplotlib.axis_1">
    <g id="xtick_1">
     <g id="line2d_1">
      <defs>
       <path d="M 0 0 
L 0 6 
" id="m49bbfa6718" style="stroke:#262626;stroke-width:1.6;"/>
      </defs>
      <g>
       <use style="fill:#262626;stroke:#262626;stroke-width:1.6;" x="158.527024" xlink:href="#m49bbfa6718" y="204.579041"/>
      </g>
     </g>
     <g id="text_1">
      <!-- 0.34 -->
      <defs>
       <path d="M 4.15625 35.296875 
Q 4.15625 48 6.765625 55.734375 
Q 9.375 63.484375 14.515625 67.671875 
Q 19.671875 71.875 27.484375 71.875 
Q 33.25 71.875 37.59375 69.546875 
Q 41.9375 67.234375 44.765625 62.859375 
Q 47.609375 58.5 49.21875 52.21875 
Q 50.828125 45.953125 50.828125 35.296875 
Q 50.828125 22.703125 48.234375 14.96875 
Q 45.65625 7.234375 40.5 3 
Q 35.359375 -1.21875 27.484375 -1.21875 
Q 17.140625 -1.21875 11.234375 6.203125 
Q 4.15625 15.140625 4.15625 35.296875 
M 13.1875 35.296875 
Q 13.1875 17.671875 17.3125 11.828125 
Q 21.4375 6 27.484375 6 
Q 33.546875 6 37.671875 11.859375 
Q 41.796875 17.71875 41.796875 35.296875 
Q 41.796875 52.984375 37.671875 58.78125 
Q 33.546875 64.59375 27.390625 64.59375 
Q 21.34375 64.59375 17.71875 59.46875 
Q 13.1875 52.9375 13.1875 35.296875 
" id="ArialMT-30"/>
       <path d="M 9.078125 0 
L 9.078125 10.015625 
L 19.09375 10.015625 
L 19.09375 0 
z
" id="ArialMT-2e"/>
       <path d="M 4.203125 18.890625 
L 12.984375 20.0625 
Q 14.5 12.59375 18.140625 9.296875 
Q 21.78125 6 27 6 
Q 33.203125 6 37.46875 10.296875 
Q 41.75 14.59375 41.75 20.953125 
Q 41.75 27 37.796875 30.921875 
Q 33.84375 34.859375 27.734375 34.859375 
Q 25.25 34.859375 21.53125 33.890625 
L 22.515625 41.609375 
Q 23.390625 41.5 23.921875 41.5 
Q 29.546875 41.5 34.03125 44.421875 
Q 38.53125 47.359375 38.53125 53.46875 
Q 38.53125 58.296875 35.25 61.46875 
Q 31.984375 64.65625 26.8125 64.65625 
Q 21.6875 64.65625 18.265625 61.421875 
Q 14.84375 58.203125 13.875 51.765625 
L 5.078125 53.328125 
Q 6.6875 62.15625 12.390625 67.015625 
Q 18.109375 71.875 26.609375 71.875 
Q 32.46875 71.875 37.390625 69.359375 
Q 42.328125 66.84375 44.9375 62.5 
Q 47.5625 58.15625 47.5625 53.265625 
Q 47.5625 48.640625 45.0625 44.828125 
Q 42.578125 41.015625 37.703125 38.765625 
Q 44.046875 37.3125 47.5625 32.6875 
Q 51.078125 28.078125 51.078125 21.140625 
Q 51.078125 11.765625 44.234375 5.25 
Q 37.40625 -1.265625 26.953125 -1.265625 
Q 17.53125 -1.265625 11.296875 4.34375 
Q 5.078125 9.96875 4.203125 18.890625 
" id="ArialMT-33"/>
       <path d="M 32.328125 0 
L 32.328125 17.140625 
L 1.265625 17.140625 
L 1.265625 25.203125 
L 33.9375 71.578125 
L 41.109375 71.578125 
L 41.109375 25.203125 
L 50.78125 25.203125 
L 50.78125 17.140625 
L 41.109375 17.140625 
L 41.109375 0 
z
M 32.328125 25.203125 
L 32.328125 57.46875 
L 9.90625 25.203125 
z
" id="ArialMT-34"/>
      </defs>
      <g style="fill:#262626;" transform="translate(142.958274 233.231541)scale(0.16 -0.16)">
       <use xlink:href="#ArialMT-30"/>
       <use x="55.615234" xlink:href="#ArialMT-2e"/>
       <use x="83.398438" xlink:href="#ArialMT-33"/>
       <use x="139.013672" xlink:href="#ArialMT-34"/>
      </g>
     </g>
    </g>
   </g>
   <g id="matplotlib.axis_2">
    <g id="ytick_1">
     <g id="line2d_2">
      <defs>
       <path d="M 0 0 
L -6 0 
" id="m1e53c0bb44" style="stroke:#262626;stroke-width:1.6;"/>
      </defs>
      <g>
       <use style="fill:#262626;stroke:#262626;stroke-width:1.6;" x="53.5115" xlink:href="#m1e53c0bb44" y="204.579041"/>
      </g>
     </g>
     <g id="text_2">
      <!-- 0 -->
      <g style="fill:#262626;" transform="translate(36.614 210.305291)scale(0.16 -0.16)">
       <use xlink:href="#ArialMT-30"/>
      </g>
     </g>
    </g>
    <g id="ytick_2">
     <g id="line2d_3">
      <g>
       <use style="fill:#262626;stroke:#262626;stroke-width:1.6;" x="53.5115" xlink:href="#m1e53c0bb44" y="15.50078"/>
      </g>
     </g>
     <g id="text_3">
      <!-- 60 -->
      <defs>
       <path d="M 49.75 54.046875 
L 41.015625 53.375 
Q 39.84375 58.546875 37.703125 60.890625 
Q 34.125 64.65625 28.90625 64.65625 
Q 24.703125 64.65625 21.53125 62.3125 
Q 17.390625 59.28125 14.984375 53.46875 
Q 12.59375 47.65625 12.5 36.921875 
Q 15.671875 41.75 20.265625 44.09375 
Q 24.859375 46.4375 29.890625 46.4375 
Q 38.671875 46.4375 44.84375 39.96875 
Q 51.03125 33.5 51.03125 23.25 
Q 51.03125 16.5 48.125 10.71875 
Q 45.21875 4.9375 40.140625 1.859375 
Q 35.0625 -1.21875 28.609375 -1.21875 
Q 17.625 -1.21875 10.6875 6.859375 
Q 3.765625 14.9375 3.765625 33.5 
Q 3.765625 54.25 11.421875 63.671875 
Q 18.109375 71.875 29.4375 71.875 
Q 37.890625 71.875 43.28125 67.140625 
Q 48.6875 62.40625 49.75 54.046875 
M 13.875 23.1875 
Q 13.875 18.65625 15.796875 14.5 
Q 17.71875 10.359375 21.1875 8.171875 
Q 24.65625 6 28.46875 6 
Q 34.03125 6 38.03125 10.484375 
Q 42.046875 14.984375 42.046875 22.703125 
Q 42.046875 30.125 38.078125 34.390625 
Q 34.125 38.671875 28.125 38.671875 
Q 22.171875 38.671875 18.015625 34.390625 
Q 13.875 30.125 13.875 23.1875 
" id="ArialMT-36"/>
      </defs>
      <g style="fill:#262626;" transform="translate(27.7165 21.22703)scale(0.16 -0.16)">
       <use xlink:href="#ArialMT-36"/>
       <use x="55.615234" xlink:href="#ArialMT-30"/>
      </g>
     </g>
    </g>
    <g id="text_4">
     <!-- U(r) (kJ/mol) -->
     <defs>
      <path d="M 54.6875 71.578125 
L 64.15625 71.578125 
L 64.15625 30.21875 
Q 64.15625 19.4375 61.71875 13.078125 
Q 59.28125 6.734375 52.90625 2.75 
Q 46.53125 -1.21875 36.1875 -1.21875 
Q 26.125 -1.21875 19.71875 2.25 
Q 13.328125 5.71875 10.59375 12.28125 
Q 7.859375 18.84375 7.859375 30.21875 
L 7.859375 71.578125 
L 17.328125 71.578125 
L 17.328125 30.28125 
Q 17.328125 20.953125 19.0625 16.53125 
Q 20.796875 12.109375 25.015625 9.71875 
Q 29.25 7.328125 35.359375 7.328125 
Q 45.796875 7.328125 50.234375 12.0625 
Q 54.6875 16.796875 54.6875 30.28125 
z
" id="ArialMT-55"/>
      <path d="M 23.390625 -21.046875 
Q 16.109375 -11.859375 11.078125 0.4375 
Q 6.0625 12.75 6.0625 25.921875 
Q 6.0625 37.546875 9.8125 48.1875 
Q 14.203125 60.546875 23.390625 72.796875 
L 29.6875 72.796875 
Q 23.78125 62.640625 21.875 58.296875 
Q 18.890625 51.5625 17.1875 44.234375 
Q 15.09375 35.109375 15.09375 25.875 
Q 15.09375 2.390625 29.6875 -21.046875 
z
" id="ArialMT-28"/>
      <path d="M 6.5 0 
L 6.5 51.859375 
L 14.40625 51.859375 
L 14.40625 44 
Q 17.4375 49.515625 20 51.265625 
Q 22.5625 53.03125 25.640625 53.03125 
Q 30.078125 53.03125 34.671875 50.203125 
L 31.640625 42.046875 
Q 28.421875 43.953125 25.203125 43.953125 
Q 22.3125 43.953125 20.015625 42.21875 
Q 17.71875 40.484375 16.75 37.40625 
Q 15.28125 32.71875 15.28125 27.15625 
L 15.28125 0 
z
" id="ArialMT-72"/>
      <path d="M 12.359375 -21.046875 
L 6.0625 -21.046875 
Q 20.65625 2.390625 20.65625 25.875 
Q 20.65625 35.0625 18.5625 44.09375 
Q 16.890625 51.421875 13.921875 58.15625 
Q 12.015625 62.546875 6.0625 72.796875 
L 12.359375 72.796875 
Q 21.53125 60.546875 25.921875 48.1875 
Q 29.6875 37.546875 29.6875 25.921875 
Q 29.6875 12.75 24.625 0.4375 
Q 19.578125 -11.859375 12.359375 -21.046875 
" id="ArialMT-29"/>
      <path id="ArialMT-20"/>
      <path d="M 6.640625 0 
L 6.640625 71.578125 
L 15.4375 71.578125 
L 15.4375 30.765625 
L 36.234375 51.859375 
L 47.609375 51.859375 
L 27.78125 32.625 
L 49.609375 0 
L 38.765625 0 
L 21.625 26.515625 
L 15.4375 20.5625 
L 15.4375 0 
z
" id="ArialMT-6b"/>
      <path d="M 2.875 20.3125 
L 11.421875 21.484375 
Q 11.765625 13.28125 14.5 10.25 
Q 17.234375 7.234375 22.078125 7.234375 
Q 25.640625 7.234375 28.21875 8.859375 
Q 30.8125 10.5 31.78125 13.296875 
Q 32.765625 16.109375 32.765625 22.265625 
L 32.765625 71.578125 
L 42.234375 71.578125 
L 42.234375 22.796875 
Q 42.234375 13.8125 40.0625 8.875 
Q 37.890625 3.953125 33.171875 1.359375 
Q 28.46875 -1.21875 22.125 -1.21875 
Q 12.703125 -1.21875 7.6875 4.203125 
Q 2.6875 9.625 2.875 20.3125 
" id="ArialMT-4a"/>
      <path d="M 0 -1.21875 
L 20.75 72.796875 
L 27.78125 72.796875 
L 7.078125 -1.21875 
z
" id="ArialMT-2f"/>
      <path d="M 6.59375 0 
L 6.59375 51.859375 
L 14.453125 51.859375 
L 14.453125 44.578125 
Q 16.890625 48.390625 20.9375 50.703125 
Q 25 53.03125 30.171875 53.03125 
Q 35.9375 53.03125 39.625 50.640625 
Q 43.3125 48.25 44.828125 43.953125 
Q 50.984375 53.03125 60.84375 53.03125 
Q 68.5625 53.03125 72.703125 48.75 
Q 76.859375 44.484375 76.859375 35.59375 
L 76.859375 0 
L 68.109375 0 
L 68.109375 32.671875 
Q 68.109375 37.9375 67.25 40.25 
Q 66.40625 42.578125 64.15625 43.984375 
Q 61.921875 45.40625 58.890625 45.40625 
Q 53.421875 45.40625 49.796875 41.765625 
Q 46.1875 38.140625 46.1875 30.125 
L 46.1875 0 
L 37.40625 0 
L 37.40625 33.6875 
Q 37.40625 39.546875 35.25 42.46875 
Q 33.109375 45.40625 28.21875 45.40625 
Q 24.515625 45.40625 21.359375 43.453125 
Q 18.21875 41.5 16.796875 37.734375 
Q 15.375 33.984375 15.375 26.90625 
L 15.375 0 
z
" id="ArialMT-6d"/>
      <path d="M 3.328125 25.921875 
Q 3.328125 40.328125 11.328125 47.265625 
Q 18.015625 53.03125 27.640625 53.03125 
Q 38.328125 53.03125 45.109375 46.015625 
Q 51.90625 39.015625 51.90625 26.65625 
Q 51.90625 16.65625 48.90625 10.90625 
Q 45.90625 5.171875 40.15625 2 
Q 34.421875 -1.171875 27.640625 -1.171875 
Q 16.75 -1.171875 10.03125 5.8125 
Q 3.328125 12.796875 3.328125 25.921875 
M 12.359375 25.921875 
Q 12.359375 15.96875 16.703125 11.015625 
Q 21.046875 6.0625 27.640625 6.0625 
Q 34.1875 6.0625 38.53125 11.03125 
Q 42.875 16.015625 42.875 26.21875 
Q 42.875 35.84375 38.5 40.796875 
Q 34.125 45.75 27.640625 45.75 
Q 21.046875 45.75 16.703125 40.8125 
Q 12.359375 35.890625 12.359375 25.921875 
" id="ArialMT-6f"/>
      <path d="M 6.390625 0 
L 6.390625 71.578125 
L 15.1875 71.578125 
L 15.1875 0 
z
" id="ArialMT-6c"/>
     </defs>
     <g style="fill:#262626;" transform="translate(20.01225 158.914285)rotate(-90)scale(0.176 -0.176)">
      <use xlink:href="#ArialMT-55"/>
      <use x="72.216797" xlink:href="#ArialMT-28"/>
      <use x="105.517578" xlink:href="#ArialMT-72"/>
      <use x="138.818359" xlink:href="#ArialMT-29"/>
      <use x="172.119141" xlink:href="#ArialMT-20"/>
      <use x="199.902344" xlink:href="#ArialMT-28"/>
      <use x="233.203125" xlink:href="#ArialMT-6b"/>
      <use x="283.203125" xlink:href="#ArialMT-4a"/>
      <use x="333.203125" xlink:href="#ArialMT-2f"/>
      <use x="360.986328" xlink:href="#ArialMT-6d"/>
      <use x="444.287109" xlink:href="#ArialMT-6f"/>
      <use x="499.902344" xlink:href="#ArialMT-6c"/>
      <use x="522.119141" xlink:href="#ArialMT-29"/>
     </g>
    </g>
   </g>
   <g id="line2d_4">
    <path clip-path="url(#pbf2d922750)" d="M 63.656955 56.926251 
L 64.467646 23.655725 
L 64.671915 22.007278 
L 64.872992 22.007278 
L 65.077261 22.573882 
L 65.281529 24.781686 
L 65.887952 36.517774 
L 66.092221 34.247574 
L 66.497567 24.781686 
L 66.701836 24.210355 
L 66.902913 27.99192 
L 67.308259 42.808093 
L 67.512527 46.148475 
L 67.716796 42.808093 
L 68.323219 23.64375 
L 68.527488 22.007278 
L 68.728565 22.007278 
L 68.932833 22.561908 
L 69.137102 24.746077 
L 69.743525 36.41063 
L 69.947794 34.15209 
L 70.35314 27.47353 
L 70.557408 29.720726 
L 70.962754 36.376911 
L 71.3681 32.959321 
L 71.569177 35.338556 
L 71.977715 49.235178 
L 72.178792 50.862511 
L 72.38306 45.492689 
L 72.788406 28.83773 
L 72.989483 26.332758 
L 73.193752 29.563476 
L 73.803367 48.802504 
L 74.004444 52.130911 
L 74.208712 52.994369 
L 74.409789 52.467786 
L 74.818327 50.129518 
L 75.019404 50.405572 
L 75.629019 55.16026 
L 75.830096 55.055952 
L 76.238633 51.97051 
L 76.43971 52.481336 
L 76.845056 57.273525 
L 77.049325 57.643488 
L 77.253594 56.936966 
L 77.454671 57.304093 
L 77.860016 63.921201 
L 78.265362 68.51927 
L 78.874977 69.065706 
L 79.079246 68.855829 
L 79.484591 66.875234 
L 79.685668 66.948344 
L 80.094206 69.415816 
L 80.295283 69.825485 
L 80.499552 69.375479 
L 80.700629 68.549837 
L 80.904898 68.506349 
L 81.105975 69.518548 
L 81.715589 75.546363 
L 82.325204 78.108374 
L 82.526281 78.428546 
L 82.73055 78.464471 
L 82.934818 78.979709 
L 83.541241 82.662008 
L 84.150856 86.872466 
L 84.556202 89.177015 
L 85.775431 92.178002 
L 85.976508 92.52307 
L 86.180776 92.612567 
L 86.381854 92.479897 
L 86.586122 92.139871 
L 86.787199 92.049429 
L 86.991468 92.304054 
L 88.616043 97.300132 
L 89.631003 102.603777 
L 89.83208 102.566592 
L 90.036349 102.796637 
L 90.441695 105.012634 
L 90.847041 107.265502 
L 91.252387 108.39556 
L 91.456655 108.468985 
L 91.657732 108.381379 
L 91.862001 108.427388 
L 92.267347 109.39988 
L 93.483384 113.569371 
L 94.092999 115.970035 
L 94.498345 117.366063 
L 94.903691 117.70987 
L 95.312228 118.014601 
L 95.717574 118.734989 
L 96.323997 120.778295 
L 97.543226 124.28097 
L 97.948572 125.04327 
L 98.353918 125.35651 
L 98.558186 125.794226 
L 99.978493 130.480846 
L 100.383838 131.546932 
L 100.993453 133.781837 
L 101.398799 134.402014 
L 101.804145 134.997295 
L 102.413759 136.835766 
L 102.819105 137.93305 
L 104.239411 140.652941 
L 104.849026 141.994136 
L 106.269332 145.9402 
L 108.296061 150.107485 
L 109.109944 151.922321 
L 109.716367 153.125804 
L 110.325982 154.292417 
L 111.950557 157.859378 
L 113.370863 160.600383 
L 116.007206 165.728185 
L 121.078817 174.596145 
L 123.718352 178.585349 
L 124.733312 180.007974 
L 126.763233 182.972847 
L 128.384616 185.096543 
L 129.603845 186.625272 
L 133.660495 191.384592 
L 138.531028 196.082305 
L 143.401561 199.698553 
L 148.268903 202.30199 
L 149.283863 202.675259 
L 150.704169 203.196598 
L 153.749051 204.04279 
L 155.370434 204.332188 
L 158.820661 204.561078 
L 160.850581 204.468112 
L 162.676233 204.237411 
L 165.1115 203.76423 
L 167.342498 203.03072 
L 169.171342 202.308056 
L 171.807685 201.101765 
L 173.023723 200.340852 
L 174.242952 199.649834 
L 175.663258 198.673685 
L 180.939137 194.520928 
L 184.590441 191.000827 
L 186.010747 189.3878 
L 186.821439 188.5499 
L 187.635322 187.664541 
L 188.650282 186.457371 
L 191.286626 183.153386 
L 194.532584 178.627104 
L 199.198848 171.522488 
L 200.012732 170.247786 
L 201.228769 168.201329 
L 204.474727 162.510073 
L 206.909994 158.050347 
L 207.723877 156.652429 
L 208.735646 154.488113 
L 209.345261 153.729594 
L 209.750606 152.660041 
L 210.360221 151.027035 
L 212.390142 146.695567 
L 212.996565 145.181366 
L 214.011525 143.91139 
L 216.446791 137.808889 
L 217.461752 136.115378 
L 218.272443 134.278798 
L 218.680981 133.205149 
L 219.491673 130.384731 
L 220.911979 127.029222 
L 221.317325 126.034356 
L 221.926939 124.130968 
L 222.332285 123.814262 
L 222.533362 123.773295 
L 222.737631 123.50827 
L 223.142977 122.234513 
L 223.752591 120.428185 
L 224.563283 118.071955 
L 225.373974 115.485994 
L 225.578243 115.30511 
L 225.983589 115.253743 
L 226.187858 114.885671 
L 227.202818 111.230473 
L 227.608164 110.52206 
L 228.623124 107.910889 
L 229.229547 107.447962 
L 229.433816 106.906253 
L 229.839162 104.635738 
L 230.448776 101.543994 
L 231.058391 99.725061 
L 232.274428 96.32764 
L 232.884043 92.95858 
L 233.08512 92.480212 
L 233.289389 92.470758 
L 233.694734 92.959526 
L 233.899003 92.899651 
L 234.10008 92.471704 
L 234.505426 90.296043 
L 234.910772 87.860085 
L 235.319309 86.766897 
L 235.724655 86.124346 
L 236.130001 86.326345 
L 236.331078 86.512587 
L 236.535347 86.06132 
L 237.754576 81.777437 
L 237.955653 81.180895 
L 238.159922 80.082036 
L 238.766345 75.831556 
L 238.970613 76.018744 
L 239.174882 76.447321 
L 239.375959 75.957924 
L 239.985574 71.337481 
L 240.595188 66.324071 
L 241.000534 63.565104 
L 241.201611 63.692102 
L 241.811226 67.051077 
L 242.015494 67.126708 
L 242.216572 67.340682 
L 242.826186 69.524536 
L 243.027263 69.133774 
L 243.435801 67.161688 
L 243.636878 65.299897 
L 244.246492 55.700394 
L 244.447569 55.220765 
L 244.651838 57.139279 
L 245.261453 65.896124 
L 245.46253 66.9745 
L 245.666798 65.900536 
L 246.276413 56.546204 
L 246.47749 56.372567 
L 246.681759 57.681619 
L 246.882836 58.191815 
L 247.087105 56.727719 
L 247.49245 49.001666 
L 248.303142 23.858669 
L 248.507411 22.056438 
L 248.708488 22.051711 
L 248.912757 23.215173 
L 249.117025 26.573203 
L 250.131986 52.715793 
L 250.333063 52.51474 
L 250.537332 47.372127 
L 250.942677 30.97589 
L 251.143754 28.370707 
L 251.348023 30.06926 
L 251.552292 32.844614 
L 251.753369 33.287687 
L 251.957638 33.28233 
L 252.158715 33.905343 
L 252.564061 37.04089 
L 252.768329 37.037109 
L 253.377944 33.248926 
L 253.579021 33.243569 
L 253.78329 32.794193 
L 254.593981 22.040367 
L 255.404673 22.007278 
L 256.218556 22.032173 
L 256.419633 23.156559 
L 257.029248 31.642076 
L 257.233517 29.91327 
L 257.434594 26.031178 
L 257.638863 24.296385 
L 257.83994 26.015422 
L 258.245285 31.613714 
L 258.449554 29.88806 
L 258.8549 23.147105 
L 259.059169 22.029022 
L 260.275206 22.007278 
L 265.755354 22.007278 
L 265.956431 23.711188 
L 266.1607 28.357786 
L 266.566045 42.760193 
L 266.566045 42.760193 
" style="fill:none;stroke:#a6cee3;stroke-linecap:round;stroke-width:2.8;"/>
   </g>
   <g id="line2d_5">
    <path clip-path="url(#pbf2d922750)" d="M 63.656955 25.213202 
L 68.323219 42.423792 
L 72.788406 58.080179 
L 77.253594 72.941889 
L 81.514512 86.382743 
L 85.775431 99.099965 
L 89.83208 110.535096 
L 93.891922 121.322536 
L 97.744303 130.951283 
L 101.599876 139.995752 
L 105.254371 148.021575 
L 108.905675 155.508773 
L 112.355902 162.095359 
L 115.806129 168.207477 
L 119.052087 173.524567 
L 122.298046 178.421707 
L 125.342927 182.633751 
L 128.384616 186.472429 
L 131.429497 189.945797 
L 134.27011 192.852973 
L 137.110722 195.438534 
L 139.747066 197.550413 
L 142.386601 199.387322 
L 145.022945 200.94482 
L 147.458211 202.137391 
L 149.893478 203.093585 
L 152.328744 203.813402 
L 154.764011 204.296843 
L 157.199277 204.543908 
L 159.634544 204.554596 
L 162.066619 204.329358 
L 164.501885 203.867603 
L 166.937152 203.169471 
L 169.372419 202.234963 
L 171.807685 201.064079 
L 174.242952 199.656817 
L 176.879295 197.866902 
L 179.518831 195.797294 
L 182.155174 193.452998 
L 184.995787 190.617011 
L 187.836399 187.45941 
L 190.677011 183.980195 
L 193.721892 179.893652 
L 196.766774 175.437577 
L 200.012732 170.280291 
L 203.25869 164.703055 
L 206.708917 158.314421 
L 210.155952 151.457887 
L 213.810448 143.671488 
L 217.461752 135.360275 
L 221.317325 126.007294 
L 225.172897 116.061811 
L 229.229547 104.957991 
L 233.289389 93.188748 
L 237.550307 80.130037 
L 241.811226 66.347693 
L 246.276413 51.128123 
L 250.738409 35.125607 
L 255.404673 17.541635 
L 260.093106 -1 
L 260.093106 -1 
" style="fill:none;stroke:#1f78b4;stroke-dasharray:7.84,3.36;stroke-dashoffset:0;stroke-width:2.8;"/>
   </g>
   <g id="patch_3">
    <path d="M 53.5115 204.579041 
L 53.5115 15.50078 
" style="fill:none;stroke:#262626;stroke-linecap:square;stroke-linejoin:miter;stroke-width:1.25;"/>
   </g>
   <g id="patch_4">
    <path d="M 276.7115 204.579041 
L 276.7115 15.50078 
" style="fill:none;stroke:#262626;stroke-linecap:square;stroke-linejoin:miter;stroke-width:1.25;"/>
   </g>
   <g id="patch_5">
    <path d="M 53.5115 204.579041 
L 276.7115 204.579041 
" style="fill:none;stroke:#262626;stroke-linecap:square;stroke-linejoin:miter;stroke-width:1.25;"/>
   </g>
   <g id="patch_6">
    <path d="M 53.5115 15.50078 
L 276.7115 15.50078 
" style="fill:none;stroke:#262626;stroke-linecap:square;stroke-linejoin:miter;stroke-width:1.25;"/>
   </g>
   <g id="text_5">
    <!-- a) -->
    <defs>
     <path d="M 40.4375 6.390625 
Q 35.546875 2.25 31.03125 0.53125 
Q 26.515625 -1.171875 21.34375 -1.171875 
Q 12.796875 -1.171875 8.203125 3 
Q 3.609375 7.171875 3.609375 13.671875 
Q 3.609375 17.484375 5.34375 20.625 
Q 7.078125 23.78125 9.890625 25.6875 
Q 12.703125 27.59375 16.21875 28.5625 
Q 18.796875 29.25 24.03125 29.890625 
Q 34.671875 31.15625 39.703125 32.90625 
Q 39.75 34.71875 39.75 35.203125 
Q 39.75 40.578125 37.25 42.78125 
Q 33.890625 45.75 27.25 45.75 
Q 21.046875 45.75 18.09375 43.578125 
Q 15.140625 41.40625 13.71875 35.890625 
L 5.125 37.0625 
Q 6.296875 42.578125 8.984375 45.96875 
Q 11.671875 49.359375 16.75 51.1875 
Q 21.828125 53.03125 28.515625 53.03125 
Q 35.15625 53.03125 39.296875 51.46875 
Q 43.453125 49.90625 45.40625 47.53125 
Q 47.359375 45.171875 48.140625 41.546875 
Q 48.578125 39.3125 48.578125 33.453125 
L 48.578125 21.734375 
Q 48.578125 9.46875 49.140625 6.21875 
Q 49.703125 2.984375 51.375 0 
L 42.1875 0 
Q 40.828125 2.734375 40.4375 6.390625 
M 39.703125 26.03125 
Q 34.90625 24.078125 25.34375 22.703125 
Q 19.921875 21.921875 17.671875 20.9375 
Q 15.4375 19.96875 14.203125 18.09375 
Q 12.984375 16.21875 12.984375 13.921875 
Q 12.984375 10.40625 15.640625 8.0625 
Q 18.3125 5.71875 23.4375 5.71875 
Q 28.515625 5.71875 32.46875 7.9375 
Q 36.421875 10.15625 38.28125 14.015625 
Q 39.703125 17 39.703125 22.796875 
z
" id="ArialMT-61"/>
    </defs>
    <g style="fill:#262626;" transform="translate(11.1035 17.391562)scale(0.14 -0.14)">
     <use xlink:href="#ArialMT-61"/>
     <use x="55.615234" xlink:href="#ArialMT-29"/>
    </g>
   </g>
  </g>
  <g id="axes_2">
   <g id="patch_7">
    <path d="M 53.5115 431.472954 
L 276.7115 431.472954 
L 276.7115 242.394693 
L 53.5115 242.394693 
z
" style="fill:#ffffff;"/>
   </g>
   <g id="matplotlib.axis_3">
    <g id="xtick_2">
     <g id="line2d_6">
      <g>
       <use style="fill:#262626;stroke:#262626;stroke-width:1.6;" x="163.506533" xlink:href="#m49bbfa6718" y="431.472954"/>
      </g>
     </g>
     <g id="text_6">
      <!-- 0.34 -->
      <g style="fill:#262626;" transform="translate(147.937783 460.125454)scale(0.16 -0.16)">
       <use xlink:href="#ArialMT-30"/>
       <use x="55.615234" xlink:href="#ArialMT-2e"/>
       <use x="83.398438" xlink:href="#ArialMT-33"/>
       <use x="139.013672" xlink:href="#ArialMT-34"/>
      </g>
     </g>
    </g>
   </g>
   <g id="matplotlib.axis_4">
    <g id="ytick_3">
     <g id="line2d_7">
      <g>
       <use style="fill:#262626;stroke:#262626;stroke-width:1.6;" x="53.5115" xlink:href="#m1e53c0bb44" y="431.472954"/>
      </g>
     </g>
     <g id="text_7">
      <!-- 0 -->
      <g style="fill:#262626;" transform="translate(36.614 437.199204)scale(0.16 -0.16)">
       <use xlink:href="#ArialMT-30"/>
      </g>
     </g>
    </g>
    <g id="ytick_4">
     <g id="line2d_8">
      <g>
       <use style="fill:#262626;stroke:#262626;stroke-width:1.6;" x="53.5115" xlink:href="#m1e53c0bb44" y="242.394693"/>
      </g>
     </g>
     <g id="text_8">
      <!-- 60 -->
      <g style="fill:#262626;" transform="translate(27.7165 248.120943)scale(0.16 -0.16)">
       <use xlink:href="#ArialMT-36"/>
       <use x="55.615234" xlink:href="#ArialMT-30"/>
      </g>
     </g>
    </g>
    <g id="text_9">
     <!-- U(r) (kJ/mol) -->
     <g style="fill:#262626;" transform="translate(20.01225 385.808198)rotate(-90)scale(0.176 -0.176)">
      <use xlink:href="#ArialMT-55"/>
      <use x="72.216797" xlink:href="#ArialMT-28"/>
      <use x="105.517578" xlink:href="#ArialMT-72"/>
      <use x="138.818359" xlink:href="#ArialMT-29"/>
      <use x="172.119141" xlink:href="#ArialMT-20"/>
      <use x="199.902344" xlink:href="#ArialMT-28"/>
      <use x="233.203125" xlink:href="#ArialMT-6b"/>
      <use x="283.203125" xlink:href="#ArialMT-4a"/>
      <use x="333.203125" xlink:href="#ArialMT-2f"/>
      <use x="360.986328" xlink:href="#ArialMT-6d"/>
      <use x="444.287109" xlink:href="#ArialMT-6f"/>
      <use x="499.902344" xlink:href="#ArialMT-6c"/>
      <use x="522.119141" xlink:href="#ArialMT-29"/>
     </g>
    </g>
   </g>
   <g id="line2d_9">
    <path clip-path="url(#p0edd046079)" d="M 63.656955 268.071521 
L 65.683035 267.200185 
L 67.712498 268.427303 
L 69.741961 272.836608 
L 71.771424 279.723784 
L 73.800887 287.582191 
L 75.83035 294.654349 
L 77.859813 300.594872 
L 79.889276 305.431179 
L 81.918739 310.215174 
L 83.948202 315.623128 
L 85.974282 321.661027 
L 88.003745 327.794411 
L 90.033208 333.521906 
L 92.062671 338.951604 
L 94.092134 344.208925 
L 96.121597 349.409522 
L 98.15106 354.469572 
L 100.180523 359.381825 
L 102.209986 364.122332 
L 104.236067 368.69519 
L 106.26553 373.090944 
L 108.294993 377.325982 
L 110.324456 381.399988 
L 112.353919 385.301303 
L 114.383382 389.0148 
L 116.412845 392.545206 
L 118.442308 395.908593 
L 120.471771 399.119142 
L 122.501234 402.178397 
L 124.527314 405.079803 
L 126.556777 407.818318 
L 128.58624 410.394604 
L 130.615703 412.820352 
L 132.645166 415.100321 
L 134.674629 417.236621 
L 136.704092 419.220872 
L 138.733555 421.053576 
L 140.763018 422.736152 
L 142.789098 424.27216 
L 144.818561 425.655488 
L 146.848024 426.88248 
L 148.877487 427.953546 
L 150.90695 428.877725 
L 152.936413 429.660825 
L 154.965876 430.303376 
L 156.995339 430.799309 
L 159.024802 431.143554 
L 161.054265 431.336877 
L 163.080346 431.387326 
L 165.109809 431.304272 
L 167.139272 431.090004 
L 169.168735 430.739519 
L 171.198198 430.245338 
L 173.227661 429.609049 
L 175.257124 428.833636 
L 177.286587 427.923514 
L 179.31605 426.872333 
L 181.34213 425.678241 
L 183.371593 424.33985 
L 185.401056 422.863496 
L 187.430519 421.250438 
L 189.459982 419.502535 
L 191.489445 417.619127 
L 193.518908 415.603174 
L 195.548371 413.453575 
L 197.577834 411.17244 
L 199.607297 408.760526 
L 201.633377 406.220985 
L 203.66284 403.549656 
L 205.692303 400.737022 
L 207.721766 397.775111 
L 209.751229 394.660047 
L 211.780692 391.392774 
L 213.810155 387.967622 
L 215.839618 384.379547 
L 217.869081 380.628864 
L 219.898544 376.74047 
L 221.924625 372.738628 
L 223.954088 368.659265 
L 225.983551 364.496077 
L 228.013014 360.255997 
L 230.042477 355.9031 
L 232.07194 351.439592 
L 234.101403 346.836167 
L 236.130866 342.080534 
L 238.160329 337.141179 
L 240.186409 332.031654 
L 242.215872 326.834838 
L 244.245335 321.60714 
L 246.274798 316.128912 
L 248.304261 309.929981 
L 250.333724 302.514017 
L 252.363187 294.200876 
L 254.39265 285.907903 
L 256.422113 278.41095 
L 258.451576 271.555288 
L 260.477657 265.408984 
L 262.507119 261.383508 
L 264.536582 260.447885 
L 266.566045 262.835629 
" style="fill:none;stroke:#a6cee3;stroke-linecap:round;stroke-width:2.8;"/>
   </g>
   <g id="line2d_10">
    <path clip-path="url(#p0edd046079)" d="M 63.656955 261.209378 
L 65.683035 268.049022 
L 67.712498 274.759526 
L 69.741961 281.329352 
L 71.771424 287.758503 
L 73.800887 294.046977 
L 75.83035 300.194774 
L 77.859813 306.201895 
L 79.889276 312.068339 
L 81.918739 317.794107 
L 83.948202 323.379198 
L 85.974282 328.814656 
L 88.003745 334.118629 
L 90.033208 339.281925 
L 92.062671 344.304545 
L 94.092134 349.186488 
L 96.121597 353.927755 
L 98.15106 358.528345 
L 100.180523 362.988259 
L 102.209986 367.307496 
L 104.236067 371.47921 
L 106.26553 375.517329 
L 108.294993 379.414771 
L 110.324456 383.171537 
L 112.353919 386.787626 
L 114.383382 390.263039 
L 116.412845 393.597775 
L 118.442308 396.791835 
L 120.471771 399.845218 
L 122.501234 402.757925 
L 124.527314 405.525453 
L 126.556777 408.157041 
L 128.58624 410.647953 
L 130.615703 412.998188 
L 132.645166 415.207747 
L 134.674629 417.276629 
L 136.704092 419.204835 
L 138.733555 420.992364 
L 140.763018 422.639217 
L 142.789098 424.143 
L 144.818561 425.508734 
L 146.848024 426.733792 
L 148.877487 427.818174 
L 150.90695 428.761878 
L 152.936413 429.564907 
L 154.965876 430.227259 
L 156.995339 430.748934 
L 159.024802 431.129933 
L 161.054265 431.370255 
L 163.080346 431.469852 
L 165.109809 431.429056 
L 167.139272 431.247583 
L 169.168735 430.925434 
L 171.198198 430.462608 
L 173.227661 429.859106 
L 175.257124 429.114927 
L 177.286587 428.230072 
L 179.31605 427.204541 
L 181.34213 426.040393 
L 183.371593 424.733743 
L 185.401056 423.286416 
L 187.430519 421.698413 
L 189.459982 419.969733 
L 191.489445 418.100377 
L 193.518908 416.090345 
L 195.548371 413.939635 
L 197.577834 411.64825 
L 199.607297 409.216188 
L 201.633377 406.647854 
L 203.66284 403.934673 
L 205.692303 401.080816 
L 207.721766 398.086283 
L 209.751229 394.951072 
L 211.780692 391.675186 
L 213.810155 388.258623 
L 215.839618 384.701383 
L 217.869081 381.003467 
L 219.898544 377.164874 
L 221.924625 373.192354 
L 223.954088 369.072643 
L 225.983551 364.812255 
L 228.013014 360.411191 
L 230.042477 355.869451 
L 232.07194 351.187033 
L 234.101403 346.36394 
L 236.130866 341.40017 
L 238.160329 336.295723 
L 240.186409 331.059459 
L 242.215872 325.673894 
L 244.245335 320.147652 
L 246.274798 314.480734 
L 248.304261 308.673139 
L 250.333724 302.724868 
L 252.363187 296.635921 
L 254.39265 290.406296 
L 256.422113 284.035996 
L 258.451576 277.525019 
L 260.477657 270.884568 
L 262.507119 264.092473 
L 264.536582 257.1597 
L 266.566045 250.086252 
" style="fill:none;stroke:#1f78b4;stroke-dasharray:7.84,3.36;stroke-dashoffset:0;stroke-width:2.8;"/>
   </g>
   <g id="patch_8">
    <path d="M 53.5115 431.472954 
L 53.5115 242.394693 
" style="fill:none;stroke:#262626;stroke-linecap:square;stroke-linejoin:miter;stroke-width:1.25;"/>
   </g>
   <g id="patch_9">
    <path d="M 276.7115 431.472954 
L 276.7115 242.394693 
" style="fill:none;stroke:#262626;stroke-linecap:square;stroke-linejoin:miter;stroke-width:1.25;"/>
   </g>
   <g id="patch_10">
    <path d="M 53.5115 431.472954 
L 276.7115 431.472954 
" style="fill:none;stroke:#262626;stroke-linecap:square;stroke-linejoin:miter;stroke-width:1.25;"/>
   </g>
   <g id="patch_11">
    <path d="M 53.5115 242.394693 
L 276.7115 242.394693 
" style="fill:none;stroke:#262626;stroke-linecap:square;stroke-linejoin:miter;stroke-width:1.25;"/>
   </g>
   <g id="text_10">
    <!-- b) -->
    <defs>
     <path d="M 14.703125 0 
L 6.546875 0 
L 6.546875 71.578125 
L 15.328125 71.578125 
L 15.328125 46.046875 
Q 20.90625 53.03125 29.546875 53.03125 
Q 34.328125 53.03125 38.59375 51.09375 
Q 42.875 49.171875 45.625 45.671875 
Q 48.390625 42.1875 49.953125 37.25 
Q 51.515625 32.328125 51.515625 26.703125 
Q 51.515625 13.375 44.921875 6.09375 
Q 38.328125 -1.171875 29.109375 -1.171875 
Q 19.921875 -1.171875 14.703125 6.5 
z
M 14.59375 26.3125 
Q 14.59375 17 17.140625 12.84375 
Q 21.296875 6.0625 28.375 6.0625 
Q 34.125 6.0625 38.328125 11.0625 
Q 42.53125 16.0625 42.53125 25.984375 
Q 42.53125 36.140625 38.5 40.96875 
Q 34.46875 45.796875 28.765625 45.796875 
Q 23 45.796875 18.796875 40.796875 
Q 14.59375 35.796875 14.59375 26.3125 
" id="ArialMT-62"/>
    </defs>
    <g style="fill:#262626;" transform="translate(11.1035 244.285476)scale(0.14 -0.14)">
     <use xlink:href="#ArialMT-62"/>
     <use x="55.615234" xlink:href="#ArialMT-29"/>
    </g>
   </g>
  </g>
  <g id="axes_3">
   <g id="patch_12">
    <path d="M 53.5115 658.366867 
L 276.7115 658.366867 
L 276.7115 469.288606 
L 53.5115 469.288606 
z
" style="fill:#ffffff;"/>
   </g>
   <g id="matplotlib.axis_5">
    <g id="xtick_3">
     <g id="line2d_11">
      <g>
       <use style="fill:#262626;stroke:#262626;stroke-width:1.6;" x="167.271764" xlink:href="#m49bbfa6718" y="658.366867"/>
      </g>
     </g>
     <g id="text_11">
      <!-- 0.34 -->
      <g style="fill:#262626;" transform="translate(151.703014 687.019367)scale(0.16 -0.16)">
       <use xlink:href="#ArialMT-30"/>
       <use x="55.615234" xlink:href="#ArialMT-2e"/>
       <use x="83.398438" xlink:href="#ArialMT-33"/>
       <use x="139.013672" xlink:href="#ArialMT-34"/>
      </g>
     </g>
    </g>
   </g>
   <g id="matplotlib.axis_6">
    <g id="ytick_5">
     <g id="line2d_12">
      <g>
       <use style="fill:#262626;stroke:#262626;stroke-width:1.6;" x="53.5115" xlink:href="#m1e53c0bb44" y="658.366867"/>
      </g>
     </g>
     <g id="text_12">
      <!-- 0 -->
      <g style="fill:#262626;" transform="translate(36.614 664.093117)scale(0.16 -0.16)">
       <use xlink:href="#ArialMT-30"/>
      </g>
     </g>
    </g>
    <g id="ytick_6">
     <g id="line2d_13">
      <g>
       <use style="fill:#262626;stroke:#262626;stroke-width:1.6;" x="53.5115" xlink:href="#m1e53c0bb44" y="469.288606"/>
      </g>
     </g>
     <g id="text_13">
      <!-- 60 -->
      <g style="fill:#262626;" transform="translate(27.7165 475.014856)scale(0.16 -0.16)">
       <use xlink:href="#ArialMT-36"/>
       <use x="55.615234" xlink:href="#ArialMT-30"/>
      </g>
     </g>
    </g>
    <g id="text_14">
     <!-- U(r) (kJ/mol) -->
     <g style="fill:#262626;" transform="translate(20.01225 612.702111)rotate(-90)scale(0.176 -0.176)">
      <use xlink:href="#ArialMT-55"/>
      <use x="72.216797" xlink:href="#ArialMT-28"/>
      <use x="105.517578" xlink:href="#ArialMT-72"/>
      <use x="138.818359" xlink:href="#ArialMT-29"/>
      <use x="172.119141" xlink:href="#ArialMT-20"/>
      <use x="199.902344" xlink:href="#ArialMT-28"/>
      <use x="233.203125" xlink:href="#ArialMT-6b"/>
      <use x="283.203125" xlink:href="#ArialMT-4a"/>
      <use x="333.203125" xlink:href="#ArialMT-2f"/>
      <use x="360.986328" xlink:href="#ArialMT-6d"/>
      <use x="444.287109" xlink:href="#ArialMT-6f"/>
      <use x="499.902344" xlink:href="#ArialMT-6c"/>
      <use x="522.119141" xlink:href="#ArialMT-29"/>
     </g>
    </g>
   </g>
   <g id="line2d_14">
    <path clip-path="url(#pa3d95e6f94)" d="M 63.656955 496.967773 
L 65.684878 495.763029 
L 67.716693 496.404634 
L 69.744617 500.133573 
L 71.77254 506.113488 
L 73.800463 512.608011 
L 75.832278 518.952532 
L 77.860202 525.431614 
L 79.888125 532.424043 
L 81.91994 539.300189 
L 83.947864 545.696077 
L 85.975787 551.335651 
L 88.007602 556.4436 
L 90.035526 561.135892 
L 92.063449 565.693309 
L 94.091372 570.302091 
L 96.123188 575.092074 
L 98.151111 579.944767 
L 100.179034 584.741683 
L 102.21085 589.353302 
L 104.238773 593.754098 
L 106.266696 597.926425 
L 108.294619 601.919758 
L 110.326435 605.804056 
L 112.354358 609.616504 
L 114.382281 613.321177 
L 116.414097 616.851898 
L 118.44202 620.17684 
L 120.469943 623.316799 
L 122.501759 626.31369 
L 124.529682 629.197984 
L 126.557605 631.979262 
L 128.585528 634.645518 
L 130.617344 637.176677 
L 132.645267 639.555597 
L 134.67319 641.778621 
L 136.705006 643.850415 
L 138.732929 645.777343 
L 140.760852 647.562242 
L 142.792668 649.207506 
L 144.820591 650.712569 
L 146.848514 652.078029 
L 148.876437 653.303981 
L 150.908253 654.393954 
L 152.936176 655.352064 
L 154.964099 656.179528 
L 156.995915 656.874387 
L 159.023838 657.431033 
L 161.051761 657.846713 
L 163.079684 658.123278 
L 165.1115 658.267788 
L 167.139423 658.285578 
L 169.167346 658.174959 
L 171.199162 657.928092 
L 173.227085 657.539388 
L 175.255008 657.009673 
L 177.286824 656.345645 
L 179.314747 655.551438 
L 181.34267 654.628538 
L 183.370594 653.572914 
L 185.402409 652.381878 
L 187.430332 651.054045 
L 189.458255 649.594266 
L 191.490071 648.010137 
L 193.517994 646.308968 
L 195.545917 644.494699 
L 197.577733 642.565281 
L 199.605656 640.51227 
L 201.633579 638.325107 
L 203.661503 635.997081 
L 205.693318 633.529988 
L 207.721241 630.926727 
L 209.749165 628.186415 
L 211.78098 625.31189 
L 213.808903 622.31626 
L 215.836827 619.230188 
L 217.868642 616.066593 
L 219.896565 612.806254 
L 221.924489 609.391185 
L 223.952412 605.783572 
L 225.984227 602.003583 
L 228.01215 598.109516 
L 230.040074 594.143284 
L 232.071889 590.072114 
L 234.099812 585.882455 
L 236.127736 581.586912 
L 238.155659 577.264898 
L 240.187474 572.89719 
L 242.215398 568.383577 
L 244.243321 563.663553 
L 246.275136 558.798255 
L 248.30306 553.938313 
L 250.330983 549.014715 
L 252.362798 543.805609 
L 254.390722 538.263095 
L 256.418645 532.565852 
L 258.446568 527.387944 
L 260.478383 522.843133 
L 262.506307 518.522379 
L 264.53423 514.235345 
L 266.566045 510.077514 
" style="fill:none;stroke:#a6cee3;stroke-linecap:round;stroke-width:2.8;"/>
   </g>
   <g id="line2d_15">
    <path clip-path="url(#pa3d95e6f94)" d="M 63.656955 482.738714 
L 65.684878 489.54614 
L 67.716693 496.231694 
L 69.744617 502.769762 
L 71.77254 509.17328 
L 73.800463 515.442247 
L 75.832278 521.58831 
L 77.860202 527.58792 
L 79.888125 533.45298 
L 81.91994 539.19436 
L 83.947864 544.790061 
L 85.975787 550.251213 
L 88.007602 555.587909 
L 90.035526 560.779703 
L 92.063449 565.836947 
L 94.091372 570.759641 
L 96.123188 575.556845 
L 98.151111 580.210181 
L 100.179034 584.728967 
L 102.21085 589.121488 
L 104.238773 593.370916 
L 106.266696 597.485794 
L 108.294619 601.466122 
L 110.326435 605.319152 
L 112.354358 609.030121 
L 114.382281 612.606541 
L 116.414097 616.054888 
L 118.44202 619.361949 
L 120.469943 622.534461 
L 122.501759 625.578125 
L 124.529682 628.481278 
L 126.557605 631.249882 
L 128.585528 633.883936 
L 130.617344 636.388108 
L 132.645267 638.752803 
L 134.67319 640.982949 
L 136.705006 643.082438 
L 138.732929 645.043225 
L 140.760852 646.869463 
L 142.792668 648.564268 
L 144.820591 650.121148 
L 146.848514 651.543477 
L 148.876437 652.831257 
L 150.908253 653.986571 
L 152.936176 655.004993 
L 154.964099 655.888864 
L 156.995915 656.639495 
L 159.023838 657.254008 
L 161.051761 657.733972 
L 163.079684 658.079386 
L 165.1115 658.290525 
L 167.139423 658.36658 
L 169.167346 658.308086 
L 171.199162 658.114542 
L 173.227085 657.786689 
L 175.255008 657.324287 
L 177.286824 656.726059 
L 179.314747 655.994299 
L 181.34267 655.127989 
L 183.370594 654.127128 
L 185.402409 652.989409 
L 187.430332 651.719191 
L 189.458255 650.314422 
L 191.490071 648.77202 
L 193.517994 647.097894 
L 195.545917 645.289217 
L 197.577733 643.342132 
L 199.605656 641.264097 
L 201.633579 639.051512 
L 203.661503 636.704378 
L 205.693318 634.217801 
L 207.721241 631.601308 
L 209.749165 628.850266 
L 211.78098 625.959006 
L 213.808903 622.938605 
L 215.836827 619.783655 
L 217.868642 616.487711 
L 219.896565 613.063402 
L 221.924489 609.504544 
L 223.952412 605.811135 
L 225.984227 601.9757 
L 228.01215 598.012934 
L 230.040074 593.915617 
L 232.071889 589.675499 
L 234.099812 585.308824 
L 236.127736 580.8076 
L 238.155659 576.171825 
L 240.187474 571.392215 
L 242.215398 566.487083 
L 244.243321 561.4474 
L 246.275136 556.263107 
L 248.30306 550.954066 
L 250.330983 545.510476 
L 252.362798 539.921499 
L 254.390722 534.208551 
L 256.418645 528.361052 
L 258.446568 522.379003 
L 260.478383 516.250535 
L 262.506307 509.999129 
L 264.53423 503.613172 
L 266.566045 497.080021 
" style="fill:none;stroke:#1f78b4;stroke-dasharray:7.84,3.36;stroke-dashoffset:0;stroke-width:2.8;"/>
   </g>
   <g id="patch_13">
    <path d="M 53.5115 658.366867 
L 53.5115 469.288606 
" style="fill:none;stroke:#262626;stroke-linecap:square;stroke-linejoin:miter;stroke-width:1.25;"/>
   </g>
   <g id="patch_14">
    <path d="M 276.7115 658.366867 
L 276.7115 469.288606 
" style="fill:none;stroke:#262626;stroke-linecap:square;stroke-linejoin:miter;stroke-width:1.25;"/>
   </g>
   <g id="patch_15">
    <path d="M 53.5115 658.366867 
L 276.7115 658.366867 
" style="fill:none;stroke:#262626;stroke-linecap:square;stroke-linejoin:miter;stroke-width:1.25;"/>
   </g>
   <g id="patch_16">
    <path d="M 53.5115 469.288606 
L 276.7115 469.288606 
" style="fill:none;stroke:#262626;stroke-linecap:square;stroke-linejoin:miter;stroke-width:1.25;"/>
   </g>
   <g id="text_15">
    <!-- c) -->
    <defs>
     <path d="M 40.4375 19 
L 49.078125 17.875 
Q 47.65625 8.9375 41.8125 3.875 
Q 35.984375 -1.171875 27.484375 -1.171875 
Q 16.84375 -1.171875 10.375 5.78125 
Q 3.90625 12.75 3.90625 25.734375 
Q 3.90625 34.125 6.6875 40.421875 
Q 9.46875 46.734375 15.15625 49.875 
Q 20.84375 53.03125 27.546875 53.03125 
Q 35.984375 53.03125 41.359375 48.75 
Q 46.734375 44.484375 48.25 36.625 
L 39.703125 35.296875 
Q 38.484375 40.53125 35.375 43.15625 
Q 32.28125 45.796875 27.875 45.796875 
Q 21.234375 45.796875 17.078125 41.03125 
Q 12.9375 36.28125 12.9375 25.984375 
Q 12.9375 15.53125 16.9375 10.796875 
Q 20.953125 6.0625 27.390625 6.0625 
Q 32.5625 6.0625 36.03125 9.234375 
Q 39.5 12.40625 40.4375 19 
" id="ArialMT-63"/>
    </defs>
    <g style="fill:#262626;" transform="translate(11.1035 471.179389)scale(0.14 -0.14)">
     <use xlink:href="#ArialMT-63"/>
     <use x="50" xlink:href="#ArialMT-29"/>
    </g>
   </g>
  </g>
  <g id="axes_4">
   <g id="patch_17">
    <path d="M 53.5115 885.26078 
L 276.7115 885.26078 
L 276.7115 696.182519 
L 53.5115 696.182519 
z
" style="fill:#ffffff;"/>
   </g>
   <g id="matplotlib.axis_7">
    <g id="xtick_4">
     <g id="line2d_16">
      <g>
       <use style="fill:#262626;stroke:#262626;stroke-width:1.6;" x="158.4155" xlink:href="#m49bbfa6718" y="885.26078"/>
      </g>
     </g>
     <g id="text_16">
      <!-- 0.26 -->
      <defs>
       <path d="M 50.34375 8.453125 
L 50.34375 0 
L 3.03125 0 
Q 2.9375 3.171875 4.046875 6.109375 
Q 5.859375 10.9375 9.828125 15.625 
Q 13.8125 20.3125 21.34375 26.46875 
Q 33.015625 36.03125 37.109375 41.625 
Q 41.21875 47.21875 41.21875 52.203125 
Q 41.21875 57.421875 37.46875 61 
Q 33.734375 64.59375 27.734375 64.59375 
Q 21.390625 64.59375 17.578125 60.78125 
Q 13.765625 56.984375 13.71875 50.25 
L 4.6875 51.171875 
Q 5.609375 61.28125 11.65625 66.578125 
Q 17.71875 71.875 27.9375 71.875 
Q 38.234375 71.875 44.234375 66.15625 
Q 50.25 60.453125 50.25 52 
Q 50.25 47.703125 48.484375 43.546875 
Q 46.734375 39.40625 42.65625 34.8125 
Q 38.578125 30.21875 29.109375 22.21875 
Q 21.1875 15.578125 18.9375 13.203125 
Q 16.703125 10.84375 15.234375 8.453125 
z
" id="ArialMT-32"/>
      </defs>
      <g style="fill:#262626;" transform="translate(142.84675 913.91328)scale(0.16 -0.16)">
       <use xlink:href="#ArialMT-30"/>
       <use x="55.615234" xlink:href="#ArialMT-2e"/>
       <use x="83.398438" xlink:href="#ArialMT-32"/>
       <use x="139.013672" xlink:href="#ArialMT-36"/>
      </g>
     </g>
    </g>
    <g id="text_17">
     <!-- r (nm) -->
     <defs>
      <path d="M 6.59375 0 
L 6.59375 51.859375 
L 14.5 51.859375 
L 14.5 44.484375 
Q 20.21875 53.03125 31 53.03125 
Q 35.6875 53.03125 39.625 51.34375 
Q 43.5625 49.65625 45.515625 46.921875 
Q 47.46875 44.1875 48.25 40.4375 
Q 48.734375 37.984375 48.734375 31.890625 
L 48.734375 0 
L 39.9375 0 
L 39.9375 31.546875 
Q 39.9375 36.921875 38.90625 39.578125 
Q 37.890625 42.234375 35.28125 43.8125 
Q 32.671875 45.40625 29.15625 45.40625 
Q 23.53125 45.40625 19.453125 41.84375 
Q 15.375 38.28125 15.375 28.328125 
L 15.375 0 
z
" id="ArialMT-6e"/>
     </defs>
     <g style="fill:#262626;" transform="translate(141.652625 933.90553)scale(0.176 -0.176)">
      <use xlink:href="#ArialMT-72"/>
      <use x="33.300781" xlink:href="#ArialMT-20"/>
      <use x="61.083984" xlink:href="#ArialMT-28"/>
      <use x="94.384766" xlink:href="#ArialMT-6e"/>
      <use x="150" xlink:href="#ArialMT-6d"/>
      <use x="233.300781" xlink:href="#ArialMT-29"/>
     </g>
    </g>
   </g>
   <g id="matplotlib.axis_8">
    <g id="ytick_7">
     <g id="line2d_17">
      <g>
       <use style="fill:#262626;stroke:#262626;stroke-width:1.6;" x="53.5115" xlink:href="#m1e53c0bb44" y="885.26078"/>
      </g>
     </g>
     <g id="text_18">
      <!-- 0 -->
      <g style="fill:#262626;" transform="translate(36.614 890.98703)scale(0.16 -0.16)">
       <use xlink:href="#ArialMT-30"/>
      </g>
     </g>
    </g>
    <g id="ytick_8">
     <g id="line2d_18">
      <g>
       <use style="fill:#262626;stroke:#262626;stroke-width:1.6;" x="53.5115" xlink:href="#m1e53c0bb44" y="696.182519"/>
      </g>
     </g>
     <g id="text_19">
      <!-- 60 -->
      <g style="fill:#262626;" transform="translate(27.7165 701.908769)scale(0.16 -0.16)">
       <use xlink:href="#ArialMT-36"/>
       <use x="55.615234" xlink:href="#ArialMT-30"/>
      </g>
     </g>
    </g>
    <g id="text_20">
     <!-- U(r) (kJ/mol) -->
     <g style="fill:#262626;" transform="translate(20.01225 839.596024)rotate(-90)scale(0.176 -0.176)">
      <use xlink:href="#ArialMT-55"/>
      <use x="72.216797" xlink:href="#ArialMT-28"/>
      <use x="105.517578" xlink:href="#ArialMT-72"/>
      <use x="138.818359" xlink:href="#ArialMT-29"/>
      <use x="172.119141" xlink:href="#ArialMT-20"/>
      <use x="199.902344" xlink:href="#ArialMT-28"/>
      <use x="233.203125" xlink:href="#ArialMT-6b"/>
      <use x="283.203125" xlink:href="#ArialMT-4a"/>
      <use x="333.203125" xlink:href="#ArialMT-2f"/>
      <use x="360.986328" xlink:href="#ArialMT-6d"/>
      <use x="444.287109" xlink:href="#ArialMT-6f"/>
      <use x="499.902344" xlink:href="#ArialMT-6c"/>
      <use x="522.119141" xlink:href="#ArialMT-29"/>
     </g>
    </g>
   </g>
   <g id="line2d_19">
    <path clip-path="url(#p40cb7bea12)" d="M 57.7616 739.116835 
L 59.96012 743.295464 
L 62.15864 750.251654 
L 64.35716 758.592211 
L 66.55754 767.486137 
L 68.75606 775.882788 
L 70.95458 784.255803 
L 73.1531 792.464951 
L 75.35162 800.703721 
L 77.55014 808.501309 
L 79.75052 815.75309 
L 81.94904 822.344989 
L 84.14756 828.4248 
L 86.34608 834.028134 
L 88.5446 839.215496 
L 90.74312 844.006109 
L 92.94164 848.449764 
L 95.14202 852.564107 
L 97.34054 856.354243 
L 99.53906 859.802211 
L 101.73758 862.898525 
L 103.9361 865.646652 
L 106.13462 868.066822 
L 108.33314 870.183616 
L 110.53352 872.020921 
L 112.73204 873.597929 
L 114.93056 874.932411 
L 117.12908 876.03792 
L 119.3276 876.92766 
L 121.52612 877.611115 
L 123.7265 878.102655 
L 125.92502 878.414918 
L 128.12354 878.566968 
L 130.32206 878.572609 
L 132.52058 878.444824 
L 134.7191 878.182919 
L 136.91762 877.789352 
L 139.118 877.272318 
L 141.31652 876.657908 
L 143.51504 875.975147 
L 145.71356 875.252206 
L 147.91208 874.515651 
L 150.1106 873.794066 
L 152.30912 873.128195 
L 154.5095 872.564238 
L 156.70802 872.173539 
L 158.90654 872.030879 
L 161.10506 872.212079 
L 163.30358 872.748621 
L 165.5021 873.633097 
L 167.70248 874.808817 
L 169.901 876.196589 
L 172.09952 877.700265 
L 174.29804 879.227513 
L 176.49656 880.695485 
L 178.69508 882.03334 
L 180.8936 883.181502 
L 183.09398 884.088684 
L 185.2925 884.717019 
L 187.49102 885.040249 
L 189.68954 885.046282 
L 191.88806 884.730822 
L 194.08658 884.093215 
L 196.2851 883.132622 
L 198.48548 881.846436 
L 200.684 880.231865 
L 202.88252 878.281555 
L 205.08104 875.989737 
L 207.27956 873.349984 
L 209.47808 870.36614 
L 211.67846 867.043436 
L 213.87698 863.39514 
L 216.0755 859.431397 
L 218.27402 855.161096 
L 220.47254 850.581621 
L 222.67106 845.681343 
L 224.86958 840.458686 
L 227.06996 834.917117 
L 229.26848 829.092877 
L 231.467 823.019368 
L 233.66552 816.811613 
L 235.86404 810.595981 
L 238.06256 804.514909 
L 240.26108 798.579427 
L 242.46146 792.69216 
L 244.65998 786.861617 
L 246.8585 781.194941 
L 249.05702 775.990877 
L 251.25554 771.196168 
L 253.45406 766.693269 
L 255.65444 762.037847 
L 257.85296 757.071707 
L 260.05148 751.233285 
L 262.25 744.43151 
L 264.44852 736.927309 
L 266.64704 730.313666 
L 268.84556 725.434187 
L 271.04594 722.481099 
L 273.24446 720.72015 
L 275.44298 719.948081 
L 277.6415 720.483172 
" style="fill:none;stroke:#a6cee3;stroke-linecap:round;stroke-width:2.8;"/>
   </g>
   <g id="line2d_20">
    <path clip-path="url(#p40cb7bea12)" d="M 57.7616 759.551728 
L 59.96012 764.983322 
L 62.15864 770.294966 
L 64.35716 775.486662 
L 66.55754 780.562649 
L 68.75606 785.514345 
L 70.95458 790.346093 
L 73.1531 795.057892 
L 75.35162 799.649742 
L 77.55014 804.121643 
L 79.75052 808.477226 
L 81.94904 812.709128 
L 84.14756 816.821081 
L 86.34608 820.813085 
L 88.5446 824.68514 
L 90.74312 828.437246 
L 92.94164 832.069404 
L 95.14202 835.584533 
L 97.34054 838.976691 
L 99.53906 842.2489 
L 101.73758 845.401161 
L 103.9361 848.433472 
L 106.13462 851.345835 
L 108.33314 854.138249 
L 110.53352 856.812924 
L 112.73204 859.365339 
L 114.93056 861.797804 
L 117.12908 864.110321 
L 119.3276 866.302889 
L 121.52612 868.375508 
L 123.7265 870.32978 
L 125.92502 872.1624 
L 128.12354 873.875071 
L 130.32206 875.467793 
L 132.52058 876.940566 
L 134.7191 878.293391 
L 136.91762 879.526266 
L 139.118 880.640083 
L 141.31652 881.63296 
L 143.51504 882.505887 
L 145.71356 883.258866 
L 147.91208 883.891895 
L 150.1106 884.404976 
L 152.30912 884.798108 
L 154.5095 885.071472 
L 156.70802 885.224604 
L 158.90654 885.257788 
L 161.10506 885.171023 
L 163.30358 884.964309 
L 165.5021 884.637646 
L 167.70248 884.190606 
L 169.901 883.623944 
L 172.09952 882.937333 
L 174.29804 882.130773 
L 176.49656 881.204265 
L 178.69508 880.157807 
L 180.8936 878.991401 
L 183.09398 877.703906 
L 185.2925 876.297501 
L 187.49102 874.771146 
L 189.68954 873.124843 
L 191.88806 871.358591 
L 194.08658 869.47239 
L 196.2851 867.46624 
L 198.48548 865.338291 
L 200.684 863.092142 
L 202.88252 860.726044 
L 205.08104 858.239997 
L 207.27956 855.634001 
L 209.47808 852.908056 
L 211.67846 850.059704 
L 213.87698 847.093761 
L 216.0755 844.007868 
L 218.27402 840.802026 
L 220.47254 837.476235 
L 222.67106 834.030496 
L 224.86958 830.464808 
L 227.06996 826.776002 
L 229.26848 822.970314 
L 231.467 819.044678 
L 233.66552 814.999092 
L 235.86404 810.833558 
L 238.06256 806.548075 
L 240.26108 802.142643 
L 242.46146 797.613383 
L 244.65998 792.967952 
L 246.8585 788.202572 
L 249.05702 783.317243 
L 251.25554 778.311966 
L 253.45406 773.186739 
L 255.65444 767.937075 
L 257.85296 762.571849 
L 260.05148 757.086675 
L 262.25 751.481551 
L 264.44852 745.756479 
L 266.64704 739.911457 
L 268.84556 733.946487 
L 271.04594 727.856369 
L 273.24446 721.6514 
L 275.44298 715.326482 
L 277.6415 708.881614 
" style="fill:none;stroke:#1f78b4;stroke-dasharray:7.84,3.36;stroke-dashoffset:0;stroke-width:2.8;"/>
   </g>
   <g id="patch_18">
    <path d="M 53.5115 885.26078 
L 53.5115 696.182519 
" style="fill:none;stroke:#262626;stroke-linecap:square;stroke-linejoin:miter;stroke-width:1.25;"/>
   </g>
   <g id="patch_19">
    <path d="M 276.7115 885.26078 
L 276.7115 696.182519 
" style="fill:none;stroke:#262626;stroke-linecap:square;stroke-linejoin:miter;stroke-width:1.25;"/>
   </g>
   <g id="patch_20">
    <path d="M 53.5115 885.26078 
L 276.7115 885.26078 
" style="fill:none;stroke:#262626;stroke-linecap:square;stroke-linejoin:miter;stroke-width:1.25;"/>
   </g>
   <g id="patch_21">
    <path d="M 53.5115 696.182519 
L 276.7115 696.182519 
" style="fill:none;stroke:#262626;stroke-linecap:square;stroke-linejoin:miter;stroke-width:1.25;"/>
   </g>
   <g id="text_21">
    <!-- d) -->
    <defs>
     <path d="M 40.234375 0 
L 40.234375 6.546875 
Q 35.296875 -1.171875 25.734375 -1.171875 
Q 19.53125 -1.171875 14.328125 2.25 
Q 9.125 5.671875 6.265625 11.796875 
Q 3.421875 17.921875 3.421875 25.875 
Q 3.421875 33.640625 6 39.96875 
Q 8.59375 46.296875 13.765625 49.65625 
Q 18.953125 53.03125 25.34375 53.03125 
Q 30.03125 53.03125 33.6875 51.046875 
Q 37.359375 49.078125 39.65625 45.90625 
L 39.65625 71.578125 
L 48.390625 71.578125 
L 48.390625 0 
z
M 12.453125 25.875 
Q 12.453125 15.921875 16.640625 10.984375 
Q 20.84375 6.0625 26.5625 6.0625 
Q 32.328125 6.0625 36.34375 10.765625 
Q 40.375 15.484375 40.375 25.140625 
Q 40.375 35.796875 36.265625 40.765625 
Q 32.171875 45.75 26.171875 45.75 
Q 20.3125 45.75 16.375 40.96875 
Q 12.453125 36.1875 12.453125 25.875 
" id="ArialMT-64"/>
    </defs>
    <g style="fill:#262626;" transform="translate(11.1035 698.073302)scale(0.14 -0.14)">
     <use xlink:href="#ArialMT-64"/>
     <use x="55.615234" xlink:href="#ArialMT-29"/>
    </g>
   </g>
   <g id="legend_1">
    <g id="line2d_21">
     <path d="M 25.4465 943.523932 
L 57.4465 943.523932 
" style="fill:none;stroke:#a6cee3;stroke-linecap:round;stroke-width:2.8;"/>
    </g>
    <g id="line2d_22"/>
    <g id="text_22">
     <!-- IB U(r) -->
     <defs>
      <path d="M 9.328125 0 
L 9.328125 71.578125 
L 18.796875 71.578125 
L 18.796875 0 
z
" id="ArialMT-49"/>
      <path d="M 7.328125 0 
L 7.328125 71.578125 
L 34.1875 71.578125 
Q 42.390625 71.578125 47.34375 69.40625 
Q 52.296875 67.234375 55.09375 62.71875 
Q 57.90625 58.203125 57.90625 53.265625 
Q 57.90625 48.6875 55.421875 44.625 
Q 52.9375 40.578125 47.90625 38.09375 
Q 54.390625 36.1875 57.875 31.59375 
Q 61.375 27 61.375 20.75 
Q 61.375 15.71875 59.25 11.390625 
Q 57.125 7.078125 54 4.734375 
Q 50.875 2.390625 46.15625 1.1875 
Q 41.453125 0 34.625 0 
z
M 16.796875 41.5 
L 32.28125 41.5 
Q 38.578125 41.5 41.3125 42.328125 
Q 44.921875 43.40625 46.75 45.890625 
Q 48.578125 48.390625 48.578125 52.15625 
Q 48.578125 55.71875 46.875 58.421875 
Q 45.171875 61.140625 41.984375 62.140625 
Q 38.8125 63.140625 31.109375 63.140625 
L 16.796875 63.140625 
z
M 16.796875 8.453125 
L 34.625 8.453125 
Q 39.203125 8.453125 41.0625 8.796875 
Q 44.34375 9.375 46.53125 10.734375 
Q 48.734375 12.109375 50.140625 14.71875 
Q 51.5625 17.328125 51.5625 20.75 
Q 51.5625 24.75 49.515625 27.703125 
Q 47.46875 30.671875 43.828125 31.859375 
Q 40.1875 33.0625 33.34375 33.0625 
L 16.796875 33.0625 
z
" id="ArialMT-42"/>
     </defs>
     <g style="fill:#262626;" transform="translate(70.2465 949.123932)scale(0.16 -0.16)">
      <use xlink:href="#ArialMT-49"/>
      <use x="27.783203" xlink:href="#ArialMT-42"/>
      <use x="94.482422" xlink:href="#ArialMT-20"/>
      <use x="122.265625" xlink:href="#ArialMT-55"/>
      <use x="194.482422" xlink:href="#ArialMT-28"/>
      <use x="227.783203" xlink:href="#ArialMT-72"/>
      <use x="261.083984" xlink:href="#ArialMT-29"/>
     </g>
    </g>
    <g id="line2d_23">
     <path d="M 149.3465 943.523932 
L 181.3465 943.523932 
" style="fill:none;stroke:#1f78b4;stroke-dasharray:7.84,3.36;stroke-dashoffset:0;stroke-width:2.8;"/>
    </g>
    <g id="line2d_24"/>
    <g id="text_23">
     <!-- fitted -->
     <defs>
      <path d="M 8.6875 0 
L 8.6875 45.015625 
L 0.921875 45.015625 
L 0.921875 51.859375 
L 8.6875 51.859375 
L 8.6875 57.375 
Q 8.6875 62.59375 9.625 65.140625 
Q 10.890625 68.5625 14.078125 70.671875 
Q 17.28125 72.796875 23.046875 72.796875 
Q 26.765625 72.796875 31.25 71.921875 
L 29.9375 64.265625 
Q 27.203125 64.75 24.75 64.75 
Q 20.75 64.75 19.09375 63.03125 
Q 17.4375 61.328125 17.4375 56.640625 
L 17.4375 51.859375 
L 27.546875 51.859375 
L 27.546875 45.015625 
L 17.4375 45.015625 
L 17.4375 0 
z
" id="ArialMT-66"/>
      <path d="M 6.640625 61.46875 
L 6.640625 71.578125 
L 15.4375 71.578125 
L 15.4375 61.46875 
z
M 6.640625 0 
L 6.640625 51.859375 
L 15.4375 51.859375 
L 15.4375 0 
z
" id="ArialMT-69"/>
      <path d="M 25.78125 7.859375 
L 27.046875 0.09375 
Q 23.34375 -0.6875 20.40625 -0.6875 
Q 15.625 -0.6875 12.984375 0.828125 
Q 10.359375 2.34375 9.28125 4.8125 
Q 8.203125 7.28125 8.203125 15.1875 
L 8.203125 45.015625 
L 1.765625 45.015625 
L 1.765625 51.859375 
L 8.203125 51.859375 
L 8.203125 64.703125 
L 16.9375 69.96875 
L 16.9375 51.859375 
L 25.78125 51.859375 
L 25.78125 45.015625 
L 16.9375 45.015625 
L 16.9375 14.703125 
Q 16.9375 10.9375 17.40625 9.859375 
Q 17.875 8.796875 18.921875 8.15625 
Q 19.96875 7.515625 21.921875 7.515625 
Q 23.390625 7.515625 25.78125 7.859375 
" id="ArialMT-74"/>
      <path d="M 42.09375 16.703125 
L 51.171875 15.578125 
Q 49.03125 7.625 43.21875 3.21875 
Q 37.40625 -1.171875 28.375 -1.171875 
Q 17 -1.171875 10.328125 5.828125 
Q 3.65625 12.84375 3.65625 25.484375 
Q 3.65625 38.578125 10.390625 45.796875 
Q 17.140625 53.03125 27.875 53.03125 
Q 38.28125 53.03125 44.875 45.953125 
Q 51.46875 38.875 51.46875 26.03125 
Q 51.46875 25.25 51.421875 23.6875 
L 12.75 23.6875 
Q 13.234375 15.140625 17.578125 10.59375 
Q 21.921875 6.0625 28.421875 6.0625 
Q 33.25 6.0625 36.671875 8.59375 
Q 40.09375 11.140625 42.09375 16.703125 
M 13.234375 30.90625 
L 42.1875 30.90625 
Q 41.609375 37.453125 38.875 40.71875 
Q 34.671875 45.796875 27.984375 45.796875 
Q 21.921875 45.796875 17.796875 41.75 
Q 13.671875 37.703125 13.234375 30.90625 
" id="ArialMT-65"/>
     </defs>
     <g style="fill:#262626;" transform="translate(194.1465 949.123932)scale(0.16 -0.16)">
      <use xlink:href="#ArialMT-66"/>
      <use x="27.783203" xlink:href="#ArialMT-69"/>
      <use x="50" xlink:href="#ArialMT-74"/>
      <use x="77.783203" xlink:href="#ArialMT-74"/>
      <use x="105.566406" xlink:href="#ArialMT-65"/>
      <use x="161.181641" xlink:href="#ArialMT-64"/>
     </g>
    </g>
   </g>
  </g>
 </g>
 <defs>
  <clipPath id="pbf2d922750">
   <rect height="189.078261" width="223.2" x="53.5115" y="15.50078"/>
  </clipPath>
  <clipPath id="p0edd046079">
   <rect height="189.078261" width="223.2" x="53.5115" y="242.394693"/>
  </clipPath>
  <clipPath id="pa3d95e6f94">
   <rect height="189.078261" width="223.2" x="53.5115" y="469.288606"/>
  </clipPath>
  <clipPath id="p40cb7bea12">
   <rect height="189.078261" width="223.2" x="53.5115" y="696.182519"/>
  </clipPath>
 </defs>
</svg>
