<?xml version="1.0" encoding="utf-8" standalone="no"?>
<!DOCTYPE svg PUBLIC "-//W3C//DTD SVG 1.1//EN"
  "http://www.w3.org/Graphics/SVG/1.1/DTD/svg11.dtd">
<!-- Created with matplotlib (http://matplotlib.org/) -->
<svg height="600pt" version="1.1" viewBox="0 0 568 600" width="568pt" xmlns="http://www.w3.org/2000/svg" xmlns:xlink="http://www.w3.org/1999/xlink">
 <defs>
  <style type="text/css">
*{stroke-linecap:butt;stroke-linejoin:round;}
  </style>
 </defs>
 <g id="figure_1">
  <g id="patch_1">
   <path d="M 0 600.716563 
L 568.614 600.716563 
L 568.614 0 
L 0 0 
z
" style="fill:#ffffff;"/>
  </g>
  <g id="axes_1">
   <g id="patch_2">
    <path d="M 53.814 240.644063 
L 277.974 240.644063 
L 277.974 15.044063 
L 53.814 15.044063 
z
" style="fill:#ffffff;"/>
   </g>
   <g id="matplotlib.axis_1">
    <g id="xtick_1">
     <g id="line2d_1">
      <defs>
       <path d="M 0 0 
L 0 6 
" id="m64a32331ef" style="stroke:#262626;stroke-width:1.6;"/>
      </defs>
      <g>
       <use style="fill:#262626;stroke:#262626;stroke-width:1.6;" x="53.814" xlink:href="#m64a32331ef" y="240.644063"/>
      </g>
     </g>
     <g id="text_1">
      <!-- 0.2 -->
      <defs>
       <path d="M 4.15625 35.296875 
Q 4.15625 48 6.765625 55.734375 
Q 9.375 63.484375 14.515625 67.671875 
Q 19.671875 71.875 27.484375 71.875 
Q 33.25 71.875 37.59375 69.546875 
Q 41.9375 67.234375 44.765625 62.859375 
Q 47.609375 58.5 49.21875 52.21875 
Q 50.828125 45.953125 50.828125 35.296875 
Q 50.828125 22.703125 48.234375 14.96875 
Q 45.65625 7.234375 40.5 3 
Q 35.359375 -1.21875 27.484375 -1.21875 
Q 17.140625 -1.21875 11.234375 6.203125 
Q 4.15625 15.140625 4.15625 35.296875 
M 13.1875 35.296875 
Q 13.1875 17.671875 17.3125 11.828125 
Q 21.4375 6 27.484375 6 
Q 33.546875 6 37.671875 11.859375 
Q 41.796875 17.71875 41.796875 35.296875 
Q 41.796875 52.984375 37.671875 58.78125 
Q 33.546875 64.59375 27.390625 64.59375 
Q 21.34375 64.59375 17.71875 59.46875 
Q 13.1875 52.9375 13.1875 35.296875 
" id="ArialMT-30"/>
       <path d="M 9.078125 0 
L 9.078125 10.015625 
L 19.09375 10.015625 
L 19.09375 0 
z
" id="ArialMT-2e"/>
       <path d="M 50.34375 8.453125 
L 50.34375 0 
L 3.03125 0 
Q 2.9375 3.171875 4.046875 6.109375 
Q 5.859375 10.9375 9.828125 15.625 
Q 13.8125 20.3125 21.34375 26.46875 
Q 33.015625 36.03125 37.109375 41.625 
Q 41.21875 47.21875 41.21875 52.203125 
Q 41.21875 57.421875 37.46875 61 
Q 33.734375 64.59375 27.734375 64.59375 
Q 21.390625 64.59375 17.578125 60.78125 
Q 13.765625 56.984375 13.71875 50.25 
L 4.6875 51.171875 
Q 5.609375 61.28125 11.65625 66.578125 
Q 17.71875 71.875 27.9375 71.875 
Q 38.234375 71.875 44.234375 66.15625 
Q 50.25 60.453125 50.25 52 
Q 50.25 47.703125 48.484375 43.546875 
Q 46.734375 39.40625 42.65625 34.8125 
Q 38.578125 30.21875 29.109375 22.21875 
Q 21.1875 15.578125 18.9375 13.203125 
Q 16.703125 10.84375 15.234375 8.453125 
z
" id="ArialMT-32"/>
      </defs>
      <g style="fill:#262626;" transform="translate(42.694 269.296562)scale(0.16 -0.16)">
       <use xlink:href="#ArialMT-30"/>
       <use x="55.615234" xlink:href="#ArialMT-2e"/>
       <use x="83.398438" xlink:href="#ArialMT-32"/>
      </g>
     </g>
    </g>
    <g id="xtick_2">
     <g id="line2d_2">
      <g>
       <use style="fill:#262626;stroke:#262626;stroke-width:1.6;" x="277.974" xlink:href="#m64a32331ef" y="240.644063"/>
      </g>
     </g>
     <g id="text_2">
      <!-- 1.4 -->
      <defs>
       <path d="M 37.25 0 
L 28.46875 0 
L 28.46875 56 
Q 25.296875 52.984375 20.140625 49.953125 
Q 14.984375 46.921875 10.890625 45.40625 
L 10.890625 53.90625 
Q 18.265625 57.375 23.78125 62.296875 
Q 29.296875 67.234375 31.59375 71.875 
L 37.25 71.875 
z
" id="ArialMT-31"/>
       <path d="M 32.328125 0 
L 32.328125 17.140625 
L 1.265625 17.140625 
L 1.265625 25.203125 
L 33.9375 71.578125 
L 41.109375 71.578125 
L 41.109375 25.203125 
L 50.78125 25.203125 
L 50.78125 17.140625 
L 41.109375 17.140625 
L 41.109375 0 
z
M 32.328125 25.203125 
L 32.328125 57.46875 
L 9.90625 25.203125 
z
" id="ArialMT-34"/>
      </defs>
      <g style="fill:#262626;" transform="translate(266.854 269.296562)scale(0.16 -0.16)">
       <use xlink:href="#ArialMT-31"/>
       <use x="55.615234" xlink:href="#ArialMT-2e"/>
       <use x="83.398438" xlink:href="#ArialMT-34"/>
      </g>
     </g>
    </g>
   </g>
   <g id="matplotlib.axis_2">
    <g id="ytick_1">
     <g id="line2d_3">
      <defs>
       <path d="M 0 0 
L -6 0 
" id="m7a854c4d42" style="stroke:#262626;stroke-width:1.6;"/>
      </defs>
      <g>
       <use style="fill:#262626;stroke:#262626;stroke-width:1.6;" x="53.814" xlink:href="#m7a854c4d42" y="85.018836"/>
      </g>
     </g>
     <g id="text_3">
      <!-- 1 -->
      <g style="fill:#262626;" transform="translate(27.7165 90.745086)scale(0.16 -0.16)">
       <use xlink:href="#ArialMT-31"/>
      </g>
     </g>
    </g>
    <g id="text_4">
     <!-- g(r) -->
     <defs>
      <path d="M 4.984375 -4.296875 
L 13.53125 -5.5625 
Q 14.0625 -9.515625 16.5 -11.328125 
Q 19.78125 -13.765625 25.4375 -13.765625 
Q 31.546875 -13.765625 34.859375 -11.328125 
Q 38.1875 -8.890625 39.359375 -4.5 
Q 40.046875 -1.8125 39.984375 6.78125 
Q 34.234375 0 25.640625 0 
Q 14.9375 0 9.078125 7.71875 
Q 3.21875 15.4375 3.21875 26.21875 
Q 3.21875 33.640625 5.90625 39.90625 
Q 8.59375 46.1875 13.6875 49.609375 
Q 18.796875 53.03125 25.6875 53.03125 
Q 34.859375 53.03125 40.828125 45.609375 
L 40.828125 51.859375 
L 48.921875 51.859375 
L 48.921875 7.03125 
Q 48.921875 -5.078125 46.453125 -10.125 
Q 44 -15.1875 38.640625 -18.109375 
Q 33.296875 -21.046875 25.484375 -21.046875 
Q 16.21875 -21.046875 10.5 -16.875 
Q 4.78125 -12.703125 4.984375 -4.296875 
M 12.25 26.859375 
Q 12.25 16.65625 16.296875 11.96875 
Q 20.359375 7.28125 26.46875 7.28125 
Q 32.515625 7.28125 36.609375 11.9375 
Q 40.71875 16.609375 40.71875 26.5625 
Q 40.71875 36.078125 36.5 40.90625 
Q 32.28125 45.75 26.3125 45.75 
Q 20.453125 45.75 16.34375 40.984375 
Q 12.25 36.234375 12.25 26.859375 
" id="ArialMT-67"/>
      <path d="M 23.390625 -21.046875 
Q 16.109375 -11.859375 11.078125 0.4375 
Q 6.0625 12.75 6.0625 25.921875 
Q 6.0625 37.546875 9.8125 48.1875 
Q 14.203125 60.546875 23.390625 72.796875 
L 29.6875 72.796875 
Q 23.78125 62.640625 21.875 58.296875 
Q 18.890625 51.5625 17.1875 44.234375 
Q 15.09375 35.109375 15.09375 25.875 
Q 15.09375 2.390625 29.6875 -21.046875 
z
" id="ArialMT-28"/>
      <path d="M 6.5 0 
L 6.5 51.859375 
L 14.40625 51.859375 
L 14.40625 44 
Q 17.4375 49.515625 20 51.265625 
Q 22.5625 53.03125 25.640625 53.03125 
Q 30.078125 53.03125 34.671875 50.203125 
L 31.640625 42.046875 
Q 28.421875 43.953125 25.203125 43.953125 
Q 22.3125 43.953125 20.015625 42.21875 
Q 17.71875 40.484375 16.75 37.40625 
Q 15.28125 32.71875 15.28125 27.15625 
L 15.28125 0 
z
" id="ArialMT-72"/>
      <path d="M 12.359375 -21.046875 
L 6.0625 -21.046875 
Q 20.65625 2.390625 20.65625 25.875 
Q 20.65625 35.0625 18.5625 44.09375 
Q 16.890625 51.421875 13.921875 58.15625 
Q 12.015625 62.546875 6.0625 72.796875 
L 12.359375 72.796875 
Q 21.53125 60.546875 25.921875 48.1875 
Q 29.6875 37.546875 29.6875 25.921875 
Q 29.6875 12.75 24.625 0.4375 
Q 19.578125 -11.859375 12.359375 -21.046875 
" id="ArialMT-29"/>
     </defs>
     <g style="fill:#262626;" transform="translate(20.01225 141.528063)rotate(-90)scale(0.176 -0.176)">
      <use xlink:href="#ArialMT-67"/>
      <use x="55.615234" xlink:href="#ArialMT-28"/>
      <use x="88.916016" xlink:href="#ArialMT-72"/>
      <use x="122.216797" xlink:href="#ArialMT-29"/>
     </g>
    </g>
   </g>
   <g id="line2d_4">
    <path clip-path="url(#pecc895fb8c)" d="M 65.022 248.824368 
L 66.5164 248.62083 
L 67.2636 248.294623 
L 67.6372 248.009512 
L 68.0108 247.555724 
L 68.758 246.065592 
L 69.5052 243.914533 
L 71.3732 232.978706 
L 71.7468 230.776355 
L 72.1204 227.648966 
L 72.494 225.686338 
L 73.6148 217.671724 
L 75.8564 203.638377 
L 76.23 201.591701 
L 78.8452 181.826364 
L 79.5924 173.940224 
L 79.966 171.211844 
L 82.2076 144.739912 
L 84.4492 112.612975 
L 87.438 65.247242 
L 89.306 42.506613 
L 89.6796 40.729627 
L 90.0532 36.870909 
L 91.5476 28.447412 
L 91.9212 28.251999 
L 92.2948 27.804253 
L 92.6684 28.279466 
L 93.042 27.454539 
L 93.7892 28.336574 
L 94.1628 28.860883 
L 94.91 30.84015 
L 95.2836 33.149896 
L 95.6572 34.098473 
L 96.0308 36.469731 
L 97.5252 42.387196 
L 98.646 48.611985 
L 99.7668 53.143703 
L 100.1404 55.347788 
L 100.514 56.839606 
L 101.2612 60.698976 
L 102.0084 64.204225 
L 102.382 65.514497 
L 102.7556 67.71986 
L 103.8764 72.363213 
L 104.25 74.039629 
L 104.9972 75.568863 
L 105.3708 76.431016 
L 105.7444 78.823002 
L 106.118 79.308861 
L 107.2388 83.867364 
L 107.6124 83.943607 
L 107.986 85.101725 
L 108.3596 86.897203 
L 108.7332 87.278317 
L 109.1068 89.117875 
L 109.4804 89.897507 
L 109.854 89.816491 
L 110.6012 92.262605 
L 110.9748 92.748748 
L 111.722 94.602882 
L 112.0956 94.933042 
L 112.8428 96.203092 
L 113.59 97.611612 
L 114.3372 98.565265 
L 114.7108 98.523626 
L 115.458 100.364617 
L 115.8316 100.157695 
L 116.5788 101.188814 
L 117.326 101.40205 
L 117.6996 102.003446 
L 118.0732 102.868522 
L 118.4468 102.728461 
L 118.8204 102.832958 
L 119.194 103.530087 
L 119.5676 103.336119 
L 119.9412 103.47084 
L 120.3148 103.970025 
L 120.6884 103.739646 
L 121.062 104.375991 
L 122.1828 103.597577 
L 122.5564 104.39792 
L 122.93 104.352049 
L 123.3036 104.491785 
L 123.6772 104.334471 
L 124.0508 104.669692 
L 124.4244 104.452271 
L 124.798 103.976224 
L 125.1716 104.366141 
L 125.5452 103.959431 
L 125.9188 104.468679 
L 126.2924 104.021485 
L 127.4132 104.277852 
L 127.7868 104.544645 
L 128.534 103.951861 
L 128.9076 104.052811 
L 129.2812 103.487869 
L 129.6548 103.315427 
L 130.0284 103.574491 
L 130.402 104.240074 
L 130.7756 104.110131 
L 131.1492 103.790471 
L 131.5228 104.672824 
L 131.8964 104.15041 
L 132.27 104.143468 
L 133.0172 104.404201 
L 133.3908 103.776973 
L 133.7644 104.382204 
L 134.5116 104.62043 
L 134.8852 103.667213 
L 135.2588 104.849493 
L 135.6324 104.560274 
L 136.006 105.113561 
L 136.3796 105.026404 
L 136.7532 104.385963 
L 137.1268 104.963897 
L 137.5004 104.7754 
L 137.874 104.77667 
L 138.2476 105.419321 
L 138.6212 104.647351 
L 138.9948 105.859348 
L 139.3684 105.002678 
L 139.742 105.348043 
L 140.1156 105.418796 
L 140.4892 105.028371 
L 140.8628 105.178951 
L 141.2364 105.186674 
L 142.3572 104.451356 
L 142.7308 104.751695 
L 143.1044 104.500499 
L 143.8516 104.468425 
L 144.2252 104.126526 
L 144.5988 104.046367 
L 144.9724 104.21491 
L 145.346 103.740141 
L 145.7196 103.683689 
L 146.0932 103.79578 
L 147.214 102.366758 
L 147.5876 102.463952 
L 147.9612 102.319515 
L 148.3348 102.020581 
L 148.7084 102.217104 
L 149.082 101.528436 
L 149.4556 101.758144 
L 149.8292 100.362942 
L 150.2028 100.633022 
L 151.3236 99.256769 
L 151.6972 99.536531 
L 152.0708 98.470697 
L 152.4444 98.809326 
L 152.818 98.482127 
L 153.1916 97.604151 
L 153.5652 97.347712 
L 153.9388 96.368039 
L 154.3124 96.174575 
L 154.686 96.16164 
L 155.4332 95.388686 
L 155.8068 94.769686 
L 156.1804 94.822294 
L 157.3012 93.138153 
L 157.6748 92.918891 
L 158.0484 92.33735 
L 158.422 92.226363 
L 158.7956 91.855164 
L 159.1692 91.135051 
L 159.5428 90.780502 
L 159.9164 90.204026 
L 160.29 89.970736 
L 160.6636 89.58167 
L 161.0372 89.876979 
L 161.7844 88.816319 
L 162.5316 88.317786 
L 162.9052 87.667014 
L 163.6524 87.170724 
L 164.026 87.23488 
L 164.7732 85.945235 
L 165.1468 85.740381 
L 165.5204 85.675183 
L 165.894 85.756795 
L 166.2676 85.481118 
L 166.6412 85.725711 
L 167.0148 85.166051 
L 167.3884 85.243528 
L 167.762 84.530642 
L 168.1356 84.438336 
L 168.5092 84.588424 
L 168.8828 84.208364 
L 169.2564 84.530993 
L 169.63 84.577734 
L 170.0036 84.393551 
L 170.3772 83.984238 
L 170.7508 84.310494 
L 171.1244 84.044248 
L 171.498 84.031374 
L 171.8716 83.370691 
L 172.2452 83.661798 
L 172.6188 83.6725 
L 172.9924 83.350217 
L 173.366 84.120542 
L 173.7396 83.728857 
L 174.1132 84.312211 
L 174.4868 84.089248 
L 174.8604 83.626838 
L 175.234 84.199438 
L 175.9812 84.133847 
L 176.3548 83.755131 
L 176.7284 83.960013 
L 177.102 84.800808 
L 177.4756 84.150432 
L 177.8492 84.140836 
L 178.2228 84.380327 
L 179.3436 84.474923 
L 180.0908 84.455232 
L 180.4644 84.97347 
L 181.2116 84.733787 
L 181.5852 84.345705 
L 181.9588 84.678039 
L 182.3324 84.439491 
L 183.0796 85.061063 
L 183.8268 84.723922 
L 184.2004 85.246469 
L 184.9476 84.646828 
L 185.3212 85.108295 
L 185.6948 84.524559 
L 186.442 84.887731 
L 186.8156 84.723959 
L 187.1892 85.134779 
L 187.5628 84.46768 
L 187.9364 84.632754 
L 188.6836 84.396812 
L 189.0572 84.556089 
L 189.8044 84.36211 
L 190.178 84.518855 
L 190.5516 84.512949 
L 190.9252 83.998913 
L 191.2988 84.360826 
L 191.6724 84.096993 
L 192.4196 83.950953 
L 193.1668 83.374569 
L 193.5404 83.851184 
L 193.914 83.420902 
L 195.0348 82.814444 
L 195.4084 83.061616 
L 195.782 82.300919 
L 196.1556 82.186616 
L 196.5292 82.599981 
L 198.0236 81.296078 
L 198.3972 81.329002 
L 198.7708 80.784076 
L 199.1444 81.029576 
L 199.8916 80.407276 
L 200.2652 80.661105 
L 200.6388 80.121205 
L 201.0124 80.469212 
L 201.7596 79.853513 
L 202.1332 80.072048 
L 202.5068 80.119493 
L 202.8804 79.835239 
L 203.254 79.831555 
L 203.6276 79.576489 
L 204.0012 79.709109 
L 204.7484 79.521536 
L 205.4956 79.683058 
L 205.8692 78.961037 
L 206.6164 78.897609 
L 206.99 79.096685 
L 208.4844 78.444917 
L 208.858 77.968154 
L 209.2316 78.008002 
L 210.726 77.587029 
L 211.0996 77.279256 
L 211.4732 77.521476 
L 211.8468 77.150933 
L 212.2204 77.4477 
L 212.594 77.338231 
L 212.9676 77.077394 
L 213.3412 77.188073 
L 213.7148 77.459697 
L 214.462 77.368163 
L 215.9564 78.572316 
L 216.7036 79.294567 
L 217.0772 79.803827 
L 217.8244 81.363827 
L 218.198 81.487349 
L 218.5716 82.478359 
L 218.9452 82.940097 
L 219.3188 83.7904 
L 219.6924 84.149278 
L 220.4396 85.300005 
L 220.8132 85.667376 
L 221.1868 86.697851 
L 221.5604 86.822657 
L 221.934 87.644439 
L 222.3076 87.708619 
L 224.1756 90.019752 
L 224.5492 89.917137 
L 224.9228 90.36735 
L 225.2964 90.193977 
L 225.67 90.748356 
L 226.0436 90.905081 
L 226.4172 90.918297 
L 226.7908 90.661751 
L 227.1644 90.970662 
L 227.538 90.753099 
L 227.9116 91.161701 
L 228.2852 91.017584 
L 228.6588 90.370925 
L 229.0324 90.595417 
L 229.406 90.61367 
L 229.7796 90.1551 
L 230.1532 89.460714 
L 230.5268 89.666788 
L 230.9004 89.292574 
L 231.274 89.187489 
L 231.6476 88.72482 
L 232.0212 88.778675 
L 232.3948 88.391904 
L 232.7684 87.648434 
L 233.142 87.170817 
L 233.5156 87.14199 
L 233.8892 86.381006 
L 234.2628 86.363423 
L 234.6364 85.867912 
L 235.01 85.647121 
L 235.3836 84.881938 
L 235.7572 84.821819 
L 236.5044 84.180027 
L 236.878 83.560785 
L 237.2516 83.500727 
L 237.6252 83.23923 
L 237.9988 82.718473 
L 238.3724 83.238272 
L 238.746 82.685807 
L 239.1196 82.493022 
L 239.4932 82.165264 
L 240.2404 82.262777 
L 240.9876 81.919567 
L 241.3612 81.982723 
L 241.7348 82.314359 
L 242.1084 82.448771 
L 242.482 82.749587 
L 242.8556 82.70188 
L 243.6028 83.196303 
L 243.9764 83.274953 
L 244.35 83.562771 
L 244.7236 84.162709 
L 245.4708 84.616327 
L 245.8444 84.667438 
L 246.218 85.026578 
L 246.9652 85.446153 
L 247.3388 85.699236 
L 247.7124 86.200289 
L 248.086 86.414403 
L 248.4596 86.435567 
L 248.8332 86.709293 
L 249.2068 87.246556 
L 249.5804 87.264318 
L 249.954 87.592937 
L 250.3276 87.425999 
L 251.0748 88.085587 
L 251.4484 88.377222 
L 251.822 87.924157 
L 252.1956 88.20731 
L 252.9428 88.471265 
L 253.3164 88.391007 
L 254.4372 88.475503 
L 255.1844 88.449062 
L 255.558 88.713573 
L 255.9316 88.429383 
L 256.3052 88.426182 
L 256.6788 88.225282 
L 257.0524 88.47719 
L 257.426 88.56032 
L 258.1732 88.04993 
L 258.5468 88.322333 
L 258.9204 88.220563 
L 259.294 88.34073 
L 259.6676 88.197654 
L 260.4148 87.612441 
L 260.7884 87.980685 
L 261.162 87.488568 
L 261.5356 87.425436 
L 261.9092 87.501372 
L 262.2828 87.026976 
L 262.6564 87.188741 
L 263.03 87.196754 
L 263.4036 86.665376 
L 263.7772 87.034193 
L 264.1508 86.478789 
L 264.898 86.413564 
L 265.2716 86.36708 
L 265.6452 86.011679 
L 266.3924 86.039845 
L 267.1396 85.589144 
L 267.8868 85.391174 
L 268.2604 85.416753 
L 268.634 85.00804 
L 269.3812 84.903447 
L 269.7548 84.733255 
L 270.1284 84.813443 
L 270.502 84.497222 
L 270.8756 84.404256 
L 271.2492 84.807798 
L 271.6228 84.344378 
L 271.9964 84.523583 
L 272.37 84.511541 
L 272.7436 84.730568 
L 273.1172 84.509799 
L 273.4908 84.545078 
L 273.8644 84.136202 
L 274.238 84.427954 
L 274.6116 84.15132 
L 275.3588 84.707763 
L 275.7324 84.50154 
L 276.106 84.43783 
L 276.4796 84.653577 
L 276.8532 84.389359 
L 277.6004 84.31146 
L 277.974 84.540463 
L 277.974 84.540463 
" style="fill:none;stroke:#a6cee3;stroke-linecap:round;stroke-width:2.8;"/>
   </g>
   <g id="line2d_5">
    <defs>
     <path d="M 0 -5.6 
L -1.257278 -1.730495 
L -5.325916 -1.730495 
L -2.034319 0.66099 
L -3.291597 4.530495 
L -0 2.13901 
L 3.291597 4.530495 
L 2.034319 0.66099 
L 5.325916 -1.730495 
L 1.257278 -1.730495 
z
" id="m4e9bca7d03"/>
    </defs>
    <g clip-path="url(#pecc895fb8c)">
     <use style="fill:#1f78b4;" x="66.89" xlink:href="#m4e9bca7d03" y="248.397243"/>
     <use style="fill:#1f78b4;" x="68.758" xlink:href="#m4e9bca7d03" y="245.880923"/>
     <use style="fill:#1f78b4;" x="70.626" xlink:href="#m4e9bca7d03" y="238.044723"/>
     <use style="fill:#1f78b4;" x="72.494" xlink:href="#m4e9bca7d03" y="226.174843"/>
     <use style="fill:#1f78b4;" x="74.362" xlink:href="#m4e9bca7d03" y="211.887521"/>
     <use style="fill:#1f78b4;" x="76.23" xlink:href="#m4e9bca7d03" y="200.740967"/>
     <use style="fill:#1f78b4;" x="78.098" xlink:href="#m4e9bca7d03" y="188.844568"/>
     <use style="fill:#1f78b4;" x="79.966" xlink:href="#m4e9bca7d03" y="172.553582"/>
     <use style="fill:#1f78b4;" x="81.834" xlink:href="#m4e9bca7d03" y="149.890958"/>
     <use style="fill:#1f78b4;" x="83.702" xlink:href="#m4e9bca7d03" y="127.90543"/>
     <use style="fill:#1f78b4;" x="85.57" xlink:href="#m4e9bca7d03" y="98.129666"/>
     <use style="fill:#1f78b4;" x="87.438" xlink:href="#m4e9bca7d03" y="67.662204"/>
     <use style="fill:#1f78b4;" x="89.306" xlink:href="#m4e9bca7d03" y="45.162071"/>
     <use style="fill:#1f78b4;" x="91.174" xlink:href="#m4e9bca7d03" y="30.198461"/>
     <use style="fill:#1f78b4;" x="93.042" xlink:href="#m4e9bca7d03" y="26.176458"/>
     <use style="fill:#1f78b4;" x="94.91" xlink:href="#m4e9bca7d03" y="33.256961"/>
     <use style="fill:#1f78b4;" x="96.778" xlink:href="#m4e9bca7d03" y="39.850629"/>
     <use style="fill:#1f78b4;" x="98.646" xlink:href="#m4e9bca7d03" y="49.754618"/>
     <use style="fill:#1f78b4;" x="100.514" xlink:href="#m4e9bca7d03" y="58.895246"/>
     <use style="fill:#1f78b4;" x="102.382" xlink:href="#m4e9bca7d03" y="68.174935"/>
     <use style="fill:#1f78b4;" x="104.25" xlink:href="#m4e9bca7d03" y="75.165669"/>
     <use style="fill:#1f78b4;" x="106.118" xlink:href="#m4e9bca7d03" y="80.423867"/>
     <use style="fill:#1f78b4;" x="107.986" xlink:href="#m4e9bca7d03" y="84.87038"/>
     <use style="fill:#1f78b4;" x="109.854" xlink:href="#m4e9bca7d03" y="92.979766"/>
     <use style="fill:#1f78b4;" x="111.722" xlink:href="#m4e9bca7d03" y="95.620166"/>
     <use style="fill:#1f78b4;" x="113.59" xlink:href="#m4e9bca7d03" y="100.74847"/>
     <use style="fill:#1f78b4;" x="115.458" xlink:href="#m4e9bca7d03" y="100.634705"/>
     <use style="fill:#1f78b4;" x="117.326" xlink:href="#m4e9bca7d03" y="103.917076"/>
     <use style="fill:#1f78b4;" x="119.194" xlink:href="#m4e9bca7d03" y="106.178116"/>
     <use style="fill:#1f78b4;" x="121.062" xlink:href="#m4e9bca7d03" y="105.161356"/>
     <use style="fill:#1f78b4;" x="122.93" xlink:href="#m4e9bca7d03" y="106.056052"/>
     <use style="fill:#1f78b4;" x="124.798" xlink:href="#m4e9bca7d03" y="105.815894"/>
     <use style="fill:#1f78b4;" x="126.666" xlink:href="#m4e9bca7d03" y="104.591109"/>
     <use style="fill:#1f78b4;" x="128.534" xlink:href="#m4e9bca7d03" y="106.031044"/>
     <use style="fill:#1f78b4;" x="130.402" xlink:href="#m4e9bca7d03" y="103.590354"/>
     <use style="fill:#1f78b4;" x="132.27" xlink:href="#m4e9bca7d03" y="103.60561"/>
     <use style="fill:#1f78b4;" x="134.138" xlink:href="#m4e9bca7d03" y="104.732075"/>
     <use style="fill:#1f78b4;" x="136.006" xlink:href="#m4e9bca7d03" y="106.168264"/>
     <use style="fill:#1f78b4;" x="137.874" xlink:href="#m4e9bca7d03" y="105.602148"/>
     <use style="fill:#1f78b4;" x="139.742" xlink:href="#m4e9bca7d03" y="106.689869"/>
     <use style="fill:#1f78b4;" x="141.61" xlink:href="#m4e9bca7d03" y="106.905703"/>
     <use style="fill:#1f78b4;" x="143.478" xlink:href="#m4e9bca7d03" y="104.967729"/>
     <use style="fill:#1f78b4;" x="145.346" xlink:href="#m4e9bca7d03" y="103.791574"/>
     <use style="fill:#1f78b4;" x="147.214" xlink:href="#m4e9bca7d03" y="102.743281"/>
     <use style="fill:#1f78b4;" x="149.082" xlink:href="#m4e9bca7d03" y="102.652651"/>
     <use style="fill:#1f78b4;" x="150.95" xlink:href="#m4e9bca7d03" y="101.627337"/>
     <use style="fill:#1f78b4;" x="152.818" xlink:href="#m4e9bca7d03" y="98.661712"/>
     <use style="fill:#1f78b4;" x="154.686" xlink:href="#m4e9bca7d03" y="96.487347"/>
     <use style="fill:#1f78b4;" x="156.554" xlink:href="#m4e9bca7d03" y="95.630592"/>
     <use style="fill:#1f78b4;" x="158.422" xlink:href="#m4e9bca7d03" y="93.343267"/>
     <use style="fill:#1f78b4;" x="160.29" xlink:href="#m4e9bca7d03" y="90.075778"/>
     <use style="fill:#1f78b4;" x="162.158" xlink:href="#m4e9bca7d03" y="89.45936"/>
     <use style="fill:#1f78b4;" x="164.026" xlink:href="#m4e9bca7d03" y="87.353429"/>
     <use style="fill:#1f78b4;" x="165.894" xlink:href="#m4e9bca7d03" y="85.682566"/>
     <use style="fill:#1f78b4;" x="167.762" xlink:href="#m4e9bca7d03" y="85.531436"/>
     <use style="fill:#1f78b4;" x="169.63" xlink:href="#m4e9bca7d03" y="85.715567"/>
     <use style="fill:#1f78b4;" x="171.498" xlink:href="#m4e9bca7d03" y="84.897178"/>
     <use style="fill:#1f78b4;" x="173.366" xlink:href="#m4e9bca7d03" y="83.842245"/>
     <use style="fill:#1f78b4;" x="175.234" xlink:href="#m4e9bca7d03" y="85.896098"/>
     <use style="fill:#1f78b4;" x="177.102" xlink:href="#m4e9bca7d03" y="85.354627"/>
     <use style="fill:#1f78b4;" x="178.97" xlink:href="#m4e9bca7d03" y="84.943406"/>
     <use style="fill:#1f78b4;" x="180.838" xlink:href="#m4e9bca7d03" y="84.983597"/>
     <use style="fill:#1f78b4;" x="182.706" xlink:href="#m4e9bca7d03" y="84.984312"/>
     <use style="fill:#1f78b4;" x="184.574" xlink:href="#m4e9bca7d03" y="85.559353"/>
     <use style="fill:#1f78b4;" x="186.442" xlink:href="#m4e9bca7d03" y="85.877725"/>
     <use style="fill:#1f78b4;" x="188.31" xlink:href="#m4e9bca7d03" y="85.461484"/>
     <use style="fill:#1f78b4;" x="190.178" xlink:href="#m4e9bca7d03" y="85.050184"/>
     <use style="fill:#1f78b4;" x="192.046" xlink:href="#m4e9bca7d03" y="84.449895"/>
     <use style="fill:#1f78b4;" x="193.914" xlink:href="#m4e9bca7d03" y="83.713351"/>
     <use style="fill:#1f78b4;" x="195.782" xlink:href="#m4e9bca7d03" y="83.043009"/>
     <use style="fill:#1f78b4;" x="197.65" xlink:href="#m4e9bca7d03" y="81.00868"/>
     <use style="fill:#1f78b4;" x="199.518" xlink:href="#m4e9bca7d03" y="80.143393"/>
     <use style="fill:#1f78b4;" x="201.386" xlink:href="#m4e9bca7d03" y="80.590083"/>
     <use style="fill:#1f78b4;" x="203.254" xlink:href="#m4e9bca7d03" y="79.458779"/>
     <use style="fill:#1f78b4;" x="205.122" xlink:href="#m4e9bca7d03" y="79.968748"/>
     <use style="fill:#1f78b4;" x="206.99" xlink:href="#m4e9bca7d03" y="80.190416"/>
     <use style="fill:#1f78b4;" x="208.858" xlink:href="#m4e9bca7d03" y="78.147702"/>
     <use style="fill:#1f78b4;" x="210.726" xlink:href="#m4e9bca7d03" y="78.166547"/>
     <use style="fill:#1f78b4;" x="212.594" xlink:href="#m4e9bca7d03" y="77.616545"/>
     <use style="fill:#1f78b4;" x="214.462" xlink:href="#m4e9bca7d03" y="77.163849"/>
     <use style="fill:#1f78b4;" x="216.33" xlink:href="#m4e9bca7d03" y="78.114006"/>
     <use style="fill:#1f78b4;" x="218.198" xlink:href="#m4e9bca7d03" y="82.203983"/>
     <use style="fill:#1f78b4;" x="220.066" xlink:href="#m4e9bca7d03" y="85.274256"/>
     <use style="fill:#1f78b4;" x="221.934" xlink:href="#m4e9bca7d03" y="88.089067"/>
     <use style="fill:#1f78b4;" x="223.802" xlink:href="#m4e9bca7d03" y="90.074718"/>
     <use style="fill:#1f78b4;" x="225.67" xlink:href="#m4e9bca7d03" y="91.893888"/>
     <use style="fill:#1f78b4;" x="227.538" xlink:href="#m4e9bca7d03" y="90.774688"/>
     <use style="fill:#1f78b4;" x="229.406" xlink:href="#m4e9bca7d03" y="90.967963"/>
     <use style="fill:#1f78b4;" x="231.274" xlink:href="#m4e9bca7d03" y="89.773952"/>
     <use style="fill:#1f78b4;" x="233.142" xlink:href="#m4e9bca7d03" y="88.334429"/>
     <use style="fill:#1f78b4;" x="235.01" xlink:href="#m4e9bca7d03" y="86.250726"/>
     <use style="fill:#1f78b4;" x="236.878" xlink:href="#m4e9bca7d03" y="84.566753"/>
     <use style="fill:#1f78b4;" x="238.746" xlink:href="#m4e9bca7d03" y="83.290859"/>
     <use style="fill:#1f78b4;" x="240.614" xlink:href="#m4e9bca7d03" y="82.730823"/>
     <use style="fill:#1f78b4;" x="242.482" xlink:href="#m4e9bca7d03" y="83.653203"/>
     <use style="fill:#1f78b4;" x="244.35" xlink:href="#m4e9bca7d03" y="84.224838"/>
     <use style="fill:#1f78b4;" x="246.218" xlink:href="#m4e9bca7d03" y="86.073612"/>
     <use style="fill:#1f78b4;" x="248.086" xlink:href="#m4e9bca7d03" y="86.554968"/>
     <use style="fill:#1f78b4;" x="249.954" xlink:href="#m4e9bca7d03" y="88.820426"/>
     <use style="fill:#1f78b4;" x="251.822" xlink:href="#m4e9bca7d03" y="88.555576"/>
     <use style="fill:#1f78b4;" x="253.69" xlink:href="#m4e9bca7d03" y="89.962058"/>
     <use style="fill:#1f78b4;" x="255.558" xlink:href="#m4e9bca7d03" y="89.532721"/>
     <use style="fill:#1f78b4;" x="257.426" xlink:href="#m4e9bca7d03" y="89.565314"/>
     <use style="fill:#1f78b4;" x="259.294" xlink:href="#m4e9bca7d03" y="89.092788"/>
     <use style="fill:#1f78b4;" x="261.162" xlink:href="#m4e9bca7d03" y="88.115458"/>
     <use style="fill:#1f78b4;" x="263.03" xlink:href="#m4e9bca7d03" y="87.697959"/>
     <use style="fill:#1f78b4;" x="264.898" xlink:href="#m4e9bca7d03" y="86.918372"/>
     <use style="fill:#1f78b4;" x="266.766" xlink:href="#m4e9bca7d03" y="86.998522"/>
     <use style="fill:#1f78b4;" x="268.634" xlink:href="#m4e9bca7d03" y="85.749438"/>
     <use style="fill:#1f78b4;" x="270.502" xlink:href="#m4e9bca7d03" y="84.748662"/>
     <use style="fill:#1f78b4;" x="272.37" xlink:href="#m4e9bca7d03" y="85.68614"/>
     <use style="fill:#1f78b4;" x="274.238" xlink:href="#m4e9bca7d03" y="84.84736"/>
     <use style="fill:#1f78b4;" x="276.106" xlink:href="#m4e9bca7d03" y="84.919147"/>
     <use style="fill:#1f78b4;" x="277.974" xlink:href="#m4e9bca7d03" y="84.930268"/>
    </g>
   </g>
   <g id="patch_3">
    <path d="M 53.814 240.644063 
L 53.814 15.044063 
" style="fill:none;stroke:#262626;stroke-linecap:square;stroke-linejoin:miter;stroke-width:1.25;"/>
   </g>
   <g id="patch_4">
    <path d="M 277.974 240.644063 
L 277.974 15.044063 
" style="fill:none;stroke:#262626;stroke-linecap:square;stroke-linejoin:miter;stroke-width:1.25;"/>
   </g>
   <g id="patch_5">
    <path d="M 53.814 240.644063 
L 277.974 240.644063 
" style="fill:none;stroke:#262626;stroke-linecap:square;stroke-linejoin:miter;stroke-width:1.25;"/>
   </g>
   <g id="patch_6">
    <path d="M 53.814 15.044063 
L 277.974 15.044063 
" style="fill:none;stroke:#262626;stroke-linecap:square;stroke-linejoin:miter;stroke-width:1.25;"/>
   </g>
   <g id="text_5">
    <!-- A-A -->
    <defs>
     <path d="M -0.140625 0 
L 27.34375 71.578125 
L 37.546875 71.578125 
L 66.84375 0 
L 56.0625 0 
L 47.703125 21.6875 
L 17.78125 21.6875 
L 9.90625 0 
z
M 20.515625 29.390625 
L 44.78125 29.390625 
L 37.3125 49.21875 
Q 33.890625 58.25 32.234375 64.0625 
Q 30.859375 57.171875 28.375 50.390625 
z
" id="ArialMT-41"/>
     <path d="M 3.171875 21.484375 
L 3.171875 30.328125 
L 30.171875 30.328125 
L 30.171875 21.484375 
z
" id="ArialMT-2d"/>
    </defs>
    <g style="fill:#262626;" transform="translate(98.646 218.084063)scale(0.18 -0.18)">
     <use xlink:href="#ArialMT-41"/>
     <use x="66.699219" xlink:href="#ArialMT-2d"/>
     <use x="100" xlink:href="#ArialMT-41"/>
    </g>
   </g>
  </g>
  <g id="axes_2">
   <g id="patch_7">
    <path d="M 326.134 240.644063 
L 550.294 240.644063 
L 550.294 15.044063 
L 326.134 15.044063 
z
" style="fill:#ffffff;"/>
   </g>
   <g id="matplotlib.axis_3">
    <g id="xtick_3">
     <g id="line2d_6">
      <g>
       <use style="fill:#262626;stroke:#262626;stroke-width:1.6;" x="326.134" xlink:href="#m64a32331ef" y="240.644063"/>
      </g>
     </g>
     <g id="text_6">
      <!-- 0.2 -->
      <g style="fill:#262626;" transform="translate(315.014 269.296562)scale(0.16 -0.16)">
       <use xlink:href="#ArialMT-30"/>
       <use x="55.615234" xlink:href="#ArialMT-2e"/>
       <use x="83.398438" xlink:href="#ArialMT-32"/>
      </g>
     </g>
    </g>
    <g id="xtick_4">
     <g id="line2d_7">
      <g>
       <use style="fill:#262626;stroke:#262626;stroke-width:1.6;" x="550.294" xlink:href="#m64a32331ef" y="240.644063"/>
      </g>
     </g>
     <g id="text_7">
      <!-- 1.4 -->
      <g style="fill:#262626;" transform="translate(539.174 269.296562)scale(0.16 -0.16)">
       <use xlink:href="#ArialMT-31"/>
       <use x="55.615234" xlink:href="#ArialMT-2e"/>
       <use x="83.398438" xlink:href="#ArialMT-34"/>
      </g>
     </g>
    </g>
   </g>
   <g id="matplotlib.axis_4">
    <g id="ytick_2">
     <g id="line2d_8">
      <g>
       <use style="fill:#262626;stroke:#262626;stroke-width:1.6;" x="326.134" xlink:href="#m7a854c4d42" y="39.129782"/>
      </g>
     </g>
     <g id="text_8">
      <!-- 1 -->
      <g style="fill:#262626;" transform="translate(300.0365 44.856032)scale(0.16 -0.16)">
       <use xlink:href="#ArialMT-31"/>
      </g>
     </g>
    </g>
   </g>
   <g id="line2d_9">
    <path clip-path="url(#p040fdac496)" d="M 344.814 251.250077 
L 348.55 251.190264 
L 348.9236 251.120118 
L 349.6708 250.719867 
L 351.1652 249.053925 
L 352.286 245.33716 
L 353.4068 239.820598 
L 354.5276 230.043652 
L 355.2748 223.297374 
L 355.6484 218.485822 
L 356.022 215.720268 
L 356.7692 206.068109 
L 357.5164 196.335177 
L 357.89 193.240702 
L 358.6372 183.25649 
L 360.1316 161.075503 
L 360.5052 159.603238 
L 361.626 144.159768 
L 361.9996 142.579201 
L 362.3732 136.68821 
L 363.1204 130.944583 
L 363.494 127.152871 
L 363.8676 125.087261 
L 364.6148 117.491358 
L 364.9884 115.591076 
L 365.362 112.437034 
L 366.4828 108.010232 
L 367.23 101.850822 
L 367.6036 101.667732 
L 367.9772 103.109625 
L 368.3508 96.998047 
L 369.4716 93.566799 
L 369.8452 93.969688 
L 370.5924 89.141429 
L 370.966 89.238762 
L 371.3396 88.770386 
L 371.7132 89.218012 
L 372.0868 87.453355 
L 372.4604 84.273996 
L 372.834 85.373824 
L 373.2076 83.456859 
L 373.5812 82.941011 
L 374.3284 80.588921 
L 374.702 80.62243 
L 375.4492 74.698415 
L 375.8228 75.212173 
L 376.57 72.129176 
L 376.9436 70.597778 
L 377.3172 67.533777 
L 377.6908 68.052547 
L 378.0644 66.596126 
L 379.1852 60.138471 
L 380.306 57.356593 
L 380.6796 54.94712 
L 381.0532 55.695119 
L 382.174 50.197906 
L 382.5476 50.299558 
L 382.9212 50.256436 
L 383.2948 48.942846 
L 384.4156 47.651961 
L 384.7892 44.898074 
L 385.1628 45.243202 
L 385.5364 43.283699 
L 385.91 45.24278 
L 386.2836 43.725399 
L 386.6572 42.826037 
L 387.0308 44.062653 
L 387.4044 42.325006 
L 387.778 41.705298 
L 388.1516 44.100209 
L 388.5252 41.344598 
L 388.8988 43.351567 
L 389.2724 40.886555 
L 389.646 42.110048 
L 390.0196 41.152886 
L 390.3932 41.660048 
L 390.7668 41.6518 
L 391.1404 39.825895 
L 391.514 40.247118 
L 391.8876 39.288867 
L 392.2612 37.168525 
L 392.6348 38.927812 
L 393.0084 37.500381 
L 393.382 38.340859 
L 393.7556 39.830258 
L 394.1292 38.635215 
L 394.5028 39.079773 
L 394.8764 37.837527 
L 395.25 37.639663 
L 395.6236 37.030453 
L 395.9972 37.791954 
L 396.3708 37.625021 
L 396.7444 36.746841 
L 397.118 37.488055 
L 397.4916 36.824606 
L 398.2388 37.248429 
L 398.6124 36.327933 
L 398.986 36.206039 
L 399.3596 36.663922 
L 399.7332 36.349787 
L 400.1068 37.013731 
L 400.4804 36.666518 
L 400.854 37.403941 
L 401.6012 35.354818 
L 401.9748 36.49065 
L 402.722 37.589356 
L 403.0956 38.041624 
L 403.4692 38.83047 
L 403.8428 36.482197 
L 404.2164 38.902803 
L 404.59 38.635791 
L 405.3372 37.706676 
L 405.7108 39.356574 
L 406.0844 37.15386 
L 406.458 39.9678 
L 406.8316 38.509015 
L 407.2052 40.287956 
L 407.5788 39.07791 
L 407.9524 38.332556 
L 408.326 39.191678 
L 408.6996 38.905947 
L 409.0732 39.892 
L 409.4468 40.141963 
L 409.8204 39.672306 
L 410.194 41.294146 
L 410.9412 41.228283 
L 411.3148 39.862507 
L 411.6884 38.98685 
L 412.062 40.732536 
L 412.4356 39.523295 
L 412.8092 39.857746 
L 413.1828 40.981854 
L 413.5564 38.62089 
L 413.93 39.866592 
L 414.3036 39.837175 
L 414.6772 38.587601 
L 415.0508 40.683127 
L 415.4244 39.272086 
L 415.798 40.127754 
L 416.5452 38.761891 
L 416.9188 37.74226 
L 417.2924 39.364791 
L 417.666 38.772268 
L 418.0396 37.732228 
L 418.4132 37.552084 
L 418.7868 36.659366 
L 419.1604 38.407808 
L 419.534 38.502336 
L 419.9076 38.462529 
L 420.2812 37.079577 
L 420.6548 37.581033 
L 421.0284 37.002546 
L 421.402 37.345217 
L 421.7756 38.318101 
L 422.1492 37.332327 
L 422.5228 37.596227 
L 422.8964 36.605893 
L 423.27 36.421445 
L 424.0172 35.78804 
L 424.3908 36.225166 
L 424.7644 35.227716 
L 425.138 35.552366 
L 425.5116 35.261725 
L 425.8852 36.230262 
L 426.2588 34.360245 
L 426.6324 33.82712 
L 427.006 34.144025 
L 427.3796 33.79987 
L 427.7532 34.283569 
L 428.1268 34.091664 
L 428.5004 34.025327 
L 428.874 32.486285 
L 429.2476 33.160988 
L 429.6212 32.303948 
L 429.9948 33.437284 
L 430.3684 33.195109 
L 430.742 31.395468 
L 431.1156 32.090244 
L 431.4892 31.378872 
L 431.8628 31.847021 
L 432.2364 30.701651 
L 432.61 30.447139 
L 432.9836 31.388286 
L 433.3572 29.635838 
L 433.7308 30.0159 
L 434.478 28.781816 
L 434.8516 29.868226 
L 435.2252 29.118934 
L 435.5988 27.977615 
L 435.9724 27.902211 
L 436.346 29.54394 
L 436.7196 27.490773 
L 437.0932 27.200115 
L 437.4668 27.638256 
L 437.8404 27.234201 
L 438.214 28.035152 
L 438.5876 27.762493 
L 438.9612 26.291968 
L 439.3348 27.538994 
L 439.7084 27.494927 
L 440.082 27.20944 
L 440.4556 27.73579 
L 440.8292 27.141186 
L 441.2028 27.870473 
L 441.5764 28.291418 
L 441.95 27.534041 
L 442.3236 28.697502 
L 442.6972 26.875473 
L 443.0708 27.285639 
L 443.4444 28.507439 
L 443.818 28.009491 
L 444.1916 28.278065 
L 444.5652 28.754449 
L 444.9388 29.872082 
L 445.3124 28.891838 
L 445.686 29.367842 
L 446.0596 30.683292 
L 446.8068 29.568663 
L 447.1804 30.178712 
L 447.554 31.078795 
L 447.9276 30.573924 
L 448.6748 31.237235 
L 449.0484 32.309996 
L 449.422 31.924281 
L 449.7956 31.729142 
L 450.1692 31.950039 
L 450.9164 33.643031 
L 451.29 33.94322 
L 451.6636 32.290425 
L 452.0372 33.321851 
L 452.4108 34.842604 
L 452.7844 34.276479 
L 453.158 35.460913 
L 453.5316 35.4338 
L 453.9052 35.258656 
L 454.2788 35.830081 
L 455.026 35.198011 
L 455.3996 36.29817 
L 455.7732 35.327671 
L 456.1468 35.458949 
L 456.5204 35.263084 
L 456.894 35.526295 
L 457.2676 34.979279 
L 457.6412 35.64737 
L 458.0148 34.93424 
L 458.3884 35.100145 
L 458.762 34.25635 
L 459.1356 34.077414 
L 459.5092 34.644086 
L 459.8828 34.787423 
L 460.2564 33.616072 
L 461.0036 33.060722 
L 461.3772 33.183554 
L 461.7508 33.668791 
L 462.1244 32.847508 
L 462.498 32.807188 
L 462.8716 32.958199 
L 463.2452 32.382538 
L 463.6188 30.776308 
L 463.9924 31.630564 
L 464.366 30.143565 
L 464.7396 31.013807 
L 465.1132 29.380982 
L 465.8604 28.992144 
L 466.234 29.168244 
L 466.6076 28.440599 
L 466.9812 28.151706 
L 467.3548 28.893869 
L 467.7284 27.348052 
L 468.102 28.172341 
L 468.4756 28.246498 
L 468.8492 28.725321 
L 469.2228 27.17788 
L 469.97 27.20982 
L 470.3436 28.47703 
L 471.0908 27.15127 
L 471.4644 28.741823 
L 472.2116 30.407282 
L 472.5852 30.462791 
L 472.9588 30.707408 
L 473.3324 32.731318 
L 473.706 33.088395 
L 474.0796 34.104121 
L 474.4532 34.465029 
L 474.8268 36.656047 
L 475.2004 36.259566 
L 475.574 37.92225 
L 476.3212 39.731703 
L 476.6948 38.889432 
L 477.0684 41.945995 
L 477.8156 43.036334 
L 478.1892 43.519719 
L 478.9364 44.987031 
L 479.31 45.219361 
L 479.6836 46.480001 
L 480.4308 47.935059 
L 480.8044 48.003246 
L 481.5516 49.152482 
L 482.2988 49.682881 
L 482.6724 49.905202 
L 483.046 49.366228 
L 483.4196 50.015238 
L 483.7932 49.896513 
L 484.1668 50.854984 
L 484.5404 50.797121 
L 484.914 50.038946 
L 485.2876 51.218355 
L 485.6612 49.602721 
L 486.0348 50.284525 
L 486.4084 50.436238 
L 486.782 51.039589 
L 487.1556 50.1551 
L 487.5292 50.459174 
L 487.9028 49.682246 
L 488.2764 49.31527 
L 488.65 49.868313 
L 489.0236 49.452886 
L 489.3972 48.6522 
L 489.7708 48.368831 
L 490.1444 49.079828 
L 490.8916 47.559446 
L 491.2652 48.299954 
L 491.6388 47.862725 
L 492.0124 48.463874 
L 492.386 47.39377 
L 492.7596 47.151586 
L 493.1332 46.592176 
L 493.5068 46.97538 
L 493.8804 46.142954 
L 494.254 46.15921 
L 494.6276 45.768175 
L 495.0012 44.651649 
L 495.3748 44.057263 
L 495.7484 44.013315 
L 496.122 43.7523 
L 496.4956 43.878872 
L 496.8692 42.947714 
L 497.2428 43.490053 
L 497.6164 43.203675 
L 498.7372 40.519479 
L 499.1108 41.314755 
L 499.4844 41.523263 
L 499.858 39.624916 
L 500.6052 39.185306 
L 500.9788 39.309612 
L 501.726 38.465196 
L 502.0996 37.718275 
L 502.4732 36.522043 
L 502.8468 36.182377 
L 503.2204 36.648525 
L 503.594 35.274116 
L 503.9676 35.471402 
L 504.3412 35.039445 
L 504.7148 34.01135 
L 505.0884 34.703544 
L 505.8356 32.525742 
L 506.5828 32.487627 
L 506.9564 30.974295 
L 507.33 31.550443 
L 507.7036 30.916437 
L 508.0772 31.154576 
L 508.4508 29.756387 
L 508.8244 30.024987 
L 509.198 29.241731 
L 509.5716 29.721467 
L 509.9452 29.655713 
L 510.3188 30.181247 
L 510.6924 30.01969 
L 511.066 28.87087 
L 511.4396 29.129377 
L 511.8132 29.029097 
L 512.1868 28.476849 
L 512.5604 28.831694 
L 512.934 28.685216 
L 513.3076 28.150086 
L 513.6812 28.748701 
L 514.4284 28.845607 
L 514.802 29.04475 
L 515.1756 28.479925 
L 515.5492 29.24574 
L 516.2964 29.461272 
L 516.67 29.147564 
L 517.0436 29.089754 
L 517.4172 30.08745 
L 517.7908 30.145044 
L 518.1644 30.358591 
L 518.9116 32.176397 
L 519.2852 30.501572 
L 519.6588 31.776681 
L 520.0324 31.3383 
L 520.7796 32.656431 
L 521.1532 32.825226 
L 521.5268 33.40988 
L 521.9004 32.985194 
L 522.274 33.50355 
L 523.3948 35.660495 
L 523.7684 34.86006 
L 524.142 35.681495 
L 524.5156 35.104355 
L 524.8892 35.623743 
L 525.2628 36.435947 
L 525.6364 36.209467 
L 526.01 37.23559 
L 526.3836 37.04497 
L 526.7572 38.169819 
L 527.1308 38.546848 
L 527.5044 39.320816 
L 527.878 38.754165 
L 528.2516 39.585852 
L 528.6252 39.220856 
L 528.9988 39.798365 
L 529.3724 39.350622 
L 529.746 39.517647 
L 530.1196 40.216688 
L 530.4932 39.83262 
L 530.8668 40.411707 
L 531.2404 41.508089 
L 531.614 41.791259 
L 531.9876 41.688529 
L 532.3612 42.280435 
L 533.1084 42.618626 
L 533.482 43.265889 
L 533.8556 43.173634 
L 534.2292 42.75087 
L 534.9764 43.699286 
L 535.35 43.932644 
L 535.7236 44.684917 
L 536.4708 44.871707 
L 536.8444 44.318998 
L 537.5916 44.371044 
L 537.9652 44.804361 
L 538.3388 45.026004 
L 538.7124 45.586634 
L 539.4596 45.189957 
L 539.8332 44.742143 
L 540.2068 45.214067 
L 540.5804 45.064572 
L 540.954 44.760931 
L 541.3276 44.748152 
L 541.7012 44.859294 
L 542.0748 45.176536 
L 542.4484 45.124816 
L 542.822 44.453724 
L 543.1956 44.489409 
L 543.9428 44.121654 
L 544.69 44.901907 
L 545.0636 44.091576 
L 545.4372 45.019299 
L 545.8108 44.233837 
L 546.9316 43.68133 
L 547.3052 43.445592 
L 548.0524 43.750775 
L 548.426 43.147916 
L 548.7996 42.782023 
L 549.1732 42.790377 
L 549.9204 43.184313 
L 550.294 42.706511 
L 550.294 42.706511 
" style="fill:none;stroke:#a6cee3;stroke-linecap:round;stroke-width:2.8;"/>
   </g>
   <g id="line2d_10">
    <g clip-path="url(#p040fdac496)">
     <use style="fill:#1f78b4;" x="348.94228" xlink:href="#m4e9bca7d03" y="250.955135"/>
     <use style="fill:#1f78b4;" x="350.813572" xlink:href="#m4e9bca7d03" y="249.030735"/>
     <use style="fill:#1f78b4;" x="352.684865" xlink:href="#m4e9bca7d03" y="243.773745"/>
     <use style="fill:#1f78b4;" x="354.556157" xlink:href="#m4e9bca7d03" y="231.510139"/>
     <use style="fill:#1f78b4;" x="356.42745" xlink:href="#m4e9bca7d03" y="207.765214"/>
     <use style="fill:#1f78b4;" x="358.298742" xlink:href="#m4e9bca7d03" y="186.129108"/>
     <use style="fill:#1f78b4;" x="360.170034" xlink:href="#m4e9bca7d03" y="161.722147"/>
     <use style="fill:#1f78b4;" x="362.041327" xlink:href="#m4e9bca7d03" y="143.12386"/>
     <use style="fill:#1f78b4;" x="363.912619" xlink:href="#m4e9bca7d03" y="127.827972"/>
     <use style="fill:#1f78b4;" x="365.783912" xlink:href="#m4e9bca7d03" y="113.588295"/>
     <use style="fill:#1f78b4;" x="367.655204" xlink:href="#m4e9bca7d03" y="105.078492"/>
     <use style="fill:#1f78b4;" x="369.526496" xlink:href="#m4e9bca7d03" y="96.317248"/>
     <use style="fill:#1f78b4;" x="371.397789" xlink:href="#m4e9bca7d03" y="93.182958"/>
     <use style="fill:#1f78b4;" x="373.269081" xlink:href="#m4e9bca7d03" y="84.193797"/>
     <use style="fill:#1f78b4;" x="375.140373" xlink:href="#m4e9bca7d03" y="75.35068"/>
     <use style="fill:#1f78b4;" x="377.011666" xlink:href="#m4e9bca7d03" y="69.786271"/>
     <use style="fill:#1f78b4;" x="378.882958" xlink:href="#m4e9bca7d03" y="60.833306"/>
     <use style="fill:#1f78b4;" x="380.754251" xlink:href="#m4e9bca7d03" y="52.95365"/>
     <use style="fill:#1f78b4;" x="382.625543" xlink:href="#m4e9bca7d03" y="50.260141"/>
     <use style="fill:#1f78b4;" x="384.496835" xlink:href="#m4e9bca7d03" y="41.750616"/>
     <use style="fill:#1f78b4;" x="386.368128" xlink:href="#m4e9bca7d03" y="39.685372"/>
     <use style="fill:#1f78b4;" x="388.23942" xlink:href="#m4e9bca7d03" y="38.569946"/>
     <use style="fill:#1f78b4;" x="390.110713" xlink:href="#m4e9bca7d03" y="38.824187"/>
     <use style="fill:#1f78b4;" x="391.982005" xlink:href="#m4e9bca7d03" y="36.573673"/>
     <use style="fill:#1f78b4;" x="393.853297" xlink:href="#m4e9bca7d03" y="37.401817"/>
     <use style="fill:#1f78b4;" x="395.72459" xlink:href="#m4e9bca7d03" y="37.557163"/>
     <use style="fill:#1f78b4;" x="397.595882" xlink:href="#m4e9bca7d03" y="36.602134"/>
     <use style="fill:#1f78b4;" x="399.467175" xlink:href="#m4e9bca7d03" y="35.920424"/>
     <use style="fill:#1f78b4;" x="401.338467" xlink:href="#m4e9bca7d03" y="33.346134"/>
     <use style="fill:#1f78b4;" x="403.209759" xlink:href="#m4e9bca7d03" y="32.880415"/>
     <use style="fill:#1f78b4;" x="405.081052" xlink:href="#m4e9bca7d03" y="37.829991"/>
     <use style="fill:#1f78b4;" x="406.952344" xlink:href="#m4e9bca7d03" y="36.507655"/>
     <use style="fill:#1f78b4;" x="408.823637" xlink:href="#m4e9bca7d03" y="37.000784"/>
     <use style="fill:#1f78b4;" x="410.694929" xlink:href="#m4e9bca7d03" y="43.555812"/>
     <use style="fill:#1f78b4;" x="412.566221" xlink:href="#m4e9bca7d03" y="37.162149"/>
     <use style="fill:#1f78b4;" x="414.437514" xlink:href="#m4e9bca7d03" y="40.448008"/>
     <use style="fill:#1f78b4;" x="416.308806" xlink:href="#m4e9bca7d03" y="38.487882"/>
     <use style="fill:#1f78b4;" x="418.180099" xlink:href="#m4e9bca7d03" y="37.251326"/>
     <use style="fill:#1f78b4;" x="420.051391" xlink:href="#m4e9bca7d03" y="40.90478"/>
     <use style="fill:#1f78b4;" x="421.922683" xlink:href="#m4e9bca7d03" y="38.22329"/>
     <use style="fill:#1f78b4;" x="423.793976" xlink:href="#m4e9bca7d03" y="39.600725"/>
     <use style="fill:#1f78b4;" x="425.665268" xlink:href="#m4e9bca7d03" y="36.663898"/>
     <use style="fill:#1f78b4;" x="427.536561" xlink:href="#m4e9bca7d03" y="35.103743"/>
     <use style="fill:#1f78b4;" x="429.407853" xlink:href="#m4e9bca7d03" y="35.019356"/>
     <use style="fill:#1f78b4;" x="431.279145" xlink:href="#m4e9bca7d03" y="33.594283"/>
     <use style="fill:#1f78b4;" x="433.150438" xlink:href="#m4e9bca7d03" y="31.925955"/>
     <use style="fill:#1f78b4;" x="435.02173" xlink:href="#m4e9bca7d03" y="34.657134"/>
     <use style="fill:#1f78b4;" x="436.893022" xlink:href="#m4e9bca7d03" y="29.514692"/>
     <use style="fill:#1f78b4;" x="438.764315" xlink:href="#m4e9bca7d03" y="27.001361"/>
     <use style="fill:#1f78b4;" x="440.635607" xlink:href="#m4e9bca7d03" y="30.428891"/>
     <use style="fill:#1f78b4;" x="442.5069" xlink:href="#m4e9bca7d03" y="31.60647"/>
     <use style="fill:#1f78b4;" x="444.378192" xlink:href="#m4e9bca7d03" y="28.857971"/>
     <use style="fill:#1f78b4;" x="446.249484" xlink:href="#m4e9bca7d03" y="34.439203"/>
     <use style="fill:#1f78b4;" x="448.120777" xlink:href="#m4e9bca7d03" y="35.271118"/>
     <use style="fill:#1f78b4;" x="449.992069" xlink:href="#m4e9bca7d03" y="33.16519"/>
     <use style="fill:#1f78b4;" x="451.863362" xlink:href="#m4e9bca7d03" y="36.824375"/>
     <use style="fill:#1f78b4;" x="453.734654" xlink:href="#m4e9bca7d03" y="37.180579"/>
     <use style="fill:#1f78b4;" x="455.605946" xlink:href="#m4e9bca7d03" y="37.198888"/>
     <use style="fill:#1f78b4;" x="457.477239" xlink:href="#m4e9bca7d03" y="37.434139"/>
     <use style="fill:#1f78b4;" x="459.348531" xlink:href="#m4e9bca7d03" y="35.369303"/>
     <use style="fill:#1f78b4;" x="461.219824" xlink:href="#m4e9bca7d03" y="34.219533"/>
     <use style="fill:#1f78b4;" x="463.091116" xlink:href="#m4e9bca7d03" y="35.782988"/>
     <use style="fill:#1f78b4;" x="464.962408" xlink:href="#m4e9bca7d03" y="29.514379"/>
     <use style="fill:#1f78b4;" x="466.833701" xlink:href="#m4e9bca7d03" y="30.324704"/>
     <use style="fill:#1f78b4;" x="468.704993" xlink:href="#m4e9bca7d03" y="30.193019"/>
     <use style="fill:#1f78b4;" x="470.576286" xlink:href="#m4e9bca7d03" y="30.927634"/>
     <use style="fill:#1f78b4;" x="472.447578" xlink:href="#m4e9bca7d03" y="29.84896"/>
     <use style="fill:#1f78b4;" x="474.31887" xlink:href="#m4e9bca7d03" y="33.603733"/>
     <use style="fill:#1f78b4;" x="476.190163" xlink:href="#m4e9bca7d03" y="39.278011"/>
     <use style="fill:#1f78b4;" x="478.061455" xlink:href="#m4e9bca7d03" y="45.20665"/>
     <use style="fill:#1f78b4;" x="479.932747" xlink:href="#m4e9bca7d03" y="46.047583"/>
     <use style="fill:#1f78b4;" x="481.80404" xlink:href="#m4e9bca7d03" y="47.599742"/>
     <use style="fill:#1f78b4;" x="483.675332" xlink:href="#m4e9bca7d03" y="48.922403"/>
     <use style="fill:#1f78b4;" x="485.546625" xlink:href="#m4e9bca7d03" y="50.921246"/>
     <use style="fill:#1f78b4;" x="487.417917" xlink:href="#m4e9bca7d03" y="49.595991"/>
     <use style="fill:#1f78b4;" x="489.289209" xlink:href="#m4e9bca7d03" y="49.49682"/>
     <use style="fill:#1f78b4;" x="491.160502" xlink:href="#m4e9bca7d03" y="49.769452"/>
     <use style="fill:#1f78b4;" x="493.031794" xlink:href="#m4e9bca7d03" y="45.459322"/>
     <use style="fill:#1f78b4;" x="494.903087" xlink:href="#m4e9bca7d03" y="45.032334"/>
     <use style="fill:#1f78b4;" x="496.774379" xlink:href="#m4e9bca7d03" y="43.913555"/>
     <use style="fill:#1f78b4;" x="498.645672" xlink:href="#m4e9bca7d03" y="39.143744"/>
     <use style="fill:#1f78b4;" x="500.516964" xlink:href="#m4e9bca7d03" y="39.951672"/>
     <use style="fill:#1f78b4;" x="502.388256" xlink:href="#m4e9bca7d03" y="38.236787"/>
     <use style="fill:#1f78b4;" x="504.259549" xlink:href="#m4e9bca7d03" y="34.18479"/>
     <use style="fill:#1f78b4;" x="506.130841" xlink:href="#m4e9bca7d03" y="30.859292"/>
     <use style="fill:#1f78b4;" x="508.002133" xlink:href="#m4e9bca7d03" y="32.72613"/>
     <use style="fill:#1f78b4;" x="509.873426" xlink:href="#m4e9bca7d03" y="27.939031"/>
     <use style="fill:#1f78b4;" x="511.744718" xlink:href="#m4e9bca7d03" y="26.852117"/>
     <use style="fill:#1f78b4;" x="513.616011" xlink:href="#m4e9bca7d03" y="28.387836"/>
     <use style="fill:#1f78b4;" x="515.487303" xlink:href="#m4e9bca7d03" y="28.665509"/>
     <use style="fill:#1f78b4;" x="517.358595" xlink:href="#m4e9bca7d03" y="28.632949"/>
     <use style="fill:#1f78b4;" x="519.229888" xlink:href="#m4e9bca7d03" y="30.444236"/>
     <use style="fill:#1f78b4;" x="521.10118" xlink:href="#m4e9bca7d03" y="31.688213"/>
     <use style="fill:#1f78b4;" x="522.972473" xlink:href="#m4e9bca7d03" y="31.760535"/>
     <use style="fill:#1f78b4;" x="524.843765" xlink:href="#m4e9bca7d03" y="35.452555"/>
     <use style="fill:#1f78b4;" x="526.715057" xlink:href="#m4e9bca7d03" y="34.073312"/>
     <use style="fill:#1f78b4;" x="528.58635" xlink:href="#m4e9bca7d03" y="38.437153"/>
     <use style="fill:#1f78b4;" x="530.457642" xlink:href="#m4e9bca7d03" y="38.016353"/>
     <use style="fill:#1f78b4;" x="532.328935" xlink:href="#m4e9bca7d03" y="41.600824"/>
     <use style="fill:#1f78b4;" x="534.200227" xlink:href="#m4e9bca7d03" y="42.46343"/>
     <use style="fill:#1f78b4;" x="536.071519" xlink:href="#m4e9bca7d03" y="45.097927"/>
     <use style="fill:#1f78b4;" x="537.942812" xlink:href="#m4e9bca7d03" y="42.871924"/>
     <use style="fill:#1f78b4;" x="539.814104" xlink:href="#m4e9bca7d03" y="44.709751"/>
     <use style="fill:#1f78b4;" x="541.685397" xlink:href="#m4e9bca7d03" y="44.382828"/>
     <use style="fill:#1f78b4;" x="543.556689" xlink:href="#m4e9bca7d03" y="44.196319"/>
     <use style="fill:#1f78b4;" x="545.427981" xlink:href="#m4e9bca7d03" y="43.962659"/>
     <use style="fill:#1f78b4;" x="547.299274" xlink:href="#m4e9bca7d03" y="41.325894"/>
     <use style="fill:#1f78b4;" x="549.170566" xlink:href="#m4e9bca7d03" y="41.308759"/>
    </g>
   </g>
   <g id="patch_8">
    <path d="M 326.134 240.644063 
L 326.134 15.044063 
" style="fill:none;stroke:#262626;stroke-linecap:square;stroke-linejoin:miter;stroke-width:1.25;"/>
   </g>
   <g id="patch_9">
    <path d="M 550.294 240.644063 
L 550.294 15.044063 
" style="fill:none;stroke:#262626;stroke-linecap:square;stroke-linejoin:miter;stroke-width:1.25;"/>
   </g>
   <g id="patch_10">
    <path d="M 326.134 240.644063 
L 550.294 240.644063 
" style="fill:none;stroke:#262626;stroke-linecap:square;stroke-linejoin:miter;stroke-width:1.25;"/>
   </g>
   <g id="patch_11">
    <path d="M 326.134 15.044063 
L 550.294 15.044063 
" style="fill:none;stroke:#262626;stroke-linecap:square;stroke-linejoin:miter;stroke-width:1.25;"/>
   </g>
   <g id="text_9">
    <!-- B-B -->
    <defs>
     <path d="M 7.328125 0 
L 7.328125 71.578125 
L 34.1875 71.578125 
Q 42.390625 71.578125 47.34375 69.40625 
Q 52.296875 67.234375 55.09375 62.71875 
Q 57.90625 58.203125 57.90625 53.265625 
Q 57.90625 48.6875 55.421875 44.625 
Q 52.9375 40.578125 47.90625 38.09375 
Q 54.390625 36.1875 57.875 31.59375 
Q 61.375 27 61.375 20.75 
Q 61.375 15.71875 59.25 11.390625 
Q 57.125 7.078125 54 4.734375 
Q 50.875 2.390625 46.15625 1.1875 
Q 41.453125 0 34.625 0 
z
M 16.796875 41.5 
L 32.28125 41.5 
Q 38.578125 41.5 41.3125 42.328125 
Q 44.921875 43.40625 46.75 45.890625 
Q 48.578125 48.390625 48.578125 52.15625 
Q 48.578125 55.71875 46.875 58.421875 
Q 45.171875 61.140625 41.984375 62.140625 
Q 38.8125 63.140625 31.109375 63.140625 
L 16.796875 63.140625 
z
M 16.796875 8.453125 
L 34.625 8.453125 
Q 39.203125 8.453125 41.0625 8.796875 
Q 44.34375 9.375 46.53125 10.734375 
Q 48.734375 12.109375 50.140625 14.71875 
Q 51.5625 17.328125 51.5625 20.75 
Q 51.5625 24.75 49.515625 27.703125 
Q 47.46875 30.671875 43.828125 31.859375 
Q 40.1875 33.0625 33.34375 33.0625 
L 16.796875 33.0625 
z
" id="ArialMT-42"/>
    </defs>
    <g style="fill:#262626;" transform="translate(370.966 218.084063)scale(0.18 -0.18)">
     <use xlink:href="#ArialMT-42"/>
     <use x="66.699219" xlink:href="#ArialMT-2d"/>
     <use x="100" xlink:href="#ArialMT-42"/>
    </g>
   </g>
  </g>
  <g id="axes_3">
   <g id="patch_12">
    <path d="M 53.814 512.964062 
L 277.974 512.964062 
L 277.974 287.364062 
L 53.814 287.364062 
z
" style="fill:#ffffff;"/>
   </g>
   <g id="matplotlib.axis_5">
    <g id="xtick_5">
     <g id="line2d_11">
      <g>
       <use style="fill:#262626;stroke:#262626;stroke-width:1.6;" x="53.814" xlink:href="#m64a32331ef" y="512.964062"/>
      </g>
     </g>
     <g id="text_10">
      <!-- 0.2 -->
      <g style="fill:#262626;" transform="translate(42.694 541.616562)scale(0.16 -0.16)">
       <use xlink:href="#ArialMT-30"/>
       <use x="55.615234" xlink:href="#ArialMT-2e"/>
       <use x="83.398438" xlink:href="#ArialMT-32"/>
      </g>
     </g>
    </g>
    <g id="xtick_6">
     <g id="line2d_12">
      <g>
       <use style="fill:#262626;stroke:#262626;stroke-width:1.6;" x="277.974" xlink:href="#m64a32331ef" y="512.964062"/>
      </g>
     </g>
     <g id="text_11">
      <!-- 1.4 -->
      <g style="fill:#262626;" transform="translate(266.854 541.616562)scale(0.16 -0.16)">
       <use xlink:href="#ArialMT-31"/>
       <use x="55.615234" xlink:href="#ArialMT-2e"/>
       <use x="83.398438" xlink:href="#ArialMT-34"/>
      </g>
     </g>
    </g>
    <g id="text_12">
     <!-- r (nm) -->
     <defs>
      <path id="ArialMT-20"/>
      <path d="M 6.59375 0 
L 6.59375 51.859375 
L 14.5 51.859375 
L 14.5 44.484375 
Q 20.21875 53.03125 31 53.03125 
Q 35.6875 53.03125 39.625 51.34375 
Q 43.5625 49.65625 45.515625 46.921875 
Q 47.46875 44.1875 48.25 40.4375 
Q 48.734375 37.984375 48.734375 31.890625 
L 48.734375 0 
L 39.9375 0 
L 39.9375 31.546875 
Q 39.9375 36.921875 38.90625 39.578125 
Q 37.890625 42.234375 35.28125 43.8125 
Q 32.671875 45.40625 29.15625 45.40625 
Q 23.53125 45.40625 19.453125 41.84375 
Q 15.375 38.28125 15.375 28.328125 
L 15.375 0 
z
" id="ArialMT-6e"/>
      <path d="M 6.59375 0 
L 6.59375 51.859375 
L 14.453125 51.859375 
L 14.453125 44.578125 
Q 16.890625 48.390625 20.9375 50.703125 
Q 25 53.03125 30.171875 53.03125 
Q 35.9375 53.03125 39.625 50.640625 
Q 43.3125 48.25 44.828125 43.953125 
Q 50.984375 53.03125 60.84375 53.03125 
Q 68.5625 53.03125 72.703125 48.75 
Q 76.859375 44.484375 76.859375 35.59375 
L 76.859375 0 
L 68.109375 0 
L 68.109375 32.671875 
Q 68.109375 37.9375 67.25 40.25 
Q 66.40625 42.578125 64.15625 43.984375 
Q 61.921875 45.40625 58.890625 45.40625 
Q 53.421875 45.40625 49.796875 41.765625 
Q 46.1875 38.140625 46.1875 30.125 
L 46.1875 0 
L 37.40625 0 
L 37.40625 33.6875 
Q 37.40625 39.546875 35.25 42.46875 
Q 33.109375 45.40625 28.21875 45.40625 
Q 24.515625 45.40625 21.359375 43.453125 
Q 18.21875 41.5 16.796875 37.734375 
Q 15.375 33.984375 15.375 26.90625 
L 15.375 0 
z
" id="ArialMT-6d"/>
     </defs>
     <g style="fill:#262626;" transform="translate(142.435125 561.608812)scale(0.176 -0.176)">
      <use xlink:href="#ArialMT-72"/>
      <use x="33.300781" xlink:href="#ArialMT-20"/>
      <use x="61.083984" xlink:href="#ArialMT-28"/>
      <use x="94.384766" xlink:href="#ArialMT-6e"/>
      <use x="150" xlink:href="#ArialMT-6d"/>
      <use x="233.300781" xlink:href="#ArialMT-29"/>
     </g>
    </g>
   </g>
   <g id="matplotlib.axis_6">
    <g id="ytick_3">
     <g id="line2d_13">
      <g>
       <use style="fill:#262626;stroke:#262626;stroke-width:1.6;" x="53.814" xlink:href="#m7a854c4d42" y="424.005868"/>
      </g>
     </g>
     <g id="text_13">
      <!-- 1 -->
      <g style="fill:#262626;" transform="translate(27.7165 429.732118)scale(0.16 -0.16)">
       <use xlink:href="#ArialMT-31"/>
      </g>
     </g>
    </g>
    <g id="text_14">
     <!-- g(r) -->
     <g style="fill:#262626;" transform="translate(20.01225 413.848063)rotate(-90)scale(0.176 -0.176)">
      <use xlink:href="#ArialMT-67"/>
      <use x="55.615234" xlink:href="#ArialMT-28"/>
      <use x="88.916016" xlink:href="#ArialMT-72"/>
      <use x="122.216797" xlink:href="#ArialMT-29"/>
     </g>
    </g>
   </g>
   <g id="line2d_14">
    <path clip-path="url(#p1a96f2abc8)" d="M 79.966 515.78896 
L 80.3396 515.523972 
L 81.4604 514.154236 
L 82.2076 513.190064 
L 83.3284 510.751749 
L 84.0756 508.600645 
L 85.1964 504.868155 
L 85.9436 501.32366 
L 86.3172 499.935898 
L 87.438 493.937199 
L 88.9324 484.143021 
L 90.4268 471.444636 
L 90.8004 468.685165 
L 91.9212 457.107905 
L 93.7892 437.441726 
L 94.5364 428.520844 
L 94.91 424.833695 
L 95.6572 415.137278 
L 97.5252 391.410127 
L 99.3932 368.325945 
L 99.7668 364.708947 
L 100.8876 350.6537 
L 101.2612 348.30707 
L 102.382 334.908915 
L 102.7556 332.922983 
L 103.1292 328.011674 
L 103.5028 325.885699 
L 105.3708 311.35908 
L 105.7444 311.813145 
L 106.4916 307.178007 
L 106.8652 306.028287 
L 107.2388 306.028708 
L 107.6124 303.045673 
L 107.986 303.843491 
L 108.3596 302.484149 
L 108.7332 301.913843 
L 109.1068 301.612492 
L 109.4804 303.719253 
L 109.854 301.953387 
L 110.2276 303.694378 
L 110.9748 304.098314 
L 111.3484 306.46379 
L 111.722 305.561714 
L 112.4692 309.439274 
L 112.8428 309.908737 
L 113.2164 311.124859 
L 113.59 313.776352 
L 113.9636 314.369094 
L 114.3372 317.554472 
L 114.7108 318.471202 
L 116.2052 328.484755 
L 116.5788 329.995413 
L 116.9524 332.426753 
L 117.326 333.542144 
L 118.4468 341.769029 
L 118.8204 346.005433 
L 119.194 345.676544 
L 119.5676 350.153968 
L 122.5564 369.249226 
L 122.93 372.28439 
L 123.3036 373.571835 
L 123.6772 376.098836 
L 124.0508 377.686418 
L 124.798 383.730254 
L 125.1716 384.476637 
L 125.9188 389.135588 
L 126.2924 390.558869 
L 127.7868 398.959274 
L 128.1604 400.631927 
L 128.534 403.310899 
L 128.9076 404.24392 
L 129.2812 405.543613 
L 130.0284 409.382143 
L 131.5228 415.855536 
L 131.8964 416.38163 
L 132.27 418.25075 
L 132.6436 419.243946 
L 133.0172 420.700048 
L 133.3908 421.277124 
L 134.8852 426.309118 
L 135.2588 426.202189 
L 136.006 428.33183 
L 136.3796 428.707693 
L 136.7532 430.406653 
L 137.1268 430.616863 
L 137.5004 431.52672 
L 137.874 432.985085 
L 138.2476 433.265803 
L 138.6212 432.945397 
L 138.9948 434.937588 
L 139.3684 434.974991 
L 139.742 435.455405 
L 140.1156 435.19611 
L 140.4892 436.875628 
L 140.8628 436.800416 
L 141.2364 437.652203 
L 141.9836 438.432832 
L 142.3572 438.46061 
L 142.7308 439.470444 
L 143.1044 439.565123 
L 143.478 439.787514 
L 143.8516 440.299298 
L 144.2252 441.051473 
L 144.5988 440.97 
L 144.9724 441.947515 
L 145.346 441.086336 
L 145.7196 441.734893 
L 146.0932 442.151581 
L 146.4668 442.378315 
L 147.214 442.023207 
L 147.5876 442.728919 
L 147.9612 442.532057 
L 149.082 442.974515 
L 149.4556 443.268623 
L 149.8292 442.763995 
L 150.2028 442.499274 
L 150.5764 443.516291 
L 150.95 442.958476 
L 151.3236 443.344713 
L 151.6972 443.40286 
L 152.0708 443.242964 
L 152.4444 443.260421 
L 152.818 443.047441 
L 153.1916 443.350577 
L 153.5652 443.247021 
L 153.9388 442.747374 
L 154.3124 442.54514 
L 154.686 443.069044 
L 155.0596 442.423512 
L 155.4332 442.589998 
L 156.1804 442.467579 
L 156.554 442.61516 
L 156.9276 441.480863 
L 157.3012 441.815901 
L 157.6748 441.353693 
L 158.0484 440.635768 
L 158.422 441.592923 
L 158.7956 440.855424 
L 159.1692 440.795573 
L 159.5428 440.957659 
L 159.9164 440.734036 
L 160.29 439.984772 
L 160.6636 439.574568 
L 161.4108 439.350026 
L 161.7844 438.634412 
L 162.158 438.862203 
L 162.5316 438.296381 
L 163.2788 438.083096 
L 163.6524 437.45186 
L 164.026 437.446687 
L 164.3996 437.168442 
L 165.1468 436.355373 
L 165.5204 435.617637 
L 166.2676 435.820941 
L 166.6412 434.531828 
L 167.0148 434.855558 
L 168.5092 433.109184 
L 168.8828 432.98463 
L 169.2564 432.5156 
L 169.63 432.354537 
L 170.0036 431.886324 
L 170.3772 431.750197 
L 170.7508 431.059203 
L 171.1244 431.18515 
L 171.498 430.437223 
L 171.8716 430.142761 
L 172.6188 429.087093 
L 172.9924 428.564454 
L 173.366 429.054823 
L 174.1132 428.134392 
L 174.4868 427.478938 
L 174.8604 427.229966 
L 175.234 427.366047 
L 175.9812 426.631942 
L 176.3548 425.782211 
L 176.7284 425.903666 
L 177.102 425.200975 
L 177.4756 425.011583 
L 178.2228 424.327333 
L 178.5964 424.324081 
L 178.97 423.471656 
L 179.3436 423.648554 
L 180.0908 422.693964 
L 180.4644 422.795656 
L 180.838 422.545463 
L 181.2116 421.798015 
L 181.5852 421.855473 
L 181.9588 421.431867 
L 182.3324 420.615297 
L 182.706 421.004477 
L 183.0796 419.884391 
L 183.4532 419.826044 
L 183.8268 419.932197 
L 184.574 419.68927 
L 184.9476 419.657931 
L 185.6948 418.855824 
L 186.0684 419.178386 
L 186.442 419.029551 
L 186.8156 418.580645 
L 187.1892 417.660186 
L 187.5628 418.486245 
L 187.9364 417.77372 
L 188.31 417.893777 
L 188.6836 417.268191 
L 189.0572 417.642719 
L 189.4308 416.710779 
L 189.8044 417.135329 
L 190.178 416.900046 
L 190.5516 416.903031 
L 190.9252 416.662059 
L 191.2988 416.949953 
L 191.6724 416.736019 
L 192.046 416.654559 
L 192.4196 417.008595 
L 192.7932 416.612934 
L 193.1668 416.787102 
L 193.5404 416.429991 
L 194.2876 416.635551 
L 194.6612 417.076456 
L 195.0348 416.9495 
L 195.4084 416.337197 
L 195.782 417.01412 
L 197.2764 416.846351 
L 197.65 417.669649 
L 198.0236 417.416134 
L 198.3972 418.289048 
L 198.7708 417.449196 
L 199.1444 418.036105 
L 199.518 418.263771 
L 199.8916 418.169651 
L 200.2652 418.572499 
L 200.6388 418.438921 
L 201.0124 418.978657 
L 201.386 418.565298 
L 202.1332 418.675343 
L 202.5068 419.292098 
L 202.8804 419.288481 
L 203.254 419.451694 
L 203.6276 419.419413 
L 204.0012 419.98096 
L 204.3748 420.199521 
L 204.7484 420.036586 
L 205.122 420.414824 
L 205.8692 420.56876 
L 206.2428 421.187889 
L 206.6164 421.343193 
L 206.99 421.197078 
L 207.3636 421.595427 
L 208.1108 421.625771 
L 208.4844 421.985211 
L 208.858 422.655555 
L 209.2316 422.656277 
L 209.9788 422.857836 
L 210.3524 423.248855 
L 210.726 422.819627 
L 211.0996 423.127015 
L 211.4732 423.798898 
L 211.8468 423.989886 
L 212.2204 423.872375 
L 212.594 424.561328 
L 212.9676 424.308542 
L 213.3412 424.48573 
L 213.7148 424.526951 
L 214.462 425.001248 
L 214.8356 424.922181 
L 215.2092 425.520735 
L 215.5828 425.514902 
L 215.9564 425.081651 
L 217.0772 426.183323 
L 217.4508 425.861179 
L 217.8244 426.418751 
L 218.5716 426.12109 
L 218.9452 426.492103 
L 219.3188 426.187459 
L 219.6924 426.807082 
L 220.066 426.436015 
L 220.4396 426.518582 
L 220.8132 427.001022 
L 221.1868 426.661674 
L 221.5604 427.080293 
L 221.934 427.085313 
L 222.3076 427.213793 
L 222.6812 427.064195 
L 223.4284 427.243077 
L 223.802 427.619472 
L 224.5492 426.883498 
L 224.9228 427.053949 
L 225.2964 427.0559 
L 225.67 427.286031 
L 226.0436 426.912859 
L 226.4172 427.156281 
L 226.7908 426.933223 
L 227.1644 426.945215 
L 227.538 427.362553 
L 227.9116 426.941104 
L 229.0324 427.03821 
L 230.1532 426.419728 
L 230.5268 426.704515 
L 230.9004 426.438454 
L 231.274 426.392732 
L 231.6476 426.510461 
L 232.0212 425.968474 
L 232.3948 425.903423 
L 232.7684 426.08294 
L 233.142 425.621177 
L 233.5156 426.007771 
L 233.8892 425.838678 
L 234.2628 425.543606 
L 235.3836 425.204343 
L 235.7572 425.299716 
L 236.1308 425.223712 
L 236.5044 424.901304 
L 237.2516 425.296497 
L 237.6252 424.918894 
L 237.9988 424.854996 
L 238.3724 424.571738 
L 239.1196 424.514099 
L 239.4932 424.766665 
L 239.8668 425.154916 
L 240.2404 424.625508 
L 240.9876 424.311623 
L 241.3612 424.544228 
L 241.7348 424.342654 
L 242.482 424.563314 
L 242.8556 424.409365 
L 243.2292 424.423516 
L 243.6028 424.707609 
L 243.9764 424.258763 
L 245.0972 424.628494 
L 245.4708 424.423014 
L 245.8444 424.757265 
L 246.9652 424.603299 
L 247.3388 424.721514 
L 247.7124 424.41147 
L 248.086 424.785488 
L 248.8332 425.021085 
L 249.2068 424.880716 
L 249.954 424.422394 
L 250.3276 424.996327 
L 250.7012 424.48453 
L 251.4484 424.888437 
L 251.822 424.671066 
L 252.1956 424.947867 
L 252.5692 424.832457 
L 252.9428 424.989843 
L 253.69 424.763905 
L 254.0636 424.734238 
L 254.4372 424.938768 
L 255.558 424.857283 
L 255.9316 424.499704 
L 256.3052 425.010727 
L 257.0524 424.65131 
L 257.426 424.790611 
L 257.7996 424.516781 
L 258.1732 424.985292 
L 258.9204 424.40774 
L 259.294 424.530258 
L 259.294 424.530258 
" style="fill:none;stroke:#a6cee3;stroke-linecap:round;stroke-width:2.8;"/>
   </g>
   <g id="line2d_15">
    <g clip-path="url(#p1a96f2abc8)">
     <use style="fill:#1f78b4;" x="79.966" xlink:href="#m4e9bca7d03" y="515.309009"/>
     <use style="fill:#1f78b4;" x="81.834" xlink:href="#m4e9bca7d03" y="513.566036"/>
     <use style="fill:#1f78b4;" x="83.702" xlink:href="#m4e9bca7d03" y="509.974732"/>
     <use style="fill:#1f78b4;" x="85.57" xlink:href="#m4e9bca7d03" y="503.003109"/>
     <use style="fill:#1f78b4;" x="87.438" xlink:href="#m4e9bca7d03" y="494.146984"/>
     <use style="fill:#1f78b4;" x="89.306" xlink:href="#m4e9bca7d03" y="479.759068"/>
     <use style="fill:#1f78b4;" x="91.174" xlink:href="#m4e9bca7d03" y="464.018371"/>
     <use style="fill:#1f78b4;" x="93.042" xlink:href="#m4e9bca7d03" y="446.384288"/>
     <use style="fill:#1f78b4;" x="94.91" xlink:href="#m4e9bca7d03" y="423.869483"/>
     <use style="fill:#1f78b4;" x="96.778" xlink:href="#m4e9bca7d03" y="402.084496"/>
     <use style="fill:#1f78b4;" x="98.646" xlink:href="#m4e9bca7d03" y="376.730547"/>
     <use style="fill:#1f78b4;" x="100.514" xlink:href="#m4e9bca7d03" y="350.944347"/>
     <use style="fill:#1f78b4;" x="102.382" xlink:href="#m4e9bca7d03" y="332.463113"/>
     <use style="fill:#1f78b4;" x="104.25" xlink:href="#m4e9bca7d03" y="318.134982"/>
     <use style="fill:#1f78b4;" x="106.118" xlink:href="#m4e9bca7d03" y="308.080648"/>
     <use style="fill:#1f78b4;" x="107.986" xlink:href="#m4e9bca7d03" y="300.411413"/>
     <use style="fill:#1f78b4;" x="109.854" xlink:href="#m4e9bca7d03" y="302.119285"/>
     <use style="fill:#1f78b4;" x="111.722" xlink:href="#m4e9bca7d03" y="302.303514"/>
     <use style="fill:#1f78b4;" x="113.59" xlink:href="#m4e9bca7d03" y="313.653533"/>
     <use style="fill:#1f78b4;" x="115.458" xlink:href="#m4e9bca7d03" y="323.202302"/>
     <use style="fill:#1f78b4;" x="117.326" xlink:href="#m4e9bca7d03" y="333.820842"/>
     <use style="fill:#1f78b4;" x="119.194" xlink:href="#m4e9bca7d03" y="345.946162"/>
     <use style="fill:#1f78b4;" x="121.062" xlink:href="#m4e9bca7d03" y="356.132878"/>
     <use style="fill:#1f78b4;" x="122.93" xlink:href="#m4e9bca7d03" y="371.296287"/>
     <use style="fill:#1f78b4;" x="124.798" xlink:href="#m4e9bca7d03" y="383.390753"/>
     <use style="fill:#1f78b4;" x="126.666" xlink:href="#m4e9bca7d03" y="390.239309"/>
     <use style="fill:#1f78b4;" x="128.534" xlink:href="#m4e9bca7d03" y="402.105484"/>
     <use style="fill:#1f78b4;" x="130.402" xlink:href="#m4e9bca7d03" y="411.402445"/>
     <use style="fill:#1f78b4;" x="132.27" xlink:href="#m4e9bca7d03" y="416.214691"/>
     <use style="fill:#1f78b4;" x="134.138" xlink:href="#m4e9bca7d03" y="421.566957"/>
     <use style="fill:#1f78b4;" x="136.006" xlink:href="#m4e9bca7d03" y="428.061546"/>
     <use style="fill:#1f78b4;" x="137.874" xlink:href="#m4e9bca7d03" y="433.73823"/>
     <use style="fill:#1f78b4;" x="139.742" xlink:href="#m4e9bca7d03" y="435.163849"/>
     <use style="fill:#1f78b4;" x="141.61" xlink:href="#m4e9bca7d03" y="437.908548"/>
     <use style="fill:#1f78b4;" x="143.478" xlink:href="#m4e9bca7d03" y="440.189782"/>
     <use style="fill:#1f78b4;" x="145.346" xlink:href="#m4e9bca7d03" y="440.977287"/>
     <use style="fill:#1f78b4;" x="147.214" xlink:href="#m4e9bca7d03" y="441.613888"/>
     <use style="fill:#1f78b4;" x="149.082" xlink:href="#m4e9bca7d03" y="443.28501"/>
     <use style="fill:#1f78b4;" x="150.95" xlink:href="#m4e9bca7d03" y="443.475738"/>
     <use style="fill:#1f78b4;" x="152.818" xlink:href="#m4e9bca7d03" y="443.253068"/>
     <use style="fill:#1f78b4;" x="154.686" xlink:href="#m4e9bca7d03" y="442.452739"/>
     <use style="fill:#1f78b4;" x="156.554" xlink:href="#m4e9bca7d03" y="442.532958"/>
     <use style="fill:#1f78b4;" x="158.422" xlink:href="#m4e9bca7d03" y="441.367449"/>
     <use style="fill:#1f78b4;" x="160.29" xlink:href="#m4e9bca7d03" y="440.706645"/>
     <use style="fill:#1f78b4;" x="162.158" xlink:href="#m4e9bca7d03" y="439.97581"/>
     <use style="fill:#1f78b4;" x="164.026" xlink:href="#m4e9bca7d03" y="437.726361"/>
     <use style="fill:#1f78b4;" x="165.894" xlink:href="#m4e9bca7d03" y="435.076844"/>
     <use style="fill:#1f78b4;" x="167.762" xlink:href="#m4e9bca7d03" y="434.599416"/>
     <use style="fill:#1f78b4;" x="169.63" xlink:href="#m4e9bca7d03" y="432.249128"/>
     <use style="fill:#1f78b4;" x="171.498" xlink:href="#m4e9bca7d03" y="431.44342"/>
     <use style="fill:#1f78b4;" x="173.366" xlink:href="#m4e9bca7d03" y="429.532251"/>
     <use style="fill:#1f78b4;" x="175.234" xlink:href="#m4e9bca7d03" y="427.768006"/>
     <use style="fill:#1f78b4;" x="177.102" xlink:href="#m4e9bca7d03" y="426.204144"/>
     <use style="fill:#1f78b4;" x="178.97" xlink:href="#m4e9bca7d03" y="424.33218"/>
     <use style="fill:#1f78b4;" x="180.838" xlink:href="#m4e9bca7d03" y="422.348651"/>
     <use style="fill:#1f78b4;" x="182.706" xlink:href="#m4e9bca7d03" y="421.585822"/>
     <use style="fill:#1f78b4;" x="184.574" xlink:href="#m4e9bca7d03" y="419.496058"/>
     <use style="fill:#1f78b4;" x="186.442" xlink:href="#m4e9bca7d03" y="419.582729"/>
     <use style="fill:#1f78b4;" x="188.31" xlink:href="#m4e9bca7d03" y="417.100187"/>
     <use style="fill:#1f78b4;" x="190.178" xlink:href="#m4e9bca7d03" y="418.613611"/>
     <use style="fill:#1f78b4;" x="192.046" xlink:href="#m4e9bca7d03" y="416.071171"/>
     <use style="fill:#1f78b4;" x="193.914" xlink:href="#m4e9bca7d03" y="417.303272"/>
     <use style="fill:#1f78b4;" x="195.782" xlink:href="#m4e9bca7d03" y="416.378091"/>
     <use style="fill:#1f78b4;" x="197.65" xlink:href="#m4e9bca7d03" y="417.355601"/>
     <use style="fill:#1f78b4;" x="199.518" xlink:href="#m4e9bca7d03" y="418.081021"/>
     <use style="fill:#1f78b4;" x="201.386" xlink:href="#m4e9bca7d03" y="420.062981"/>
     <use style="fill:#1f78b4;" x="203.254" xlink:href="#m4e9bca7d03" y="419.343757"/>
     <use style="fill:#1f78b4;" x="205.122" xlink:href="#m4e9bca7d03" y="420.515307"/>
     <use style="fill:#1f78b4;" x="206.99" xlink:href="#m4e9bca7d03" y="422.122257"/>
     <use style="fill:#1f78b4;" x="208.858" xlink:href="#m4e9bca7d03" y="423.048773"/>
     <use style="fill:#1f78b4;" x="210.726" xlink:href="#m4e9bca7d03" y="423.258097"/>
     <use style="fill:#1f78b4;" x="212.594" xlink:href="#m4e9bca7d03" y="425.517893"/>
     <use style="fill:#1f78b4;" x="214.462" xlink:href="#m4e9bca7d03" y="426.440062"/>
     <use style="fill:#1f78b4;" x="216.33" xlink:href="#m4e9bca7d03" y="426.183026"/>
     <use style="fill:#1f78b4;" x="218.198" xlink:href="#m4e9bca7d03" y="426.080813"/>
     <use style="fill:#1f78b4;" x="220.066" xlink:href="#m4e9bca7d03" y="425.943157"/>
     <use style="fill:#1f78b4;" x="221.934" xlink:href="#m4e9bca7d03" y="426.859391"/>
     <use style="fill:#1f78b4;" x="223.802" xlink:href="#m4e9bca7d03" y="428.443964"/>
     <use style="fill:#1f78b4;" x="225.67" xlink:href="#m4e9bca7d03" y="428.203375"/>
     <use style="fill:#1f78b4;" x="227.538" xlink:href="#m4e9bca7d03" y="428.160847"/>
     <use style="fill:#1f78b4;" x="229.406" xlink:href="#m4e9bca7d03" y="427.43716"/>
     <use style="fill:#1f78b4;" x="231.274" xlink:href="#m4e9bca7d03" y="426.609069"/>
     <use style="fill:#1f78b4;" x="233.142" xlink:href="#m4e9bca7d03" y="425.931238"/>
     <use style="fill:#1f78b4;" x="235.01" xlink:href="#m4e9bca7d03" y="425.031241"/>
     <use style="fill:#1f78b4;" x="236.878" xlink:href="#m4e9bca7d03" y="425.49031"/>
     <use style="fill:#1f78b4;" x="238.746" xlink:href="#m4e9bca7d03" y="424.186183"/>
     <use style="fill:#1f78b4;" x="240.614" xlink:href="#m4e9bca7d03" y="424.617297"/>
     <use style="fill:#1f78b4;" x="242.482" xlink:href="#m4e9bca7d03" y="425.742651"/>
     <use style="fill:#1f78b4;" x="244.35" xlink:href="#m4e9bca7d03" y="425.023174"/>
     <use style="fill:#1f78b4;" x="246.218" xlink:href="#m4e9bca7d03" y="425.090948"/>
     <use style="fill:#1f78b4;" x="248.086" xlink:href="#m4e9bca7d03" y="425.096553"/>
     <use style="fill:#1f78b4;" x="249.954" xlink:href="#m4e9bca7d03" y="425.333417"/>
     <use style="fill:#1f78b4;" x="251.822" xlink:href="#m4e9bca7d03" y="424.90227"/>
     <use style="fill:#1f78b4;" x="253.69" xlink:href="#m4e9bca7d03" y="425.005304"/>
     <use style="fill:#1f78b4;" x="255.558" xlink:href="#m4e9bca7d03" y="424.953206"/>
     <use style="fill:#1f78b4;" x="257.426" xlink:href="#m4e9bca7d03" y="425.008013"/>
     <use style="fill:#1f78b4;" x="259.294" xlink:href="#m4e9bca7d03" y="425.796281"/>
    </g>
   </g>
   <g id="patch_13">
    <path d="M 53.814 512.964062 
L 53.814 287.364062 
" style="fill:none;stroke:#262626;stroke-linecap:square;stroke-linejoin:miter;stroke-width:1.25;"/>
   </g>
   <g id="patch_14">
    <path d="M 277.974 512.964062 
L 277.974 287.364062 
" style="fill:none;stroke:#262626;stroke-linecap:square;stroke-linejoin:miter;stroke-width:1.25;"/>
   </g>
   <g id="patch_15">
    <path d="M 53.814 512.964062 
L 277.974 512.964062 
" style="fill:none;stroke:#262626;stroke-linecap:square;stroke-linejoin:miter;stroke-width:1.25;"/>
   </g>
   <g id="patch_16">
    <path d="M 53.814 287.364062 
L 277.974 287.364062 
" style="fill:none;stroke:#262626;stroke-linecap:square;stroke-linejoin:miter;stroke-width:1.25;"/>
   </g>
   <g id="text_15">
    <!-- D-D -->
    <defs>
     <path d="M 7.71875 0 
L 7.71875 71.578125 
L 32.375 71.578125 
Q 40.71875 71.578125 45.125 70.5625 
Q 51.265625 69.140625 55.609375 65.4375 
Q 61.28125 60.640625 64.078125 53.1875 
Q 66.890625 45.75 66.890625 36.1875 
Q 66.890625 28.03125 64.984375 21.734375 
Q 63.09375 15.4375 60.109375 11.296875 
Q 57.125 7.171875 53.578125 4.796875 
Q 50.046875 2.4375 45.046875 1.21875 
Q 40.046875 0 33.546875 0 
z
M 17.1875 8.453125 
L 32.46875 8.453125 
Q 39.546875 8.453125 43.578125 9.765625 
Q 47.609375 11.078125 50 13.484375 
Q 53.375 16.84375 55.25 22.53125 
Q 57.125 28.21875 57.125 36.328125 
Q 57.125 47.5625 53.4375 53.59375 
Q 49.75 59.625 44.484375 61.671875 
Q 40.671875 63.140625 32.234375 63.140625 
L 17.1875 63.140625 
z
" id="ArialMT-44"/>
    </defs>
    <g style="fill:#262626;" transform="translate(98.646 490.404063)scale(0.18 -0.18)">
     <use xlink:href="#ArialMT-44"/>
     <use x="72.216797" xlink:href="#ArialMT-2d"/>
     <use x="105.517578" xlink:href="#ArialMT-44"/>
    </g>
   </g>
  </g>
  <g id="axes_4">
   <g id="patch_17">
    <path d="M 326.134 512.964062 
L 550.294 512.964062 
L 550.294 287.364062 
L 326.134 287.364062 
z
" style="fill:#ffffff;"/>
   </g>
   <g id="matplotlib.axis_7">
    <g id="xtick_7">
     <g id="line2d_16">
      <g>
       <use style="fill:#262626;stroke:#262626;stroke-width:1.6;" x="326.134" xlink:href="#m64a32331ef" y="512.964062"/>
      </g>
     </g>
     <g id="text_16">
      <!-- 0.2 -->
      <g style="fill:#262626;" transform="translate(315.014 541.616562)scale(0.16 -0.16)">
       <use xlink:href="#ArialMT-30"/>
       <use x="55.615234" xlink:href="#ArialMT-2e"/>
       <use x="83.398438" xlink:href="#ArialMT-32"/>
      </g>
     </g>
    </g>
    <g id="xtick_8">
     <g id="line2d_17">
      <g>
       <use style="fill:#262626;stroke:#262626;stroke-width:1.6;" x="550.294" xlink:href="#m64a32331ef" y="512.964062"/>
      </g>
     </g>
     <g id="text_17">
      <!-- 0.9 -->
      <defs>
       <path d="M 5.46875 16.546875 
L 13.921875 17.328125 
Q 14.984375 11.375 18.015625 8.6875 
Q 21.046875 6 25.78125 6 
Q 29.828125 6 32.875 7.859375 
Q 35.9375 9.71875 37.890625 12.8125 
Q 39.84375 15.921875 41.15625 21.1875 
Q 42.484375 26.46875 42.484375 31.9375 
Q 42.484375 32.515625 42.4375 33.6875 
Q 39.796875 29.5 35.234375 26.875 
Q 30.671875 24.265625 25.34375 24.265625 
Q 16.453125 24.265625 10.296875 30.703125 
Q 4.15625 37.15625 4.15625 47.703125 
Q 4.15625 58.59375 10.578125 65.234375 
Q 17 71.875 26.65625 71.875 
Q 33.640625 71.875 39.421875 68.109375 
Q 45.21875 64.359375 48.21875 57.390625 
Q 51.21875 50.4375 51.21875 37.25 
Q 51.21875 23.53125 48.234375 15.40625 
Q 45.265625 7.28125 39.375 3.03125 
Q 33.5 -1.21875 25.59375 -1.21875 
Q 17.1875 -1.21875 11.859375 3.4375 
Q 6.546875 8.109375 5.46875 16.546875 
M 41.453125 48.140625 
Q 41.453125 55.71875 37.421875 60.15625 
Q 33.40625 64.59375 27.734375 64.59375 
Q 21.875 64.59375 17.53125 59.8125 
Q 13.1875 55.03125 13.1875 47.40625 
Q 13.1875 40.578125 17.3125 36.296875 
Q 21.4375 32.03125 27.484375 32.03125 
Q 33.59375 32.03125 37.515625 36.296875 
Q 41.453125 40.578125 41.453125 48.140625 
" id="ArialMT-39"/>
      </defs>
      <g style="fill:#262626;" transform="translate(539.174 541.616562)scale(0.16 -0.16)">
       <use xlink:href="#ArialMT-30"/>
       <use x="55.615234" xlink:href="#ArialMT-2e"/>
       <use x="83.398438" xlink:href="#ArialMT-39"/>
      </g>
     </g>
    </g>
    <g id="text_18">
     <!-- r (nm) -->
     <g style="fill:#262626;" transform="translate(414.755125 561.608812)scale(0.176 -0.176)">
      <use xlink:href="#ArialMT-72"/>
      <use x="33.300781" xlink:href="#ArialMT-20"/>
      <use x="61.083984" xlink:href="#ArialMT-28"/>
      <use x="94.384766" xlink:href="#ArialMT-6e"/>
      <use x="150" xlink:href="#ArialMT-6d"/>
      <use x="233.300781" xlink:href="#ArialMT-29"/>
     </g>
    </g>
   </g>
   <g id="matplotlib.axis_8">
    <g id="ytick_4">
     <g id="line2d_18">
      <g>
       <use style="fill:#262626;stroke:#262626;stroke-width:1.6;" x="326.134" xlink:href="#m7a854c4d42" y="447.370307"/>
      </g>
     </g>
     <g id="text_19">
      <!-- 1 -->
      <g style="fill:#262626;" transform="translate(300.0365 453.096557)scale(0.16 -0.16)">
       <use xlink:href="#ArialMT-31"/>
      </g>
     </g>
    </g>
   </g>
   <g id="line2d_19">
    <path clip-path="url(#p2febb2ca45)" d="M 326.134 516.416365 
L 339.5836 516.378332 
L 340.224057 516.253553 
L 340.864514 515.854048 
L 341.504971 514.775289 
L 342.145429 512.376745 
L 342.785886 507.641257 
L 343.426343 499.051933 
L 344.0668 486.19316 
L 344.707257 467.478722 
L 345.988171 418.555233 
L 347.909543 340.049993 
L 348.55 320.102762 
L 349.190457 306.862301 
L 349.830914 299.863225 
L 350.471371 298.271315 
L 351.111829 302.796587 
L 351.752286 309.148242 
L 352.392743 319.750628 
L 354.954571 371.637258 
L 356.875943 404.950918 
L 358.156857 422.027604 
L 359.437771 434.406274 
L 360.078229 439.672417 
L 361.359143 447.65 
L 362.640057 452.844742 
L 364.561429 457.848345 
L 365.201886 458.601483 
L 365.842343 459.661173 
L 366.4828 460.074032 
L 367.123257 460.715712 
L 367.763714 460.574098 
L 368.404171 460.978425 
L 369.044629 460.96816 
L 369.685086 460.641282 
L 370.325543 460.771173 
L 370.966 460.520443 
L 371.606457 460.495895 
L 372.246914 460.310128 
L 373.527829 459.547566 
L 374.168286 459.382468 
L 375.4492 458.672073 
L 376.730114 457.847539 
L 377.370571 457.775297 
L 378.651486 456.705372 
L 379.291943 456.495839 
L 380.572857 455.500574 
L 381.213314 455.256937 
L 381.853771 454.66045 
L 382.494229 454.382343 
L 383.134686 453.795728 
L 385.056057 452.615837 
L 385.696514 451.779515 
L 386.336971 451.656432 
L 386.977429 451.30713 
L 388.258343 449.975433 
L 388.8988 449.727926 
L 389.539257 449.271047 
L 390.179714 448.527572 
L 391.460629 447.883681 
L 392.101086 447.174419 
L 392.741543 446.781154 
L 393.382 446.638818 
L 394.022457 445.834515 
L 394.662914 445.63762 
L 395.303371 445.046387 
L 397.224743 443.825249 
L 397.8652 443.158203 
L 398.505657 443.091673 
L 399.146114 442.610089 
L 399.786571 442.285619 
L 400.427029 441.73912 
L 401.067486 441.472767 
L 401.707943 441.332905 
L 402.988857 440.922206 
L 403.629314 440.834919 
L 404.269771 440.29718 
L 405.550686 440.375776 
L 407.472057 439.779635 
L 408.112514 439.918192 
L 408.752971 439.82247 
L 409.393429 439.980621 
L 410.033886 440.277275 
L 410.674343 440.072393 
L 411.3148 440.13519 
L 412.595714 440.63112 
L 413.236171 440.56308 
L 413.876629 440.718638 
L 414.517086 441.176466 
L 415.157543 441.470613 
L 415.798 441.433967 
L 416.438457 441.765894 
L 417.719371 442.289021 
L 418.359829 442.733256 
L 419.000286 443.018625 
L 419.640743 443.458395 
L 420.2812 443.601561 
L 420.921657 444.11533 
L 422.843029 444.928821 
L 423.483486 445.598819 
L 424.123943 445.709995 
L 424.7644 446.173257 
L 425.404857 446.472698 
L 426.045314 446.923814 
L 426.685771 447.180035 
L 427.966686 447.990011 
L 428.607143 448.109132 
L 429.888057 449.065536 
L 431.168971 449.625693 
L 431.809429 449.864067 
L 432.449886 450.525144 
L 433.7308 451.100768 
L 435.011714 451.642726 
L 435.652171 451.848463 
L 436.292629 452.241095 
L 436.933086 452.339711 
L 437.573543 452.873736 
L 438.854457 453.147622 
L 439.494914 453.243569 
L 440.775829 453.58248 
L 442.056743 453.779614 
L 442.6972 454.006249 
L 445.259029 453.822773 
L 445.899486 453.780222 
L 446.539943 453.537371 
L 449.101771 453.229289 
L 449.742229 452.84547 
L 450.382686 452.755962 
L 451.6636 452.038694 
L 452.304057 452.042798 
L 458.068171 449.773251 
L 459.349086 449.232915 
L 459.989543 449.121008 
L 461.270457 448.429735 
L 461.910914 448.531372 
L 462.551371 448.192387 
L 463.191829 448.002272 
L 463.832286 447.632931 
L 464.472743 447.724936 
L 465.753657 447.053095 
L 466.394114 446.933092 
L 467.034571 446.522293 
L 467.675029 446.482331 
L 468.955943 446.097942 
L 469.5964 445.99185 
L 470.236857 445.74693 
L 470.877314 445.75153 
L 471.517771 445.52855 
L 472.158229 445.477816 
L 472.798686 445.226658 
L 474.720057 445.077146 
L 476.000971 444.726063 
L 476.641429 444.791853 
L 477.922343 444.555062 
L 478.5628 444.663278 
L 479.203257 444.623324 
L 479.843714 444.418716 
L 480.484171 444.46986 
L 481.765086 444.248066 
L 482.405543 444.556195 
L 484.326914 444.356051 
L 486.888743 444.741458 
L 488.169657 444.64286 
L 488.810114 444.783562 
L 489.450571 444.704448 
L 491.371943 445.119066 
L 494.574229 445.650604 
L 495.214686 445.864868 
L 497.136057 446.052512 
L 498.416971 446.302981 
L 499.057429 446.311616 
L 499.697886 446.503979 
L 500.9788 446.749996 
L 502.259714 447.091404 
L 505.462 447.358022 
L 506.102457 447.60526 
L 506.742914 447.552081 
L 511.866571 448.152492 
L 513.787943 448.10169 
L 514.4284 448.276642 
L 515.709314 448.252075 
L 518.9116 448.362809 
L 519.552057 448.314913 
L 521.473429 448.456781 
L 524.675714 448.240223 
L 525.316171 448.273917 
L 525.956629 448.00695 
L 526.597086 448.134757 
L 530.439829 448.052352 
L 531.080286 447.830577 
L 531.720743 447.755907 
L 532.3612 447.827708 
L 534.923029 447.676701 
L 535.563486 447.747686 
L 538.125314 447.467805 
L 538.765771 447.566616 
L 544.529886 447.323974 
L 545.8108 447.342786 
L 547.091714 447.29297 
L 549.013086 447.351489 
L 549.653543 447.246054 
L 550.294 447.309061 
L 550.294 447.309061 
" style="fill:none;stroke:#a6cee3;stroke-linecap:round;stroke-width:2.8;"/>
   </g>
   <g id="line2d_20">
    <g clip-path="url(#p2febb2ca45)">
     <use style="fill:#1f78b4;" x="326.134" xlink:href="#m4e9bca7d03" y="516.416365"/>
     <use style="fill:#1f78b4;" x="329.336286" xlink:href="#m4e9bca7d03" y="516.416365"/>
     <use style="fill:#1f78b4;" x="332.538571" xlink:href="#m4e9bca7d03" y="516.416365"/>
     <use style="fill:#1f78b4;" x="335.740857" xlink:href="#m4e9bca7d03" y="516.416365"/>
     <use style="fill:#1f78b4;" x="338.943143" xlink:href="#m4e9bca7d03" y="516.416365"/>
     <use style="fill:#1f78b4;" x="342.145429" xlink:href="#m4e9bca7d03" y="512.573257"/>
     <use style="fill:#1f78b4;" x="345.347714" xlink:href="#m4e9bca7d03" y="444.86951"/>
     <use style="fill:#1f78b4;" x="348.55" xlink:href="#m4e9bca7d03" y="320.80993"/>
     <use style="fill:#1f78b4;" x="351.752286" xlink:href="#m4e9bca7d03" y="309.668307"/>
     <use style="fill:#1f78b4;" x="354.954571" xlink:href="#m4e9bca7d03" y="370.815603"/>
     <use style="fill:#1f78b4;" x="358.156857" xlink:href="#m4e9bca7d03" y="421.191789"/>
     <use style="fill:#1f78b4;" x="361.359143" xlink:href="#m4e9bca7d03" y="447.418632"/>
     <use style="fill:#1f78b4;" x="364.561429" xlink:href="#m4e9bca7d03" y="458.173978"/>
     <use style="fill:#1f78b4;" x="367.763714" xlink:href="#m4e9bca7d03" y="460.479984"/>
     <use style="fill:#1f78b4;" x="370.966" xlink:href="#m4e9bca7d03" y="461.714825"/>
     <use style="fill:#1f78b4;" x="374.168286" xlink:href="#m4e9bca7d03" y="459.060365"/>
     <use style="fill:#1f78b4;" x="377.370571" xlink:href="#m4e9bca7d03" y="457.197222"/>
     <use style="fill:#1f78b4;" x="380.572857" xlink:href="#m4e9bca7d03" y="455.389795"/>
     <use style="fill:#1f78b4;" x="383.775143" xlink:href="#m4e9bca7d03" y="452.878994"/>
     <use style="fill:#1f78b4;" x="386.977429" xlink:href="#m4e9bca7d03" y="452.002534"/>
     <use style="fill:#1f78b4;" x="390.179714" xlink:href="#m4e9bca7d03" y="449.494667"/>
     <use style="fill:#1f78b4;" x="393.382" xlink:href="#m4e9bca7d03" y="448.5882"/>
     <use style="fill:#1f78b4;" x="396.584286" xlink:href="#m4e9bca7d03" y="446.620205"/>
     <use style="fill:#1f78b4;" x="399.786571" xlink:href="#m4e9bca7d03" y="441.716322"/>
     <use style="fill:#1f78b4;" x="402.988857" xlink:href="#m4e9bca7d03" y="442.119194"/>
     <use style="fill:#1f78b4;" x="406.191143" xlink:href="#m4e9bca7d03" y="442.205393"/>
     <use style="fill:#1f78b4;" x="409.393429" xlink:href="#m4e9bca7d03" y="440.70961"/>
     <use style="fill:#1f78b4;" x="412.595714" xlink:href="#m4e9bca7d03" y="440.568281"/>
     <use style="fill:#1f78b4;" x="415.798" xlink:href="#m4e9bca7d03" y="441.660308"/>
     <use style="fill:#1f78b4;" x="419.000286" xlink:href="#m4e9bca7d03" y="442.489091"/>
     <use style="fill:#1f78b4;" x="422.202571" xlink:href="#m4e9bca7d03" y="444.436219"/>
     <use style="fill:#1f78b4;" x="425.404857" xlink:href="#m4e9bca7d03" y="446.54654"/>
     <use style="fill:#1f78b4;" x="428.607143" xlink:href="#m4e9bca7d03" y="448.343873"/>
     <use style="fill:#1f78b4;" x="431.809429" xlink:href="#m4e9bca7d03" y="450.039135"/>
     <use style="fill:#1f78b4;" x="435.011714" xlink:href="#m4e9bca7d03" y="450.356661"/>
     <use style="fill:#1f78b4;" x="438.214" xlink:href="#m4e9bca7d03" y="453.20693"/>
     <use style="fill:#1f78b4;" x="441.416286" xlink:href="#m4e9bca7d03" y="453.922814"/>
     <use style="fill:#1f78b4;" x="444.618571" xlink:href="#m4e9bca7d03" y="452.877655"/>
     <use style="fill:#1f78b4;" x="447.820857" xlink:href="#m4e9bca7d03" y="452.708557"/>
     <use style="fill:#1f78b4;" x="451.023143" xlink:href="#m4e9bca7d03" y="452.371407"/>
     <use style="fill:#1f78b4;" x="454.225429" xlink:href="#m4e9bca7d03" y="449.945069"/>
     <use style="fill:#1f78b4;" x="457.427714" xlink:href="#m4e9bca7d03" y="449.265455"/>
     <use style="fill:#1f78b4;" x="460.63" xlink:href="#m4e9bca7d03" y="449.539569"/>
     <use style="fill:#1f78b4;" x="463.832286" xlink:href="#m4e9bca7d03" y="446.792011"/>
     <use style="fill:#1f78b4;" x="467.034571" xlink:href="#m4e9bca7d03" y="447.095787"/>
     <use style="fill:#1f78b4;" x="470.236857" xlink:href="#m4e9bca7d03" y="445.36811"/>
     <use style="fill:#1f78b4;" x="473.439143" xlink:href="#m4e9bca7d03" y="445.381649"/>
     <use style="fill:#1f78b4;" x="476.641429" xlink:href="#m4e9bca7d03" y="445.032923"/>
     <use style="fill:#1f78b4;" x="479.843714" xlink:href="#m4e9bca7d03" y="444.890766"/>
     <use style="fill:#1f78b4;" x="483.046" xlink:href="#m4e9bca7d03" y="446.317457"/>
     <use style="fill:#1f78b4;" x="486.248286" xlink:href="#m4e9bca7d03" y="444.117645"/>
     <use style="fill:#1f78b4;" x="489.450571" xlink:href="#m4e9bca7d03" y="444.720158"/>
     <use style="fill:#1f78b4;" x="492.652857" xlink:href="#m4e9bca7d03" y="445.225917"/>
     <use style="fill:#1f78b4;" x="495.855143" xlink:href="#m4e9bca7d03" y="446.396428"/>
     <use style="fill:#1f78b4;" x="499.057429" xlink:href="#m4e9bca7d03" y="446.605088"/>
     <use style="fill:#1f78b4;" x="502.259714" xlink:href="#m4e9bca7d03" y="447.155838"/>
     <use style="fill:#1f78b4;" x="505.462" xlink:href="#m4e9bca7d03" y="447.122038"/>
     <use style="fill:#1f78b4;" x="508.664286" xlink:href="#m4e9bca7d03" y="447.157439"/>
     <use style="fill:#1f78b4;" x="511.866571" xlink:href="#m4e9bca7d03" y="447.745586"/>
     <use style="fill:#1f78b4;" x="515.068857" xlink:href="#m4e9bca7d03" y="448.077613"/>
     <use style="fill:#1f78b4;" x="518.271143" xlink:href="#m4e9bca7d03" y="448.32269"/>
     <use style="fill:#1f78b4;" x="521.473429" xlink:href="#m4e9bca7d03" y="447.807023"/>
     <use style="fill:#1f78b4;" x="524.675714" xlink:href="#m4e9bca7d03" y="447.897958"/>
     <use style="fill:#1f78b4;" x="527.878" xlink:href="#m4e9bca7d03" y="448.303312"/>
     <use style="fill:#1f78b4;" x="531.080286" xlink:href="#m4e9bca7d03" y="447.490822"/>
     <use style="fill:#1f78b4;" x="534.282571" xlink:href="#m4e9bca7d03" y="447.013371"/>
     <use style="fill:#1f78b4;" x="537.484857" xlink:href="#m4e9bca7d03" y="447.643717"/>
     <use style="fill:#1f78b4;" x="540.687143" xlink:href="#m4e9bca7d03" y="448.190189"/>
     <use style="fill:#1f78b4;" x="543.889429" xlink:href="#m4e9bca7d03" y="447.195755"/>
     <use style="fill:#1f78b4;" x="547.091714" xlink:href="#m4e9bca7d03" y="446.586857"/>
     <use style="fill:#1f78b4;" x="550.294" xlink:href="#m4e9bca7d03" y="447.095147"/>
    </g>
   </g>
   <g id="patch_18">
    <path d="M 326.134 512.964063 
L 326.134 287.364063 
" style="fill:none;stroke:#262626;stroke-linecap:square;stroke-linejoin:miter;stroke-width:1.25;"/>
   </g>
   <g id="patch_19">
    <path d="M 550.294 512.964063 
L 550.294 287.364063 
" style="fill:none;stroke:#262626;stroke-linecap:square;stroke-linejoin:miter;stroke-width:1.25;"/>
   </g>
   <g id="patch_20">
    <path d="M 326.134 512.964062 
L 550.294 512.964062 
" style="fill:none;stroke:#262626;stroke-linecap:square;stroke-linejoin:miter;stroke-width:1.25;"/>
   </g>
   <g id="patch_21">
    <path d="M 326.134 287.364062 
L 550.294 287.364062 
" style="fill:none;stroke:#262626;stroke-linecap:square;stroke-linejoin:miter;stroke-width:1.25;"/>
   </g>
   <g id="text_20">
    <!-- water-water -->
    <defs>
     <path d="M 16.15625 0 
L 0.296875 51.859375 
L 9.375 51.859375 
L 17.625 21.921875 
L 20.703125 10.796875 
Q 20.90625 11.625 23.390625 21.484375 
L 31.640625 51.859375 
L 40.671875 51.859375 
L 48.4375 21.78125 
L 51.03125 11.859375 
L 54 21.875 
L 62.890625 51.859375 
L 71.4375 51.859375 
L 55.21875 0 
L 46.09375 0 
L 37.84375 31.0625 
L 35.84375 39.890625 
L 25.34375 0 
z
" id="ArialMT-77"/>
     <path d="M 40.4375 6.390625 
Q 35.546875 2.25 31.03125 0.53125 
Q 26.515625 -1.171875 21.34375 -1.171875 
Q 12.796875 -1.171875 8.203125 3 
Q 3.609375 7.171875 3.609375 13.671875 
Q 3.609375 17.484375 5.34375 20.625 
Q 7.078125 23.78125 9.890625 25.6875 
Q 12.703125 27.59375 16.21875 28.5625 
Q 18.796875 29.25 24.03125 29.890625 
Q 34.671875 31.15625 39.703125 32.90625 
Q 39.75 34.71875 39.75 35.203125 
Q 39.75 40.578125 37.25 42.78125 
Q 33.890625 45.75 27.25 45.75 
Q 21.046875 45.75 18.09375 43.578125 
Q 15.140625 41.40625 13.71875 35.890625 
L 5.125 37.0625 
Q 6.296875 42.578125 8.984375 45.96875 
Q 11.671875 49.359375 16.75 51.1875 
Q 21.828125 53.03125 28.515625 53.03125 
Q 35.15625 53.03125 39.296875 51.46875 
Q 43.453125 49.90625 45.40625 47.53125 
Q 47.359375 45.171875 48.140625 41.546875 
Q 48.578125 39.3125 48.578125 33.453125 
L 48.578125 21.734375 
Q 48.578125 9.46875 49.140625 6.21875 
Q 49.703125 2.984375 51.375 0 
L 42.1875 0 
Q 40.828125 2.734375 40.4375 6.390625 
M 39.703125 26.03125 
Q 34.90625 24.078125 25.34375 22.703125 
Q 19.921875 21.921875 17.671875 20.9375 
Q 15.4375 19.96875 14.203125 18.09375 
Q 12.984375 16.21875 12.984375 13.921875 
Q 12.984375 10.40625 15.640625 8.0625 
Q 18.3125 5.71875 23.4375 5.71875 
Q 28.515625 5.71875 32.46875 7.9375 
Q 36.421875 10.15625 38.28125 14.015625 
Q 39.703125 17 39.703125 22.796875 
z
" id="ArialMT-61"/>
     <path d="M 25.78125 7.859375 
L 27.046875 0.09375 
Q 23.34375 -0.6875 20.40625 -0.6875 
Q 15.625 -0.6875 12.984375 0.828125 
Q 10.359375 2.34375 9.28125 4.8125 
Q 8.203125 7.28125 8.203125 15.1875 
L 8.203125 45.015625 
L 1.765625 45.015625 
L 1.765625 51.859375 
L 8.203125 51.859375 
L 8.203125 64.703125 
L 16.9375 69.96875 
L 16.9375 51.859375 
L 25.78125 51.859375 
L 25.78125 45.015625 
L 16.9375 45.015625 
L 16.9375 14.703125 
Q 16.9375 10.9375 17.40625 9.859375 
Q 17.875 8.796875 18.921875 8.15625 
Q 19.96875 7.515625 21.921875 7.515625 
Q 23.390625 7.515625 25.78125 7.859375 
" id="ArialMT-74"/>
     <path d="M 42.09375 16.703125 
L 51.171875 15.578125 
Q 49.03125 7.625 43.21875 3.21875 
Q 37.40625 -1.171875 28.375 -1.171875 
Q 17 -1.171875 10.328125 5.828125 
Q 3.65625 12.84375 3.65625 25.484375 
Q 3.65625 38.578125 10.390625 45.796875 
Q 17.140625 53.03125 27.875 53.03125 
Q 38.28125 53.03125 44.875 45.953125 
Q 51.46875 38.875 51.46875 26.03125 
Q 51.46875 25.25 51.421875 23.6875 
L 12.75 23.6875 
Q 13.234375 15.140625 17.578125 10.59375 
Q 21.921875 6.0625 28.421875 6.0625 
Q 33.25 6.0625 36.671875 8.59375 
Q 40.09375 11.140625 42.09375 16.703125 
M 13.234375 30.90625 
L 42.1875 30.90625 
Q 41.609375 37.453125 38.875 40.71875 
Q 34.671875 45.796875 27.984375 45.796875 
Q 21.921875 45.796875 17.796875 41.75 
Q 13.671875 37.703125 13.234375 30.90625 
" id="ArialMT-65"/>
    </defs>
    <g style="fill:#262626;" transform="translate(370.966 490.404063)scale(0.18 -0.18)">
     <use xlink:href="#ArialMT-77"/>
     <use x="72.216797" xlink:href="#ArialMT-61"/>
     <use x="127.832031" xlink:href="#ArialMT-74"/>
     <use x="155.615234" xlink:href="#ArialMT-65"/>
     <use x="211.230469" xlink:href="#ArialMT-72"/>
     <use x="244.53125" xlink:href="#ArialMT-2d"/>
     <use x="277.832031" xlink:href="#ArialMT-77"/>
     <use x="350.048828" xlink:href="#ArialMT-61"/>
     <use x="405.664062" xlink:href="#ArialMT-74"/>
     <use x="433.447266" xlink:href="#ArialMT-65"/>
     <use x="489.0625" xlink:href="#ArialMT-72"/>
    </g>
   </g>
   <g id="text_21">
    <!-- A -->
    <g style="fill:#262626;" transform="translate(22.74456 21.02508)scale(0.18 -0.18)">
     <use xlink:href="#ArialMT-41"/>
    </g>
   </g>
   <g id="legend_1">
    <g id="line2d_21">
     <path d="M 163.489 578.336563 
L 195.489 578.336563 
" style="fill:none;stroke:#a6cee3;stroke-linecap:round;stroke-width:2.8;"/>
    </g>
    <g id="line2d_22"/>
    <g id="text_22">
     <!-- atomistic -->
     <defs>
      <path d="M 3.328125 25.921875 
Q 3.328125 40.328125 11.328125 47.265625 
Q 18.015625 53.03125 27.640625 53.03125 
Q 38.328125 53.03125 45.109375 46.015625 
Q 51.90625 39.015625 51.90625 26.65625 
Q 51.90625 16.65625 48.90625 10.90625 
Q 45.90625 5.171875 40.15625 2 
Q 34.421875 -1.171875 27.640625 -1.171875 
Q 16.75 -1.171875 10.03125 5.8125 
Q 3.328125 12.796875 3.328125 25.921875 
M 12.359375 25.921875 
Q 12.359375 15.96875 16.703125 11.015625 
Q 21.046875 6.0625 27.640625 6.0625 
Q 34.1875 6.0625 38.53125 11.03125 
Q 42.875 16.015625 42.875 26.21875 
Q 42.875 35.84375 38.5 40.796875 
Q 34.125 45.75 27.640625 45.75 
Q 21.046875 45.75 16.703125 40.8125 
Q 12.359375 35.890625 12.359375 25.921875 
" id="ArialMT-6f"/>
      <path d="M 6.640625 61.46875 
L 6.640625 71.578125 
L 15.4375 71.578125 
L 15.4375 61.46875 
z
M 6.640625 0 
L 6.640625 51.859375 
L 15.4375 51.859375 
L 15.4375 0 
z
" id="ArialMT-69"/>
      <path d="M 3.078125 15.484375 
L 11.765625 16.84375 
Q 12.5 11.625 15.84375 8.84375 
Q 19.1875 6.0625 25.203125 6.0625 
Q 31.25 6.0625 34.171875 8.515625 
Q 37.109375 10.984375 37.109375 14.3125 
Q 37.109375 17.28125 34.515625 19 
Q 32.71875 20.171875 25.53125 21.96875 
Q 15.875 24.421875 12.140625 26.203125 
Q 8.40625 27.984375 6.46875 31.125 
Q 4.546875 34.28125 4.546875 38.09375 
Q 4.546875 41.546875 6.125 44.5 
Q 7.71875 47.46875 10.453125 49.421875 
Q 12.5 50.921875 16.03125 51.96875 
Q 19.578125 53.03125 23.640625 53.03125 
Q 29.734375 53.03125 34.34375 51.265625 
Q 38.96875 49.515625 41.15625 46.5 
Q 43.359375 43.5 44.1875 38.484375 
L 35.59375 37.3125 
Q 35.015625 41.3125 32.203125 43.546875 
Q 29.390625 45.796875 24.265625 45.796875 
Q 18.21875 45.796875 15.625 43.796875 
Q 13.03125 41.796875 13.03125 39.109375 
Q 13.03125 37.40625 14.109375 36.03125 
Q 15.1875 34.625 17.484375 33.6875 
Q 18.796875 33.203125 25.25 31.453125 
Q 34.578125 28.953125 38.25 27.359375 
Q 41.9375 25.78125 44.03125 22.75 
Q 46.140625 19.734375 46.140625 15.234375 
Q 46.140625 10.84375 43.578125 6.953125 
Q 41.015625 3.078125 36.171875 0.953125 
Q 31.34375 -1.171875 25.25 -1.171875 
Q 15.140625 -1.171875 9.84375 3.03125 
Q 4.546875 7.234375 3.078125 15.484375 
" id="ArialMT-73"/>
      <path d="M 40.4375 19 
L 49.078125 17.875 
Q 47.65625 8.9375 41.8125 3.875 
Q 35.984375 -1.171875 27.484375 -1.171875 
Q 16.84375 -1.171875 10.375 5.78125 
Q 3.90625 12.75 3.90625 25.734375 
Q 3.90625 34.125 6.6875 40.421875 
Q 9.46875 46.734375 15.15625 49.875 
Q 20.84375 53.03125 27.546875 53.03125 
Q 35.984375 53.03125 41.359375 48.75 
Q 46.734375 44.484375 48.25 36.625 
L 39.703125 35.296875 
Q 38.484375 40.53125 35.375 43.15625 
Q 32.28125 45.796875 27.875 45.796875 
Q 21.234375 45.796875 17.078125 41.03125 
Q 12.9375 36.28125 12.9375 25.984375 
Q 12.9375 15.53125 16.9375 10.796875 
Q 20.953125 6.0625 27.390625 6.0625 
Q 32.5625 6.0625 36.03125 9.234375 
Q 39.5 12.40625 40.4375 19 
" id="ArialMT-63"/>
     </defs>
     <g style="fill:#262626;" transform="translate(208.289 583.936563)scale(0.16 -0.16)">
      <use xlink:href="#ArialMT-61"/>
      <use x="55.615234" xlink:href="#ArialMT-74"/>
      <use x="83.398438" xlink:href="#ArialMT-6f"/>
      <use x="139.013672" xlink:href="#ArialMT-6d"/>
      <use x="222.314453" xlink:href="#ArialMT-69"/>
      <use x="244.53125" xlink:href="#ArialMT-73"/>
      <use x="294.53125" xlink:href="#ArialMT-74"/>
      <use x="322.314453" xlink:href="#ArialMT-69"/>
      <use x="344.53125" xlink:href="#ArialMT-63"/>
     </g>
    </g>
    <g id="line2d_23"/>
    <g id="line2d_24">
     <g>
      <use style="fill:#1f78b4;" x="319.4115" xlink:href="#m4e9bca7d03" y="578.336563"/>
     </g>
    </g>
    <g id="text_23">
     <!-- IBI -->
     <defs>
      <path d="M 9.328125 0 
L 9.328125 71.578125 
L 18.796875 71.578125 
L 18.796875 0 
z
" id="ArialMT-49"/>
     </defs>
     <g style="fill:#262626;" transform="translate(348.2115 583.936563)scale(0.16 -0.16)">
      <use xlink:href="#ArialMT-49"/>
      <use x="27.783203" xlink:href="#ArialMT-42"/>
      <use x="94.482422" xlink:href="#ArialMT-49"/>
     </g>
    </g>
   </g>
  </g>
 </g>
 <defs>
  <clipPath id="pecc895fb8c">
   <rect height="225.6" width="224.16" x="53.814" y="15.044063"/>
  </clipPath>
  <clipPath id="p040fdac496">
   <rect height="225.6" width="224.16" x="326.134" y="15.044063"/>
  </clipPath>
  <clipPath id="p1a96f2abc8">
   <rect height="225.6" width="224.16" x="53.814" y="287.364063"/>
  </clipPath>
  <clipPath id="p2febb2ca45">
   <rect height="225.6" width="224.16" x="326.134" y="287.364063"/>
  </clipPath>
 </defs>
</svg>
